<svg width="53" height="53" viewBox="0 0 53 53" fill="none" xmlns="http://www.w3.org/2000/svg">
<rect x="0" y="0" width="53" height="53" rx="10" fill="#212121"/>
<path d="M23 37C24.656 37 26 35.432 26 33.5V30H23C21.344 30 20 31.568 20 33.5C20 35.432 21.344 37 23 37Z" fill="#0ACF83"/>
<path d="M20 26.5C20 24.568 21.344 23 23 23H26V30H23C21.344 30 20 28.432 20 26.5Z" fill="#A259FF"/>
<path d="M20 19.5C20 17.568 21.344 16 23 16H26V23H23C21.344 23 20 21.432 20 19.5Z" fill="#F24E1E"/>
<path d="M26 16H29.5C31.432 16 33 17.568 33 19.5C33 21.432 31.432 23 29.5 23H26V16Z" fill="#FF7262"/>
<path d="M33 26.5C33 28.432 31.432 30 29.5 30C27.568 30 26 28.432 26 26.5C26 24.568 27.568 23 29.5 23C31.432 23 33 24.568 33 26.5Z" fill="#1ABCFE"/>
</svg>
