<svg width="20" height="20" viewBox="0 0 20 20" fill="none" xmlns="http://www.w3.org/2000/svg">
<rect width="20" height="20" rx="4" fill="#212121"/>
<path d="M9.99968 11.5223C10.7122 11.5223 11.2899 10.9555 11.2899 10.2564C11.2899 9.55725 10.7122 8.99048 9.99968 8.99048C9.28712 8.99048 8.70947 9.55725 8.70947 10.2564C8.70947 10.9555 9.28712 11.5223 9.99968 11.5223Z" fill="#61DAFB"/>
<path d="M9.99974 12.85C13.8232 12.85 16.9228 11.6888 16.9228 10.2564C16.9228 8.82403 13.8232 7.66284 9.99974 7.66284C6.17623 7.66284 3.07666 8.82403 3.07666 10.2564C3.07666 11.6888 6.17623 12.85 9.99974 12.85Z" stroke="#61DAFB" stroke-width="1.5"/>
<path d="M7.71075 11.5532C9.6225 14.8021 12.1972 16.8553 13.4615 16.1391C14.7258 15.4229 14.2009 12.2085 12.2892 8.95959C10.3774 5.71067 7.80272 3.6575 6.53842 4.3737C5.27413 5.0899 5.79899 8.30427 7.71075 11.5532Z" stroke="#61DAFB" stroke-width="1.5"/>
<path d="M7.71101 8.95963C5.79926 12.2085 5.27439 15.4229 6.53869 16.1391C7.80298 16.8553 10.3777 14.8021 12.2894 11.5532C14.2012 8.3043 14.7261 5.08994 13.4618 4.37374C12.1975 3.65753 9.62277 5.71071 7.71101 8.95963Z" stroke="#61DAFB" stroke-width="1.5"/>
</svg>
