<svg width="95" height="87" viewBox="0 0 95 87" fill="none" xmlns="http://www.w3.org/2000/svg">
<path d="M94.52 13.9601V14.4601C87.96 14.1601 83.82 19.3801 83.79 25.9301L83.69 43.2701C83.66 47.7701 80.79 51.6 76.64 53.17C73.22 54.46 69.49 54.4201 66.1 53.1101C61.91 51.4901 59.05 47.69 59.02 43.12L58.91 23.9001C58.91 22.2701 56.97 22.4401 55.71 21.8301C58.95 21.6701 61.98 21.6901 65.29 21.8201C64.31 22.2301 63.46 22.3301 62.73 22.7001C62.25 22.9501 61.89 24.0101 61.89 24.7001L61.91 42.1501C61.91 44.5201 62.58 46.7601 63.8 48.6501C65.63 51.4701 68.51 52.68 71.86 52.66C76.84 52.62 81.41 49.09 81.47 43.84L81.66 25.8201C81.74 18.3601 87.22 13.5401 94.52 13.9801V13.9601ZM92.3 84.9501L85.38 68.4701L78.54 84.7601C78.15 85.7001 77.18 85.8901 76.26 86.2901L81.19 86.3301L80.09 85.6601C79.9 85.5401 79.9 84.9801 79.98 84.7601L81.72 80.2701H88.47L90.06 84.5301C90.16 84.8 90.23 85.5201 89.99 85.6601L88.88 86.34L94.51 86.2801V86.0301C93.87 86.1401 92.65 85.8 92.29 84.9501H92.3ZM82.01 79.5501L85.17 71.5201L88.19 79.5301L82.01 79.5501ZM38.4 61.07C41.42 63.35 45.31 64.09 48.85 62.23C45.55 62.4701 42.53 61.85 40.23 59.48C37.17 56.33 34.95 52.5401 33.45 48.34L26.45 28.7001C24.75 23.9201 22.4 19.6901 17.2 18.9301C15.12 19.1501 12.77 19.0101 11.06 20.6501C14.93 19.2001 18.92 20.0801 20.84 23.5601L9.60001 50.43C8.82001 52.2901 7.19 52.68 5.41 53.32C8.62 53.44 11.52 53.43 14.56 53.35C13.72 52.89 12.94 52.72 12.6 52.35C12.16 51.86 12.13 50.8001 12.35 50.2401L15.51 42.09L28.01 42.14C30.34 49.46 32.66 56.75 38.41 61.07H38.4ZM16.01 40.68L22.01 25.3701C22.9 27.4001 23.61 29.2801 24.3 31.3201L27.46 40.66H16.01V40.68ZM44.89 79.2801L48.29 84.09C49.51 85.8101 51.35 86.4201 53.37 86.3801L57.94 86.3001C57.42 85.9201 56.98 85.4301 57.01 85.0701L58.13 72.9401L64.6 86.8901L65.54 84.2501L70.8 72.6401L72.01 85.2801C71.79 85.6001 71.54 85.84 70.97 86.34L76.07 86.2601L74.46 85.7401C74.09 85.62 73.83 84.7501 73.78 84.2901L71.81 68.3501L64.85 83.5801L57.76 68.3801L55.58 85.0601C55.4 86.4301 52.97 86.2501 52.1 85.5601C49.27 83.3 48.36 80.6901 45.89 78.3601C48.03 78.2301 49.65 76.3501 49.94 74.0701C50.28 71.4501 48.52 68.9301 45.76 68.9201L38.34 68.8801C39.31 69.2501 40.27 69.6301 40.26 70.6101V84.6801C40.26 85.7001 39.3 85.9701 38.35 86.2601L43.78 86.3201L42.36 85.6901C42.02 85.5401 41.85 84.7401 41.85 84.3001V69.6501H44.6C46.46 69.6501 47.72 70.8201 48.02 72.6401C48.28 74.23 48 76.0301 46.47 76.9701C45.4 77.6301 43.93 77.5801 42.59 77.6101C43.46 77.9901 44.28 78.5001 44.84 79.3001L44.89 79.2801ZM44.29 38.12L44.99 38.9001C45.14 39.0601 45.72 38.36 45.76 38.1L45.78 23.2801L47.58 22.6101L48.36 14.8501C49.49 15.1601 50.34 14.8401 50.46 14.0301L52.4 1.24005C52.47 0.790051 51.82 0.0900511 51.45 5.1084e-05C51.08 -0.0899489 50.27 0.420051 50.2 0.860051L48.38 12.7101H41.72L40.01 1.39005C39.94 0.930051 39.61 0.290051 39.28 0.200051C38.95 0.110051 38.08 0.270051 37.9 0.570051C37.75 0.830051 37.74 1.38005 37.8 1.79005L39.56 13.5201C39.63 13.9601 39.83 14.8001 40.19 14.8201L41.8 14.9301L42.51 22.3201C42.56 22.8501 43.78 23.1701 44.28 23.2201V38.1101L44.29 38.12ZM45 20.9001C44.88 20.7801 44.57 20.3701 44.56 20.2101L44.11 15.0401L46.03 15.0001L45.61 20.1901C45.59 20.4101 45.12 21.0101 45 20.8901V20.9001ZM4.38 86.3001C7.38 86.3701 10.54 86.4101 13.7 86.3001C18.63 86.1201 21.93 82.05 21.75 77.2801C21.59 72.8701 18.54 69.4101 13.98 68.9801C10.88 68.6901 7.64999 68.7401 4.50999 68.9901C2.38999 69.16 0.33 70.2101 0 72.3901C1.01 71.1001 2.1 70.0301 3.78 69.84L6.25 69.5701L6.23 84.8301C6.23 85.6501 5.12 85.9901 4.38 86.2801V86.3001ZM13.74 85.5201L7.83 85.59V69.59L12.98 69.6201C16.08 69.6401 18.54 71.68 19.44 74.59C19.99 76.7101 20 78.8201 19.33 81.0401C18.35 83.4601 16.37 85.4901 13.73 85.5201H13.74ZM32.94 78.6401L33.4 79.8201V75.8001C33.22 76.2801 32.86 77.3001 32.38 77.3001L27.73 77.34V69.6301L32.88 69.6501C33.23 69.6501 33.87 69.9301 33.96 70.2101L34.4 71.59L34.51 68.5301L31.69 68.8301L24.18 68.8701C24.94 69.1701 26.13 69.5301 26.13 70.3301L26.15 84.5201C26.15 84.9 25.86 85.6401 25.55 85.7601L24.13 86.3201L34.62 86.3701L35.78 82.7501C34.8 83.9601 34.11 85.4701 32.42 85.4901L27.75 85.5501V78.09L31.75 78.0801C32.11 78.0801 32.84 78.3201 32.96 78.6301L32.94 78.6401ZM42.3 45.5601C42.48 45.3801 42.37 44.6201 42.15 44.5401C41.93 44.46 41.4 44.5101 41.21 44.7001L39.47 46.4501C39.28 46.64 39.41 47.37 39.63 47.51C39.85 47.65 40.4 47.51 40.63 47.28L42.31 45.55L42.3 45.5601ZM45.01 46.43C44.28 46.84 44.26 47.8001 44.28 48.6501C44.3 49.3601 44.11 50.68 45.33 50.68C46.13 49.2701 46.02 46.78 45.02 46.44L45.01 46.43ZM52.75 40.69L50.23 40.67C50 40.67 49.53 41.2801 49.64 41.4701C50.35 42.7901 53.77 41.98 53.34 41.2701C53.25 41.1301 52.92 40.69 52.75 40.69ZM42.15 38.71C42.27 38.53 42.29 37.8101 42.13 37.66L40.21 35.87C40.06 35.73 39.42 36.1101 39.4 36.32C39.38 36.48 39.4 37 39.52 37.1101L41.21 38.75C41.38 38.91 42.04 38.89 42.16 38.71H42.15ZM49.09 44.7401C48.91 44.5701 48.22 44.58 48.12 44.78C48.02 44.98 48.06 45.6301 48.23 45.8101L49.6 47.23C49.84 47.4701 50.59 47.46 50.78 47.19C50.92 46.97 50.8 46.33 50.58 46.12L49.09 44.7401ZM50.79 37.09C50.92 36.96 50.85 36.3801 50.75 36.23C50.65 36.08 50.09 35.9 49.96 36.03L47.9 38.1301L48.36 38.85C48.46 39 49.11 38.8 49.24 38.67L50.8 37.1L50.79 37.09ZM41.09 41.3601C40.11 40.3601 37.41 40.67 37.38 41.51C37.35 42.29 38.94 42.39 40.7 42.1301C40.86 42.0301 41.21 41.48 41.09 41.3601Z" fill="#CCCCCC"/>
</svg>
