<svg width="40" height="50" viewBox="0 0 40 50" fill="none" xmlns="http://www.w3.org/2000/svg">
<path d="M2.75107 42.6743C2.42876 42.3509 2.14142 42.1707 1.88795 42.1346C2.23866 42.0516 2.41347 41.8363 2.41347 41.4878C2.41347 41.1393 2.29329 40.8607 2.05183 40.6203C1.81147 40.381 1.52084 40.2609 1.18324 40.2609H0V46.1039H1.49681V46.0973C1.87702 46.0919 2.25505 45.893 2.63307 45.5019C3.03513 45.0856 3.23507 44.5907 3.23507 44.0182C3.23507 43.4457 3.07447 42.9988 2.75107 42.6743ZM0.756052 41.0169H1.18324C1.32418 41.0169 1.44 41.0606 1.53177 41.1502C1.62355 41.2387 1.66834 41.3512 1.66834 41.4878C1.66834 41.6244 1.62464 41.7325 1.53723 41.8134C1.45638 41.8888 1.36024 41.9314 1.2488 41.9401H0.756052V41.0169ZM2.07805 44.9578C1.84643 45.1982 1.65304 45.3238 1.49681 45.3336V45.3446H0.756052V42.718H1.16139C1.51866 42.718 1.82458 42.8459 2.07914 43.1004C2.33371 43.355 2.46154 43.6609 2.46154 44.0182C2.46154 44.3755 2.33371 44.6945 2.07805 44.9578ZM7.08853 44.8147C6.9913 44.9316 6.92684 45.007 6.89515 45.0408C6.63949 45.2943 6.33139 45.421 5.97084 45.421C5.63761 45.421 5.40708 45.3653 5.28035 45.2528L7.27099 43.2632L7.6512 42.8797C7.53648 42.7508 7.46656 42.6732 7.44252 42.6492C7.38462 42.5902 7.32453 42.5356 7.26334 42.4853C6.89406 42.1881 6.4625 42.0396 5.97084 42.0396C5.39834 42.0396 4.90888 42.2428 4.50244 42.6492C4.09601 43.0556 3.89279 43.5462 3.89279 44.1209C3.89279 44.6956 4.09601 45.1861 4.50244 45.5926C4.90888 45.999 5.39834 46.2022 5.97084 46.2022C6.54335 46.2022 7.03609 45.999 7.44252 45.5926C7.52556 45.5106 7.65994 45.3413 7.84459 45.0856L7.08853 44.8147ZM4.6707 44.1209C4.6707 43.7603 4.79743 43.4533 5.052 43.1988C5.30657 42.9442 5.61248 42.8175 5.97084 42.8175C6.26802 42.8175 6.45922 42.8502 6.54444 42.9158L4.76903 44.6945C4.70347 44.6071 4.6707 44.4159 4.6707 44.1209ZM9.37854 45.0594L8.62577 45.22C8.67712 45.4636 8.78419 45.6669 8.94698 45.8297C9.18297 46.0678 9.46813 46.188 9.80136 46.188C10.1346 46.188 10.423 46.0689 10.6579 45.8318C10.8928 45.5948 11.0108 45.3074 11.0108 44.972C11.0108 44.6366 10.8928 44.3602 10.6568 44.1209C10.5203 43.9843 10.3018 43.8335 9.99912 43.6675C9.83632 43.5626 9.73144 43.4883 9.68446 43.4446C9.63311 43.3932 9.60798 43.331 9.60798 43.2578C9.60798 43.1846 9.6342 43.1223 9.68664 43.0698C9.73909 43.0174 9.80136 42.9912 9.87456 42.9912C9.94777 42.9912 10.0057 43.013 10.0494 43.0567C10.0669 43.0764 10.0832 43.1168 10.1007 43.1769L10.8349 42.965C10.7989 42.8 10.7137 42.6492 10.5793 42.5159C10.3913 42.3258 10.1564 42.2308 9.87456 42.2308C9.59268 42.2308 9.35123 42.3313 9.15129 42.5323C8.95135 42.7333 8.85193 42.9748 8.85193 43.2578C8.85193 43.5407 8.95135 43.7778 9.15129 43.9778C9.26601 44.0925 9.45939 44.2236 9.73253 44.3722C9.93247 44.4989 10.0625 44.5929 10.1237 44.653C10.2111 44.7404 10.2548 44.8463 10.2548 44.9709C10.2548 45.0955 10.21 45.208 10.1215 45.2965C10.033 45.3839 9.92591 45.4276 9.80245 45.4276C9.679 45.4276 9.57083 45.3839 9.48124 45.2965C9.43535 45.2506 9.40039 45.1708 9.37854 45.0594ZM11.7778 42.3466V43.1026H12.453V46.105H13.2091V43.1026H13.8843V42.3466H13.2091V40.9372H12.453V42.3466H11.7778ZM20.1031 42.6743C19.7808 42.3509 19.4924 42.1707 19.2389 42.1346C19.5896 42.0516 19.7655 41.8363 19.7655 41.4878C19.7655 41.1393 19.6442 40.8607 19.4039 40.6203C19.1624 40.381 18.8729 40.2609 18.5342 40.2609H17.351V46.1039H18.8489V46.0973C19.228 46.0919 19.6071 45.893 19.984 45.5019C20.3861 45.0856 20.5871 44.5907 20.5871 44.0182C20.5871 43.4457 20.4254 42.9988 20.1031 42.6743ZM18.107 41.0169H18.5342C18.6751 41.0169 18.792 41.0606 18.8827 41.1502C18.9745 41.2387 19.0204 41.3512 19.0204 41.4878C19.0204 41.6244 18.9767 41.7325 18.8882 41.8134C18.8084 41.8888 18.7123 41.9314 18.5998 41.9401H18.107V41.0169ZM19.429 44.9578C19.1974 45.1982 19.004 45.3238 18.8489 45.3336V45.3446H18.107V42.718H18.5124C18.8707 42.718 19.1766 42.8459 19.4312 43.1004C19.6858 43.355 19.8125 43.6609 19.8125 44.0182C19.8125 44.3755 19.6847 44.6945 19.429 44.9578ZM24.1696 45.7204C24.457 45.4309 24.6045 45.0681 24.611 44.6322V42.3455H23.855V44.6027C23.855 44.8223 23.7752 45.0091 23.6157 45.1632C23.4562 45.3183 23.2683 45.3948 23.0519 45.3948C22.8159 45.3948 22.6182 45.3172 22.4598 45.161C22.3013 45.0048 22.2227 44.819 22.2227 44.6027V42.3455H21.4634V44.6322C21.471 45.0681 21.6196 45.4309 21.9091 45.7204C22.1986 46.0099 22.581 46.1552 23.0563 46.1552C23.5316 46.1552 23.8801 46.0099 24.1707 45.7204H24.1696ZM28.9692 40.2609V42.6055C28.6032 42.2275 28.1782 42.0396 27.6942 42.0396C27.1195 42.0396 26.629 42.2428 26.2236 42.6492C25.8183 43.0556 25.6162 43.5462 25.6162 44.1209C25.6162 44.6956 25.8183 45.1861 26.2236 45.5926C26.629 45.999 27.1195 46.2022 27.6942 46.2022C28.1782 46.2022 28.6032 46.0143 28.9692 45.6363V46.1039H29.7286V40.2609H28.9692ZM28.9692 44.4028C28.9245 44.6355 28.8065 44.8485 28.6142 45.0408C28.3607 45.2943 28.0548 45.421 27.6942 45.421C27.3337 45.421 27.0267 45.2943 26.7721 45.0408C26.5175 44.7884 26.3897 44.4814 26.3897 44.1209C26.3897 43.7603 26.5175 43.4566 26.7721 43.201C27.0267 42.9453 27.3337 42.8175 27.6942 42.8175C28.0548 42.8175 28.3607 42.9453 28.6142 43.201C28.8065 43.3932 28.9245 43.6074 28.9692 43.8434V44.4028ZM34.0857 40.2609V42.6055C33.7197 42.2275 33.2958 42.0396 32.8107 42.0396C32.236 42.0396 31.7465 42.2428 31.3412 42.6492C30.9359 43.0556 30.7326 43.5462 30.7326 44.1209C30.7326 44.6956 30.9359 45.1861 31.3412 45.5926C31.7465 45.999 32.236 46.2022 32.8107 46.2022C33.2958 46.2022 33.7197 46.0143 34.0857 45.6363V46.1039H34.845V40.2609H34.0857ZM34.0857 44.4028C34.042 44.6355 33.9229 44.8485 33.7306 45.0408C33.4782 45.2943 33.1712 45.421 32.8107 45.421C32.4501 45.421 32.1431 45.2943 31.8886 45.0408C31.634 44.7884 31.5073 44.4814 31.5073 44.1209C31.5073 43.7603 31.634 43.4566 31.8886 43.201C32.1431 42.9453 32.4501 42.8175 32.8107 42.8175C33.1712 42.8175 33.4782 42.9453 33.7306 43.201C33.9229 43.3932 34.042 43.6074 34.0857 43.8434V44.4028ZM39.271 42.3466H38.4232L37.4705 44.4028L36.5177 42.3466H35.6666L37.0651 45.2681L36.0643 47.368H36.8641L39.271 42.3466ZM10.4493 48.3141H10.9562V49.9683H11.1977V48.3141H11.7024V48.1175H10.4493V48.3141ZM12.6442 48.489C12.2334 48.489 11.9089 48.7785 11.9089 49.2385C11.9089 49.6984 12.2225 49.9923 12.6344 49.9923C13.0463 49.9923 13.3795 49.6995 13.3795 49.2385C13.3795 48.7774 13.0583 48.489 12.6442 48.489ZM12.6344 49.7793C12.382 49.7793 12.1558 49.6066 12.1558 49.2385C12.1558 48.8703 12.3875 48.6987 12.642 48.6987C12.8966 48.6987 13.1326 48.8714 13.1326 49.2385C13.1326 49.6056 12.8857 49.7793 12.6344 49.7793ZM14.9888 48.513H14.7474V49.3117C14.7474 49.6252 14.5802 49.7793 14.3311 49.7793C14.082 49.7793 13.9247 49.6285 13.9247 49.3335V48.513H13.6854V49.3652C13.6854 49.7815 13.9487 49.989 14.283 49.989C14.4764 49.989 14.6545 49.9038 14.7474 49.753V49.9683H14.9888V48.5141V48.513ZM15.6389 49.1773C15.6389 48.8397 15.8137 48.737 16.0453 48.737H16.1087V48.4879C15.8782 48.4879 15.7209 48.5884 15.6389 48.7512V48.5152H15.3975V49.9694H15.6389V49.1784V49.1773ZM18.4162 49.5509C18.4534 49.4985 18.4872 49.4449 18.5222 49.3838L18.7396 49.0068H18.4796L18.2993 49.3095C18.2829 49.3357 18.2665 49.3597 18.2512 49.3838L17.6995 48.8287C17.5684 48.6911 17.5083 48.6004 17.5083 48.4922C17.5083 48.3699 17.6012 48.2792 17.7443 48.2792C17.8743 48.2792 17.9748 48.3622 17.9693 48.513H18.2108C18.225 48.2661 18.0469 48.0803 17.7552 48.0803C17.4635 48.0803 17.2657 48.2562 17.2657 48.4922C17.2657 48.6277 17.3116 48.7304 17.4253 48.8637C17.1357 48.9773 16.9904 49.1827 16.9904 49.4373C16.9904 49.7793 17.2526 50 17.6383 50C17.8983 50 18.0972 49.9093 18.2753 49.7235L18.5167 49.9683H18.8325L18.4162 49.5509ZM17.6383 49.7924C17.3968 49.7924 17.2319 49.6361 17.2319 49.4286C17.2319 49.2428 17.3411 49.1052 17.5717 49.0178L18.1157 49.564C17.9781 49.7181 17.8295 49.7924 17.6383 49.7924ZM19.653 48.3141H20.1599V49.9683H20.4014V48.3141H20.9062V48.1175H19.653V48.3141ZM21.4448 49.1773C21.4448 48.8397 21.6196 48.737 21.8512 48.737H21.9146V48.4879C21.6841 48.4879 21.5267 48.5884 21.4448 48.7512V48.5152H21.2033V49.9694H21.4448V49.1784V49.1773ZM23.3349 48.513V48.7785C23.2497 48.6277 23.064 48.489 22.793 48.489C22.403 48.489 22.1036 48.7818 22.1036 49.2352C22.1036 49.6886 22.403 49.9923 22.7908 49.9923C23.0585 49.9923 23.2475 49.8536 23.3349 49.6973V49.9683H23.5786V48.513H23.3349ZM22.8411 49.7793C22.5756 49.7793 22.3505 49.5782 22.3505 49.2352C22.3505 48.8921 22.5756 48.6987 22.8411 48.6987C23.1066 48.6987 23.3349 48.9008 23.3349 49.2385C23.3349 49.5761 23.1066 49.7793 22.8411 49.7793ZM23.8156 48.513L24.386 49.9672H24.6678L25.2382 48.513H24.9803L24.5291 49.7443L24.0757 48.513H23.8156ZM26.8049 49.1849C26.8049 48.7872 26.5285 48.489 26.1067 48.489C25.685 48.489 25.3867 48.7785 25.3867 49.2385C25.3867 49.6984 25.6927 49.9923 26.1067 49.9923C26.4673 49.9923 26.7011 49.7847 26.7754 49.5192H26.5154C26.4618 49.6755 26.3242 49.7869 26.1067 49.7869C25.8598 49.7869 25.6522 49.6252 25.6337 49.3313H26.7961C26.8016 49.28 26.8049 49.2384 26.8049 49.1849ZM25.6369 49.1347C25.6632 48.8506 25.8598 48.6933 26.0958 48.6933C26.3449 48.6933 26.558 48.8506 26.5547 49.1347H25.6369ZM27.1228 49.9683H27.3643V48.0039H27.1228V49.9683ZM28.8218 49.5728C28.8108 49.0527 27.9674 49.2406 27.9674 48.8954C27.9674 48.7785 28.0733 48.6933 28.2514 48.6933C28.4448 48.6933 28.5563 48.7992 28.5672 48.9456H28.8086C28.7923 48.6616 28.5803 48.489 28.2591 48.489C27.9379 48.489 27.7259 48.6725 27.7259 48.8954C27.7259 49.4373 28.5858 49.2483 28.5858 49.5728C28.5858 49.6919 28.4798 49.788 28.2886 49.788C28.0843 49.788 27.9597 49.682 27.9466 49.5411H27.6975C27.7139 49.8066 27.9521 49.9923 28.2919 49.9923C28.6131 49.9923 28.8228 49.812 28.8228 49.5728H28.8218Z" fill="#CCCCCC"/>
<path d="M27.8061 3.38476C25.6232 1.20182 22.7214 0 19.6349 0C13.2631 0 8.07886 5.18421 8.07886 11.556V26.0915C8.07886 26.8388 8.15097 27.5872 8.293 28.3127C8.48748 29.3178 8.81634 30.2924 9.27193 31.2112C10.3416 33.3723 12.1049 35.1838 14.2343 36.3102C15.1761 36.8095 16.1824 37.1755 17.2236 37.3962C18.0113 37.5634 18.822 37.6486 19.6349 37.6486C19.7518 37.6486 19.8687 37.6464 19.9845 37.6431C20.1637 37.6377 20.3483 37.6278 20.534 37.6136C21.5632 37.5339 22.575 37.3176 23.5397 36.9712C24.5623 36.6041 25.5303 36.0928 26.4164 35.4493C28.9031 33.6444 30.5441 30.9905 31.0379 27.9762C31.1395 27.3567 31.1909 26.7219 31.1909 26.0915V11.556C31.1909 8.46845 29.9891 5.56661 27.8061 3.38476ZM8.78247 11.556C8.78247 5.57207 13.6509 0.70361 19.6349 0.70361C22.5334 0.70361 25.2594 1.83223 27.309 3.88187C29.3587 5.93152 30.4873 8.65637 30.4873 11.556V21.6349C26.0613 22.1222 21.9489 24.1544 18.8581 27.3873C16.0688 25.8511 12.9102 25.0404 9.70677 25.0404C9.39649 25.0404 9.0862 25.0481 8.78247 25.0634V11.556ZM16.8434 29.8816C14.4682 28.6339 11.7947 27.9762 9.09494 27.9762C9.04468 27.9762 8.99442 27.9762 8.94635 27.9772C8.83709 27.3589 8.78247 26.7252 8.78247 26.0915V25.5911C9.0862 25.5758 9.39649 25.5681 9.70677 25.5681C12.7769 25.5681 15.8054 26.334 18.4877 27.785C17.8911 28.4416 17.3405 29.1452 16.8434 29.8816ZM9.05124 28.5028H9.09494C11.692 28.5028 14.2638 29.1321 16.5528 30.3252C16.0731 31.0747 15.647 31.8591 15.2821 32.6654C13.6018 31.7051 11.7826 31.0867 9.86519 30.8256C9.50574 30.0848 9.2326 29.3047 9.05124 28.5028ZM10.1689 31.4046C11.8995 31.6854 13.5438 32.2721 15.0691 33.1505C14.7446 33.9219 14.4703 34.714 14.2529 35.5159C12.5562 34.5457 11.1304 33.1079 10.1689 31.4046ZM15.6448 33.1462C16.0633 32.1847 16.5691 31.2506 17.1493 30.371C17.7273 29.4937 18.3839 28.6612 19.1006 27.8964C22.1084 24.6843 26.14 22.6576 30.4873 22.167V24.6744C27.025 25.2393 23.8849 26.853 21.3895 29.3572C20.6258 30.1209 19.9353 30.9621 19.3366 31.8569C18.6985 32.8086 18.1577 33.8268 17.7305 34.8844C17.4967 35.4624 17.2946 36.0567 17.1296 36.6544C16.2982 36.4577 15.4919 36.1627 14.7293 35.7749C14.9653 34.8822 15.2723 33.9984 15.6448 33.1462ZM19.9626 36.9395C19.1902 36.9636 18.4068 36.9046 17.6475 36.7636C17.8048 36.1955 17.9971 35.6317 18.22 35.0822C18.633 34.0584 19.1563 33.0719 19.7747 32.1508C20.3549 31.2844 21.0235 30.4694 21.7632 29.7297C24.1581 27.3261 27.1681 25.7681 30.4873 25.2098V26.0915C30.4873 26.641 30.4458 27.1939 30.3638 27.7358C27.8651 28.4438 25.5795 29.7953 23.7396 31.6559C22.9584 32.4469 22.2669 33.3199 21.6823 34.2507C21.1503 35.0953 20.7045 35.9912 20.3527 36.9199C20.2205 36.9297 20.0905 36.9352 19.9626 36.9395ZM26.0034 34.8801C25.1709 35.4842 24.263 35.965 23.3026 36.3091C22.54 36.5834 21.7468 36.7702 20.9394 36.8663C21.2639 36.0567 21.6627 35.2734 22.1292 34.5315C22.6929 33.6323 23.3616 32.79 24.1144 32.0274C25.8297 30.2935 27.9449 29.0174 30.2589 28.3159C29.7116 30.9578 28.2126 33.2751 26.0034 34.8801Z" fill="#CCCCCC"/>
<path d="M14.0281 8.06508H14.0259C14.0969 7.96019 14.1144 7.82034 14.0794 7.64444C14.0423 7.45652 13.9461 7.30902 13.791 7.20086C13.6358 7.0927 13.484 7.05118 13.3354 7.0774C13.1868 7.10362 13.083 7.14842 13.0262 7.2096C13.0699 7.09925 13.0448 7.01075 12.9497 6.9452C12.8579 6.88074 12.7574 6.85889 12.6471 6.87855C12.5356 6.89931 12.4493 6.95503 12.3849 7.04681L12.1609 7.36693L13.7451 8.47151L14.0281 8.06508ZM12.8525 7.34617L12.7596 7.47946L12.5094 7.30575L12.5892 7.18993C12.6165 7.15169 12.6504 7.12766 12.6919 7.12001C12.7334 7.11236 12.7727 7.1211 12.8088 7.14732C12.8459 7.17245 12.8667 7.20523 12.8721 7.24347C12.8776 7.27953 12.8721 7.31449 12.8525 7.34617ZM12.9705 7.62696L13.047 7.51661C13.1147 7.42047 13.2065 7.36147 13.3234 7.34071C13.4414 7.31886 13.5473 7.34289 13.6446 7.41063C13.7429 7.47837 13.8041 7.57233 13.827 7.69142C13.8489 7.79958 13.8456 7.87606 13.8194 7.91977L13.8216 7.92195L13.6817 8.12298L12.9705 7.62696Z" fill="#CCCCCC"/>
<path d="M15.4205 6.56436L15.2511 6.37971L14.6677 6.91398L14.27 6.47804L14.8524 5.94487L14.6841 5.76023L14.1007 6.29449L13.7019 5.85856L14.2853 5.32539L14.1171 5.14075L13.349 5.84326L14.6535 7.26687L15.4205 6.56436Z" fill="#CCCCCC"/>
<path d="M15.3602 5.1748C15.476 5.2054 15.6049 5.20758 15.7459 5.17918C15.8486 5.16497 15.9447 5.17043 16.0354 5.19447C16.1294 5.22069 16.2015 5.27532 16.2496 5.35945C16.2987 5.44467 16.3107 5.53426 16.2845 5.62931C16.2594 5.72327 16.2048 5.79538 16.1206 5.84345C16.0354 5.89153 15.9469 5.90354 15.8519 5.87841C15.771 5.85656 15.688 5.78773 15.6039 5.67192L15.4378 5.86858C15.5416 5.99969 15.6585 6.08272 15.7863 6.11769C15.9469 6.16139 16.0999 6.14172 16.2441 6.05869C16.3883 5.97565 16.4812 5.85438 16.5249 5.69377C16.5686 5.53207 16.5478 5.38021 16.4648 5.23599C16.3818 5.09177 16.2605 4.99781 16.0999 4.95629C15.9557 4.91696 15.806 4.91477 15.6508 4.94755C15.5645 4.9552 15.4924 4.95083 15.4323 4.93553C15.3777 4.92024 15.3373 4.88855 15.3089 4.84048C15.2805 4.79132 15.2739 4.73996 15.2892 4.68643C15.3034 4.63289 15.3351 4.59247 15.3842 4.56406C15.4323 4.53675 15.4826 4.53019 15.5361 4.5433C15.5667 4.55204 15.6126 4.58154 15.6738 4.6318L15.8256 4.4417C15.7437 4.36631 15.6694 4.32151 15.6017 4.30403C15.4815 4.27235 15.3679 4.28764 15.2597 4.34883C15.1515 4.4111 15.0805 4.50288 15.0488 4.62415C15.0161 4.74434 15.0313 4.85796 15.0925 4.96503C15.1548 5.0732 15.2444 5.14312 15.3602 5.1748Z" fill="#CCCCCC"/>
<path d="M16.9364 3.89191L17.4455 5.4936L17.6848 5.41713L17.1757 3.81543L17.604 3.67886L17.5286 3.44177L16.4316 3.7903L16.507 4.02848L16.9364 3.89191Z" fill="#CCCCCC"/>
<path d="M20.0309 5.14405C20.1566 5.14952 20.2844 5.09161 20.4166 4.96924C20.5576 4.83923 20.6329 4.68081 20.6439 4.49179C20.6548 4.30278 20.61 4.15201 20.5095 4.03947C20.409 3.92585 20.3183 3.86138 20.2353 3.845C20.3522 3.82424 20.4144 3.7565 20.421 3.64069C20.4275 3.52925 20.3926 3.43201 20.3183 3.34788C20.2429 3.26485 20.15 3.21896 20.0386 3.2135L19.6475 3.19055L19.5371 5.11783L20.0309 5.14624V5.14405ZM19.8824 3.45386L20.0233 3.4626C20.0703 3.46478 20.1074 3.48227 20.1358 3.51286C20.1642 3.54454 20.1773 3.58169 20.1752 3.62758C20.173 3.67237 20.1555 3.70733 20.126 3.73137C20.0976 3.75541 20.0648 3.76742 20.0277 3.76852L19.8649 3.75868L19.8824 3.45386ZM19.8507 4.01544L19.984 4.02308C20.102 4.02964 20.2014 4.07771 20.2801 4.16621C20.3587 4.2558 20.3948 4.3585 20.3882 4.4765C20.3817 4.59668 20.3336 4.6972 20.244 4.77914C20.1631 4.85452 20.0965 4.89167 20.0452 4.89276V4.89604L19.8004 4.88184L19.8507 4.01544Z" fill="#CCCCCC"/>
<path d="M21.6546 5.45551C21.8283 5.50904 21.9944 5.49265 22.1561 5.40853C22.2894 5.33751 22.3888 5.23044 22.4555 5.0895L22.8575 3.79044L22.6183 3.71615L22.237 4.94746C22.2031 5.05454 22.1375 5.13429 22.0392 5.18564C21.9398 5.23809 21.8371 5.24792 21.73 5.21405C21.6229 5.18127 21.5432 5.11463 21.4907 5.0163C21.4383 4.91687 21.4295 4.81417 21.4623 4.70819L21.8436 3.47578L21.6044 3.40149L21.222 4.6339C21.1684 4.80652 21.1837 4.97369 21.2689 5.13429C21.3531 5.2949 21.482 5.40197 21.6546 5.45551Z" fill="#CCCCCC"/>
<path d="M22.8965 5.94921C23.1631 6.11309 23.4187 6.16663 23.6602 6.10872C23.9257 6.04645 24.13 5.89895 24.2731 5.66733C24.4162 5.43571 24.4577 5.18769 24.3955 4.92111C24.3397 4.67965 24.1791 4.47534 23.9126 4.30818L23.7574 4.21204L22.7402 5.85307L22.8965 5.94921ZM23.835 4.55947C24.0043 4.66436 24.1092 4.80421 24.1496 4.97902C24.1955 5.17677 24.166 5.36141 24.059 5.53404C23.9519 5.70775 23.8 5.81701 23.6023 5.8629C23.4275 5.90551 23.2548 5.87382 23.0855 5.76894L23.835 4.55947Z" fill="#CCCCCC"/>
<path d="M17.0531 13.8922L15.6842 15.1246L15.1444 15.6108L13.8443 16.781C13.794 16.8258 13.7656 16.8902 13.7656 16.959V17.0213C13.7656 17.1961 13.9448 17.3119 14.1032 17.2398L18.4625 15.2787C18.6155 15.2099 18.7903 15.3147 18.8001 15.4819C18.9149 17.3393 19.1039 19.142 19.1552 19.6183C19.1629 19.6948 19.1334 19.7702 19.0755 19.8216L17.5481 21.184C17.4891 21.2364 17.4596 21.314 17.4694 21.3916C17.4836 21.5139 17.5885 21.6024 17.7054 21.6024C17.7218 21.6024 17.7382 21.6003 17.7546 21.597L19.365 21.2692C19.3705 21.2681 19.3759 21.267 19.3814 21.2659L19.6032 21.2375C19.6228 21.2342 19.6447 21.2342 19.6655 21.2375L19.8862 21.2659C19.8916 21.2659 19.8971 21.2681 19.9025 21.2692L21.513 21.597C21.6495 21.6254 21.7817 21.5303 21.7981 21.3916C21.7992 21.3817 21.8003 21.3719 21.8003 21.3621C21.8003 21.2943 21.7708 21.2299 21.7195 21.184L20.1921 19.8216C20.1342 19.7702 20.1047 19.6948 20.1134 19.6183C20.1637 19.142 20.3527 17.3393 20.4674 15.4819C20.4783 15.3147 20.652 15.2099 20.805 15.2787L25.1643 17.2398C25.3227 17.3119 25.5019 17.1961 25.5019 17.0213V16.959C25.5019 16.8902 25.4735 16.8258 25.4232 16.781L24.1231 15.6108L23.5834 15.1246L22.2144 13.8922L21.6736 13.406L20.6236 12.461C20.5756 12.4173 20.5471 12.3561 20.545 12.2905C20.4816 10.1928 20.1615 8.3136 19.6338 8.3136C19.1061 8.3136 18.787 10.1928 18.7226 12.2905C18.7204 12.3561 18.692 12.4173 18.6439 12.461L17.594 13.406L17.0531 13.8922Z" fill="#CCCCCC"/>
<path d="M24.2353 6.90351C24.4559 7.12639 24.6908 7.23892 24.94 7.24001C25.212 7.2422 25.4458 7.14824 25.6403 6.95704C25.8348 6.76694 25.9331 6.53531 25.9375 6.26217C25.9396 6.01307 25.8326 5.77707 25.6141 5.55201L25.4851 5.4209L24.1074 6.7724L24.2353 6.90351ZM25.4786 5.77707C25.6173 5.91911 25.6862 6.07971 25.6851 6.25999C25.6818 6.4632 25.6086 6.63474 25.4633 6.77677C25.318 6.91989 25.1443 6.98982 24.9421 6.98763C24.7619 6.98654 24.6024 6.91552 24.4625 6.77349L25.4786 5.77707Z" fill="#CCCCCC"/>
<path d="M25.5982 8.63143L26.2668 8.24138L27.6019 8.23483L27.4566 7.98572L26.4471 7.99009L26.9475 7.11386L26.8022 6.86584L26.1412 8.02505L25.4714 8.41619L25.5982 8.63143Z" fill="#CCCCCC"/>
<path d="M14.0794 7.64444C14.0423 7.45652 13.9461 7.30902 13.791 7.20086C13.6358 7.0927 13.484 7.05118 13.3354 7.0774C13.1868 7.10362 13.083 7.14842 13.0262 7.2096C13.0699 7.09925 13.0448 7.01075 12.9497 6.9452C12.8579 6.88074 12.7574 6.85889 12.6471 6.87855C12.5356 6.89931 12.4493 6.95503 12.3849 7.04681L12.1609 7.36693L13.7451 8.47151L14.0281 8.06508H14.0259C14.0969 7.96019 14.1144 7.82034 14.0794 7.64444ZM12.8525 7.34617L12.7596 7.47946L12.5094 7.30575L12.5892 7.18993C12.6165 7.15169 12.6504 7.12766 12.6919 7.12001C12.7334 7.11236 12.7727 7.1211 12.8088 7.14732C12.8459 7.17245 12.8667 7.20523 12.8721 7.24347C12.8776 7.27953 12.8721 7.31449 12.8525 7.34617ZM13.8216 7.92195L13.6817 8.12298L12.9705 7.62696L13.047 7.51661C13.1147 7.42047 13.2065 7.36147 13.3234 7.34071C13.4414 7.31886 13.5473 7.34289 13.6446 7.41063C13.7429 7.47837 13.8041 7.57233 13.827 7.69142C13.8489 7.79958 13.8456 7.87606 13.8194 7.91977L13.8216 7.92195Z" fill="#CCCCCC"/>
<path d="M15.4205 6.56375L14.6535 7.26626L13.349 5.84265L14.1171 5.14014L14.2853 5.32478L13.7019 5.85795L14.1007 6.29388L14.6841 5.75962L14.8524 5.94426L14.27 6.47743L14.6677 6.91337L15.2511 6.3791L15.4205 6.56375Z" fill="#CCCCCC"/>
<path d="M16.5249 5.69267C16.4812 5.85328 16.3883 5.97455 16.2441 6.05759C16.0999 6.14062 15.9469 6.16029 15.7863 6.11659C15.6585 6.08163 15.5416 5.99859 15.4378 5.86748L15.6039 5.67082C15.688 5.78663 15.771 5.85546 15.8519 5.87732C15.9469 5.90245 16.0354 5.89043 16.1206 5.84235C16.2048 5.79428 16.2594 5.72217 16.2845 5.62821C16.3107 5.53316 16.2987 5.44357 16.2496 5.35835C16.2015 5.27422 16.1294 5.21959 16.0354 5.19337C15.9447 5.16934 15.8486 5.16387 15.7459 5.17808C15.6049 5.20648 15.476 5.2043 15.3602 5.17371C15.2444 5.14202 15.1548 5.0721 15.0925 4.96393C15.0313 4.85686 15.0161 4.74324 15.0488 4.62305C15.0805 4.50178 15.1515 4.41 15.2597 4.34773C15.3679 4.28655 15.4815 4.27125 15.6017 4.30293C15.6694 4.32041 15.7437 4.36521 15.8256 4.4406L15.6738 4.6307C15.6126 4.58044 15.5667 4.55095 15.5361 4.54221C15.4826 4.52909 15.4323 4.53565 15.3842 4.56296C15.3351 4.59137 15.3034 4.6318 15.2892 4.68533C15.2739 4.73887 15.2805 4.79022 15.3089 4.83938C15.3373 4.88745 15.3777 4.91914 15.4323 4.93443C15.4924 4.94973 15.5645 4.9541 15.6508 4.94645C15.806 4.91368 15.9557 4.91586 16.0999 4.95519C16.2605 4.99671 16.3818 5.09067 16.4648 5.23489C16.5478 5.37911 16.5686 5.53097 16.5249 5.69267Z" fill="#CCCCCC"/>
<path d="M17.6783 5.41615L17.4391 5.49263L16.9299 3.89093L16.5006 4.0275L16.4252 3.78932L17.5221 3.4408L17.5975 3.67788L17.1692 3.81445L17.6783 5.41615Z" fill="#CCCCCC"/>
<path d="M20.5095 4.03886C20.409 3.92524 20.3183 3.86077 20.2353 3.84439C20.3522 3.82363 20.4144 3.75589 20.421 3.64008C20.4275 3.52864 20.3926 3.4314 20.3183 3.34727C20.2429 3.26424 20.15 3.21835 20.0386 3.21289L19.6475 3.18994L19.5371 5.11722L20.0309 5.14563V5.14344C20.1566 5.14891 20.2844 5.091 20.4166 4.96863C20.5576 4.83862 20.6329 4.6802 20.6439 4.49118C20.6548 4.30217 20.61 4.1514 20.5095 4.03886ZM19.8824 3.45325L20.0233 3.46199C20.0703 3.46417 20.1074 3.48166 20.1358 3.51225C20.1642 3.54393 20.1773 3.58108 20.1752 3.62697C20.173 3.67176 20.1555 3.70672 20.126 3.73076C20.0976 3.7548 20.0648 3.76681 20.0277 3.76791L19.8649 3.75807L19.8824 3.45325ZM20.244 4.77853C20.1631 4.85391 20.0965 4.89106 20.0452 4.89215V4.89543L19.8004 4.88123L19.8507 4.01483L19.984 4.02247C20.102 4.02903 20.2014 4.0771 20.2801 4.1656C20.3587 4.25519 20.3948 4.35789 20.3882 4.47589C20.3817 4.59607 20.3336 4.69658 20.244 4.77853Z" fill="#CCCCCC"/>
<path d="M22.8542 3.78983L22.4522 5.08889C22.3855 5.22983 22.2861 5.3369 22.1528 5.40792C21.9911 5.49204 21.825 5.50843 21.6513 5.4549C21.4787 5.40136 21.3498 5.29429 21.2656 5.13368C21.1804 4.97308 21.1651 4.80591 21.2187 4.63329L21.6011 3.40088L21.8403 3.47517L21.459 4.70758C21.4263 4.81356 21.435 4.91626 21.4874 5.01569C21.5399 5.11402 21.6196 5.18066 21.7267 5.21344C21.8338 5.24731 21.9365 5.23748 22.0359 5.18503C22.1342 5.13368 22.1998 5.05393 22.2337 4.94685L22.615 3.71554L22.8542 3.78983Z" fill="#CCCCCC"/>
<path d="M24.3955 4.92013C24.3397 4.67868 24.1791 4.47437 23.9126 4.30721L23.7574 4.21106L22.7402 5.85209L22.8965 5.94823C23.1631 6.11212 23.4187 6.16565 23.6602 6.10775C23.9257 6.04547 24.13 5.89798 24.2731 5.66635C24.4162 5.43473 24.4577 5.18672 24.3955 4.92013ZM24.059 5.53306C23.9519 5.70678 23.8 5.81603 23.6023 5.86192C23.4275 5.90453 23.2548 5.87285 23.0855 5.76796L23.835 4.55849C24.0043 4.66338 24.1092 4.80323 24.1496 4.97804C24.1955 5.17579 24.166 5.36044 24.059 5.53306Z" fill="#CCCCCC"/>
<path d="M25.6141 5.55201L25.4851 5.4209L24.1074 6.7724L24.2353 6.90351C24.4559 7.12639 24.6908 7.23892 24.94 7.24001C25.212 7.2422 25.4458 7.14824 25.6403 6.95704C25.8348 6.76694 25.9331 6.53531 25.9375 6.26217C25.9396 6.01307 25.8326 5.77707 25.6141 5.55201ZM25.4633 6.77677C25.318 6.91989 25.1443 6.98982 24.9421 6.98763C24.7619 6.98654 24.6024 6.91552 24.4625 6.77349L25.4786 5.77707C25.6173 5.91911 25.6862 6.07971 25.6851 6.25999C25.6818 6.4632 25.6086 6.63474 25.4633 6.77677Z" fill="#CCCCCC"/>
<path d="M27.6019 8.23422L26.2668 8.24077L25.5982 8.63082L25.4714 8.41558L26.1412 8.02444L26.8022 6.86523L26.9475 7.11325L26.4471 7.98948L27.4566 7.98511L27.6019 8.23422Z" fill="#CCCCCC"/>
</svg>
