<svg width="63" height="50" viewBox="0 0 63 50" fill="none" xmlns="http://www.w3.org/2000/svg">
<path d="M29.0568 11.2602C28.9846 11.3258 29.024 11.398 29.0962 11.4176C29.2143 11.457 29.3258 11.5029 29.3783 11.6276V11.6539C29.3521 11.7261 29.3127 11.7785 29.2405 11.831C29.234 11.8376 29.2274 11.8376 29.2143 11.8376C28.9518 11.8245 28.545 11.667 28.7221 11.3127C28.8206 11.1027 28.978 10.9321 29.1815 10.768C29.2536 10.7221 29.398 10.6499 29.6146 10.5712C32.5018 9.44909 35.4153 8.31388 38.3747 7.16556C38.3747 7.16556 38.3791 7.16774 38.3878 7.17212L38.2697 7.6052C38.2697 7.61176 38.2632 7.61832 38.2566 7.63145C35.2119 8.82571 32.2131 10.0003 29.2733 11.1552C29.188 11.1683 29.1158 11.2208 29.0568 11.2667V11.2602ZM28.1578 9.80999C28.1447 9.69844 28.1316 9.60001 28.1447 9.54095C28.1578 9.48189 28.1512 9.40315 28.1578 9.3441C28.1709 9.12755 28.2037 8.90445 28.2431 8.68791C28.2431 8.68791 28.2409 8.68572 28.2365 8.68135H28.23C28.2037 8.76009 28.1644 8.83883 28.1316 8.9307C28.0331 9.16036 27.9544 9.40971 27.9085 9.65907C27.8822 9.76405 27.8953 9.85592 27.8953 9.96091C27.8953 10.0462 27.9216 10.1446 27.9675 10.2168C28.0463 10.3284 28.1644 10.3612 28.3022 10.3546C28.4531 10.3546 28.5646 10.2299 28.5712 10.0921C28.5778 9.94779 28.5712 9.80343 28.5318 9.67219C28.5253 9.64594 28.5187 9.64594 28.5187 9.67219C28.4925 9.79686 28.4728 9.96747 28.394 10.0725C28.3284 10.1512 28.2234 10.0593 28.2037 9.99372C28.1775 9.94779 28.1709 9.88873 28.1644 9.82311L28.1578 9.80999ZM36.2027 9.16036C36.2027 9.16036 36.2027 9.12099 36.1896 9.1538C36.019 9.52127 35.8943 9.88873 35.8549 10.2693C35.8484 10.3546 35.8615 10.4596 35.8943 10.5646C35.9271 10.6696 35.9927 10.7352 36.0781 10.7615C36.2159 10.8205 36.334 10.8008 36.4258 10.7352C36.6096 10.6105 36.5439 10.289 36.5046 10.1118C36.5046 10.0987 36.498 10.0987 36.4915 10.1053C36.4849 10.1118 36.4783 10.1184 36.4783 10.1381C36.4718 10.2103 36.4127 10.5974 36.2618 10.5121C36.2159 10.4859 36.183 10.4465 36.1634 10.394C36.1305 10.3153 36.1174 10.2365 36.1174 10.1709C36.1109 9.99372 36.124 9.79686 36.1502 9.58688C36.1568 9.48846 36.1765 9.39659 36.1896 9.29816C36.1962 9.25223 36.2027 9.19973 36.2027 9.1538V9.16036ZM39.3196 10.4465L39.195 10.8402L39.2015 10.8468L40.4549 9.87561V9.50814L40.4483 9.50158L39.3262 10.4531L39.3196 10.4465ZM22.7573 10.7811C22.6852 10.6565 22.5867 10.5646 22.4555 10.5252C22.3046 10.4793 22.1536 10.5712 22.0946 10.709C22.0486 10.8074 22.0355 10.8993 22.0815 10.978C22.1077 11.0436 22.1536 11.083 22.2258 11.1158C22.2389 11.1224 22.2652 11.1224 22.2849 11.1158C22.3833 11.0764 22.4621 11.0896 22.5342 11.1617C22.6195 11.2602 22.6917 11.3717 22.7508 11.5095C22.8295 11.7195 22.8951 11.9098 22.9279 12.0935C22.9345 12.1263 22.9411 12.1263 22.9411 12.0935C22.9411 12.0541 22.9411 12.0082 22.9476 11.9688C22.987 11.6604 23.0723 11.352 23.197 11.0699C23.2364 10.9649 23.302 10.8205 23.407 10.7615H23.4332C23.5185 10.8074 23.5513 10.9124 23.5776 10.9977C23.5776 10.9977 23.5907 11.0042 23.6038 11.0042C23.7088 10.9649 23.8138 10.8599 23.8007 10.7418C23.7876 10.6237 23.7154 10.5055 23.6235 10.4137C23.512 10.3087 23.361 10.3087 23.2626 10.4399C23.197 10.5252 23.1445 10.6237 23.1051 10.7352C23.0264 10.9452 22.9608 11.1486 22.9214 11.3717H22.9083C22.9148 11.1617 22.8689 10.9714 22.7705 10.7811H22.7573ZM33.2564 11.3323C33.2499 11.083 33.1777 10.873 33.0399 10.6958C32.9939 10.6302 32.9218 10.5843 32.8233 10.5449C32.6265 10.4662 32.4231 10.6433 32.4165 10.8402C32.4099 10.978 32.4427 11.0764 32.5871 11.1355C32.6002 11.142 32.6199 11.142 32.633 11.1355C32.7315 11.0961 32.8102 11.1092 32.8824 11.1814C32.948 11.2405 32.9939 11.3061 33.0333 11.3783C33.1514 11.6014 33.2302 11.831 33.2827 12.0804C33.2892 12.1132 33.2958 12.1132 33.2958 12.0804C33.3286 11.7392 33.4139 11.398 33.5583 11.0502C33.5976 10.9386 33.6567 10.8205 33.7551 10.7549C33.7814 10.7483 33.7945 10.7483 33.8142 10.7615C33.8864 10.8271 33.9126 10.9058 33.9323 10.9911C33.9389 10.9977 33.9454 11.0042 33.9585 10.9977C34.1292 10.9189 34.1882 10.8008 34.1423 10.6499C34.1029 10.5449 34.0307 10.453 33.952 10.3809C33.8732 10.3153 33.742 10.3153 33.6633 10.3874C33.5583 10.4859 33.4861 10.6237 33.4402 10.7615C33.3745 10.9518 33.322 11.142 33.2827 11.3455H33.2761C33.2761 11.3455 33.2695 11.3389 33.263 11.3323H33.2564ZM39.4312 14.2786C39.4312 14.2786 39.4246 14.2852 39.4312 14.2917H41.7082C41.7082 14.2917 41.7213 14.2917 41.7213 14.3049C41.6819 14.5214 41.6426 14.7379 41.6098 14.9611C41.6032 14.9939 41.5966 15.0201 41.5769 15.0398C41.5769 15.0464 41.5704 15.0529 41.5638 15.0529C41.0389 15.2038 40.5533 15.4335 40.1136 15.7354C39.9233 15.8731 39.7396 16.0372 39.5887 16.2078C39.4443 16.3653 39.3262 16.5425 39.2409 16.7524C39.1687 16.9099 39.0965 17.1199 39.1622 17.2774C39.2278 17.4283 39.4115 17.5071 39.5624 17.5399C39.674 17.5661 39.7593 17.5792 39.8446 17.5792C40.0611 17.5858 40.2777 17.5858 40.4877 17.5661C40.5861 17.553 40.678 17.5399 40.7764 17.5267C40.783 17.5267 40.7895 17.5333 40.7895 17.5399V18.4192C40.7895 18.4192 40.783 18.4454 40.7764 18.4454C40.5074 18.5438 40.2317 18.6226 39.9561 18.6751C39.6805 18.7276 39.4049 18.7538 39.1293 18.7341C38.8997 18.721 38.6766 18.6488 38.4732 18.511C38.4666 18.5045 38.46 18.5045 38.46 18.5176C38.46 18.9507 38.3091 19.305 37.9876 19.5937C37.8432 19.7184 37.6529 19.8234 37.4823 19.9546C37.1476 20.2105 36.8195 20.473 36.5111 20.7421C36.1437 21.0701 35.8287 21.3457 35.5531 21.6017C35.494 21.6476 35.4415 21.7001 35.4022 21.7395C35.2578 21.8576 35.1331 21.9954 34.9953 22.12C34.805 22.2907 34.6344 22.4678 34.4441 22.645C34.3457 22.7237 34.2604 22.8156 34.162 22.9075C33.952 23.1043 33.6501 23.2881 33.368 23.3537C33.2105 23.393 33.0399 23.3799 32.8824 23.3799C32.8036 23.3799 32.7052 23.3537 32.5937 23.3143C32.3968 23.2421 32.2721 23.0846 32.2262 22.855C32.2 22.75 32.1934 22.6647 32.2 22.5925C32.2065 22.5072 32.2131 22.4088 32.2328 22.3235C32.3181 21.9166 32.4887 21.4967 32.6921 21.1226C32.6987 21.0964 32.7249 21.0833 32.7512 21.0767C32.8365 21.0373 32.9218 21.0111 33.0071 20.9783C33.0202 20.9717 33.0333 20.9783 33.0399 20.9914L33.0793 21.1292C33.0793 21.1292 33.0793 21.1423 33.0727 21.1555C32.8758 21.4114 32.7315 21.7395 32.7052 22.0479C32.7052 22.1135 32.7118 22.1857 32.738 22.271C32.784 22.4416 32.9283 22.5794 33.1121 22.5728C33.1777 22.5663 33.2302 22.5728 33.2958 22.5597C33.5451 22.4875 33.7748 22.3694 33.9914 22.1922C34.2407 21.9822 34.7854 21.5295 35.6318 20.8208C36.2355 20.3155 36.8327 19.8496 37.4232 19.41C37.5282 19.3313 37.7054 19.2197 37.9482 19.0622C37.9548 19.0557 37.9613 19.0491 37.9744 19.0294C37.981 19.0032 37.9876 18.9835 38.0073 18.9572C38.0204 18.9179 38.0138 18.9113 37.981 18.931C37.8104 19.0294 37.6332 19.1147 37.4364 19.1803C37.1345 19.2853 36.7211 19.3247 36.4586 19.1213C36.2027 18.9244 36.0977 18.6685 36.1371 18.3404C36.1634 18.1501 36.2224 17.9467 36.3274 17.7498C36.5243 17.3758 36.7736 17.0543 37.0558 16.7328C37.1017 16.6737 37.1542 16.6343 37.1936 16.6146C37.3117 16.549 37.4429 16.5359 37.5742 16.5884C37.8235 16.6934 37.9876 16.9624 38.0926 17.2052C38.191 17.4283 38.2697 17.658 38.3288 17.9139C38.3288 17.927 38.3354 17.9401 38.355 17.927C38.3944 17.9205 38.4338 17.9008 38.4732 17.9008C38.6306 17.8942 38.8013 17.9008 38.9653 17.9336C38.9653 17.9336 38.9675 17.9314 38.9719 17.927C38.8997 17.7039 38.8669 17.4677 38.8669 17.2249C38.8734 16.5884 39.09 16.011 39.5034 15.5122C39.5887 15.4073 39.6871 15.3023 39.7987 15.1907H39.7921C39.6871 15.1645 39.5952 15.1513 39.4903 15.1448C39.4443 15.1448 39.4049 15.1448 39.3525 15.1513C39.2934 15.1579 39.2343 15.1579 39.1687 15.1776C38.8669 15.2498 38.6175 15.4269 38.46 15.696C38.4272 15.755 38.401 15.801 38.3747 15.8469C38.3747 15.8469 38.3725 15.8469 38.3682 15.8469C38.3813 15.5451 38.3747 15.2432 38.3682 14.9545C38.3616 14.8495 38.3682 14.7708 38.3944 14.7183C38.506 14.4361 38.7947 14.3902 39.0572 14.3574C39.0703 14.3574 39.0834 14.3508 39.0834 14.3442C39.1818 13.9243 39.3721 13.5371 39.6543 13.2025C39.7002 13.1369 39.7593 13.0778 39.8052 13.0187C39.9037 12.9072 40.0021 12.8219 40.1136 12.7235C40.2646 12.5988 40.4352 12.4741 40.6058 12.3626C40.6123 12.356 40.6189 12.3363 40.6123 12.3297L40.1661 11.7654V11.7523L40.6189 10.5777C40.6189 10.5777 40.632 10.5515 40.6517 10.5646C40.842 10.663 41.0323 10.7811 41.216 10.9058C41.4523 11.0764 41.7279 11.3061 41.8066 11.5817C41.8329 11.667 41.8197 11.7654 41.7935 11.8507C41.7279 12.0607 41.6688 12.2444 41.6163 12.4085C41.5507 12.5988 41.2817 12.8022 41.111 12.9006C40.9142 13.0253 40.6976 13.1565 40.4811 13.2812C40.1924 13.4518 39.9168 13.6618 39.7134 13.9177C39.6018 14.0621 39.4903 14.1999 39.4181 14.2786H39.4312ZM37.9416 18.0583C37.876 17.8745 37.7907 17.7105 37.6923 17.5661C37.6267 17.4808 37.4692 17.343 37.3511 17.3561C37.1411 17.3824 37.0164 17.6449 36.9508 17.8155C36.8917 17.9729 36.8458 18.137 36.8392 18.301C36.8392 18.4126 36.8458 18.5241 36.918 18.6094C36.9639 18.6751 37.1083 18.7079 37.1805 18.6948C37.4692 18.6619 37.7054 18.5438 37.9613 18.3863C37.9679 18.3798 37.9744 18.3732 37.9744 18.3601C37.9876 18.2617 37.9744 18.1632 37.9351 18.0517L37.9416 18.0583ZM37.7645 11.7917C37.7579 11.8376 37.7579 11.8901 37.7645 11.936C37.7907 12.1591 37.8695 12.3166 38.1122 12.3297C38.1713 12.3297 38.2107 12.3232 38.25 12.3166C38.5191 12.2444 38.4666 11.8704 38.4207 11.6736C38.4075 11.6276 38.3944 11.6276 38.3878 11.6736C38.3747 11.7917 38.3485 11.9426 38.2697 12.041C38.2107 12.1066 38.1319 12.0541 38.0991 12.0017C38.0532 11.9163 38.0269 11.8114 38.0204 11.6932V11.4439C38.0466 11.188 38.0794 10.9518 38.1188 10.7286C38.1254 10.663 38.1188 10.663 38.0926 10.7221C37.9679 11.0042 37.8695 11.2864 37.7973 11.6014C37.7841 11.667 37.7842 11.7392 37.7645 11.8114V11.7917ZM23.6891 11.7392L23.4398 12.0476C23.4398 12.0476 23.4463 12.0607 23.4529 12.0607L25.9464 11.2405H25.953L26.1433 10.9321C26.1433 10.9321 26.1367 10.9189 26.1302 10.9189L23.6826 11.7392H23.6891ZM35.6778 12.3101C35.599 12.415 35.5203 12.5069 35.4219 12.5988C35.2316 12.7694 35.0085 12.9072 34.746 13.0384C34.6016 13.104 34.4769 13.1565 34.3523 13.1959C34.3523 13.1959 34.3457 13.1959 34.3457 13.2025C34.5163 13.1893 34.6541 13.1565 34.7854 13.1303C35.225 13.0319 35.599 12.8219 35.9074 12.4872C36.0518 12.3363 36.1896 12.1657 36.3208 11.982C36.3602 11.936 36.3865 11.8835 36.4061 11.831C36.4521 11.7064 36.3405 11.5948 36.229 11.5489C36.0846 11.4898 35.9337 11.4636 35.7893 11.4439C35.5531 11.4176 35.3169 11.4111 35.0938 11.4176C35.0281 11.4242 34.9756 11.4242 34.91 11.4308C34.8444 11.4308 34.7919 11.457 34.7394 11.4767C34.4901 11.6276 34.326 11.9295 34.2341 12.2051C34.2341 12.2051 34.2473 12.2313 34.2604 12.2313C34.641 12.1854 35.0281 12.1591 35.4087 12.1723C35.4809 12.1788 35.5859 12.1854 35.6384 12.2379C35.6515 12.251 35.6515 12.2772 35.6646 12.3035L35.6778 12.3101ZM27.8428 11.9623L28.2169 11.5161C28.2169 11.5161 28.2169 11.5029 28.2103 11.5029L25.7496 12.251L25.3821 12.6513C25.3821 12.6513 25.3821 12.6644 25.3887 12.6644L27.8428 11.9623ZM21.1956 11.5226C21.0578 11.8114 20.9594 12.1132 20.8872 12.4216C20.8609 12.5069 20.8544 12.6053 20.8478 12.6906C20.8413 12.8153 20.8806 13.0253 20.9987 13.104C21.0447 13.1369 21.0972 13.15 21.1497 13.1631C21.5631 13.2222 21.5828 12.8547 21.5106 12.5594C21.4843 12.461 21.4712 12.461 21.4646 12.5594C21.4581 12.671 21.4253 12.7956 21.3465 12.8875C21.2875 12.9466 21.2022 12.8744 21.1759 12.8153C21.1103 12.6775 21.1037 12.5069 21.1103 12.3429C21.1103 12.2641 21.1169 12.1723 21.1234 12.087C21.1497 11.9032 21.1825 11.7129 21.2087 11.5226C21.2153 11.4964 21.2087 11.4964 21.1956 11.5226ZM36.5964 14.3442C36.5308 14.4558 36.4718 14.5739 36.3996 14.7117C36.3602 14.7839 36.3143 14.8364 36.2487 14.8823C36.1634 14.9414 36.0649 14.9807 35.9796 15.007C35.7631 15.0726 35.5728 15.1317 35.389 15.2038C34.7985 15.4269 34.2604 15.7288 33.7289 16.0897C33.5386 16.2144 33.3089 16.3259 33.1055 16.3522C32.9611 16.3784 32.7774 16.3784 32.6462 16.3259C32.2262 16.1816 31.9506 15.8338 31.7669 15.4269C31.6094 15.0792 31.5175 14.6986 31.4716 14.3246C31.4716 14.3246 31.4694 14.3246 31.465 14.3246C31.36 14.6723 31.1763 14.9545 30.9138 15.171C30.717 15.3416 30.4545 15.4073 30.1723 15.3941C30.0214 15.3876 29.8639 15.3482 29.6933 15.2826C29.5949 15.2432 29.5424 15.171 29.5424 15.066C29.5424 14.9414 29.5358 14.8101 29.5555 14.6855C29.6342 14.2327 29.877 13.8258 30.192 13.4846C30.4479 13.2156 30.7235 12.9794 31.0385 12.8022C31.0451 12.7956 31.0516 12.7759 31.0451 12.7694L30.8613 12.3691C30.8613 12.3691 30.8548 12.3297 30.8613 12.3101L31.0975 11.6342C31.0975 11.6342 31.1107 11.6079 31.1238 11.6342L31.4453 12.5397C31.4453 12.5397 31.4519 12.5463 31.4585 12.5463H31.465C31.5306 12.4741 31.5897 12.4085 31.6553 12.356C31.7997 12.2379 31.9244 12.0935 32.0753 11.9754C32.0753 11.9754 32.0797 11.9776 32.0884 11.982C32.0556 12.1263 32.0293 12.2641 32.0097 12.4019C31.9965 12.4872 31.9375 12.52 31.885 12.5791C31.7472 12.6972 31.6159 12.8153 31.4847 12.94C31.4781 12.9466 31.4781 12.9662 31.4781 12.9728C31.6488 13.4846 31.78 13.9768 31.8719 14.4623C31.9047 14.6461 31.9375 14.7708 31.9703 14.8561C32.1278 15.2366 32.4165 15.5188 32.8299 15.6041C33.3089 15.7091 33.7945 15.4663 34.1685 15.1907C34.1817 15.1842 34.1817 15.1645 34.1751 15.1513C33.9782 14.9151 33.7223 14.7183 33.427 14.6461C33.3877 14.6395 33.3549 14.633 33.3155 14.633C33.2564 14.633 33.2105 14.6001 33.1646 14.6198C33.0989 14.633 33.0268 14.633 32.9546 14.6526C32.784 14.6986 32.6658 14.7511 32.5346 14.8364C32.5346 14.8364 32.5324 14.8342 32.528 14.8298C32.6658 14.5739 32.7905 14.3049 32.9283 14.0227C32.9415 14.0096 32.9546 13.9899 32.9743 13.9833C33.4861 13.8062 33.9914 13.6946 34.5032 13.6421C34.6147 13.6356 34.7329 13.629 34.8641 13.629C35.1659 13.629 35.4481 13.6552 35.7434 13.734C36.0912 13.839 36.4193 14.0358 36.6096 14.3508C36.6161 14.3574 36.6161 14.3639 36.5964 14.3574V14.3442ZM31.2878 13.6946C31.2485 13.524 31.1894 13.3731 31.1172 13.2353C31.1172 13.2353 31.1172 13.2287 31.1107 13.2287H31.1041L31.091 13.2353C30.986 13.3403 30.8941 13.4321 30.7957 13.5306C30.7826 13.5437 30.6841 13.6421 30.4939 13.8193C30.2445 14.049 30.0083 14.2655 29.9033 14.5936C29.9033 14.6001 29.9033 14.6198 29.9164 14.6264C30.0017 14.6723 30.1067 14.692 30.2117 14.6855C30.4348 14.6592 30.671 14.6067 30.9269 14.5017C31.1107 14.4295 31.2682 14.2524 31.2944 14.0555C31.3075 13.944 31.3075 13.8193 31.2878 13.7077V13.6946ZM35.494 14.4558C35.3825 14.3902 35.2578 14.3508 35.12 14.3311C34.8707 14.2917 34.6147 14.2721 34.3457 14.2917C34.3063 14.2917 34.2735 14.3049 34.2341 14.3049C34.1948 14.3049 34.1948 14.3114 34.2276 14.3311C34.4507 14.4427 34.6344 14.587 34.7788 14.7511C34.8247 14.797 34.851 14.8495 34.8641 14.902H34.8772C35.0478 14.7511 35.2184 14.5936 35.435 14.5017C35.4481 14.5017 35.4678 14.4952 35.4809 14.4952C35.5203 14.4886 35.5203 14.482 35.4875 14.4558H35.494ZM29.5424 12.3822H29.5358L28.9912 12.0017H28.9846L28.6106 12.5528V12.5594L29.2865 13.0319C29.2865 13.0319 29.293 13.0319 29.2865 13.0253L29.5358 12.5791H29.5424L30.1461 13.0319C30.1461 13.0319 30.1526 13.0384 30.1526 13.0319L30.4545 12.4019V12.3954L29.7917 11.8704M32.2984 13.1106C32.3049 12.8153 32.3378 12.5266 32.4034 12.2444C32.4077 12.1963 32.399 12.1941 32.3771 12.2379C32.2721 12.461 32.1868 12.6972 32.1146 12.9531C32.0753 13.104 32.049 13.2615 32.049 13.4387C32.049 13.6552 32.1278 13.839 32.3509 13.8718C32.5215 13.898 32.679 13.8258 32.7183 13.6552C32.7446 13.5109 32.7315 13.3534 32.679 13.1697C32.679 13.1565 32.6724 13.1565 32.6724 13.1697V13.2156C32.6462 13.3403 32.6265 13.4781 32.5346 13.5831C32.5215 13.6093 32.4887 13.6159 32.4624 13.5962C32.3771 13.5568 32.3181 13.4518 32.3115 13.36C32.3049 13.2747 32.2853 13.1893 32.2984 13.1106ZM37.1673 12.8744C37.2067 12.8809 37.2329 12.9203 37.2133 12.9597C37.1805 13.0975 37.0886 13.2418 36.9967 13.3534C36.9311 13.4321 36.8589 13.524 36.7802 13.6093C36.7342 13.6684 36.7342 13.6749 36.7933 13.6224C37.0295 13.4518 37.6988 12.9203 37.4626 12.5725C37.4167 12.5069 37.3248 12.4347 37.2461 12.415C37.128 12.3757 37.023 12.4019 36.9377 12.4872C36.7933 12.6382 36.8392 12.835 37.0623 12.8613C37.0951 12.8678 37.128 12.8678 37.1608 12.8744H37.1673ZM43.0599 13.7077C43.0468 13.6618 43.0468 13.6093 43.0337 13.5634C43.0009 13.419 42.9484 13.3009 42.8762 13.1893C42.8171 13.104 42.7318 13.0384 42.6269 12.9991C42.4825 12.94 42.3447 13.0122 42.2791 13.1369C42.1806 13.2943 42.2003 13.4321 42.325 13.5503C42.3644 13.5896 42.4037 13.5962 42.4497 13.5831C42.535 13.5568 42.6072 13.5699 42.6662 13.6159C42.7253 13.6618 42.7778 13.7405 42.8172 13.8127C42.9418 14.049 43.0337 14.318 43.0796 14.587C43.0796 14.587 43.084 14.5892 43.0927 14.5936H43.0993C43.0928 14.5214 43.0993 14.4492 43.1059 14.3836C43.1452 14.1211 43.2174 13.8587 43.3224 13.5962C43.3552 13.524 43.5324 13.0712 43.6571 13.2681C43.6899 13.3271 43.7161 13.3862 43.7293 13.4518C43.7293 13.4518 43.7555 13.4781 43.7621 13.4649C43.8474 13.419 43.913 13.3796 43.9458 13.2747C43.9589 13.2353 43.9589 13.1959 43.9458 13.1565C43.9064 13.045 43.8474 12.9597 43.7752 12.8875C43.7161 12.8284 43.6243 12.776 43.5455 12.8088C43.4274 12.8678 43.3487 12.9925 43.2896 13.1106C43.1912 13.3271 43.119 13.5568 43.0731 13.793C43.0665 13.8324 43.0599 13.8324 43.0599 13.793C43.0599 13.7668 43.0665 13.7471 43.0534 13.7077H43.0599ZM27.4163 13.9899C27.4819 13.9899 27.5541 13.9899 27.6328 14.003C27.6722 14.003 27.7116 14.0096 27.751 14.003C27.7641 13.9965 27.7772 13.9899 27.7575 13.9768C27.3966 13.6356 27.0948 13.2418 26.852 12.8153H26.8454C26.8454 12.8153 26.8389 12.8153 26.8389 12.8219L26.5829 13.7209C26.5829 13.7209 26.5829 13.734 26.5895 13.7471C26.957 14.1868 27.2916 14.6461 27.5541 15.1579C27.6657 15.3744 27.7444 15.5779 27.7772 15.7747C27.7838 15.801 27.7838 15.8338 27.7838 15.8535C27.7838 15.86 27.7838 15.8666 27.7772 15.8797C27.7116 15.9388 27.6722 15.9978 27.6197 16.0569C27.4032 16.28 27.1735 16.5097 26.9504 16.7131C25.953 17.5924 24.8572 18.3142 23.6366 18.8916C23.6104 18.8982 23.6104 18.9047 23.6366 18.9047H23.6957C23.7416 18.8982 23.8007 18.8982 23.8532 18.8916C24.1091 18.8785 24.3781 18.8522 24.6669 18.8194C24.9031 18.7932 25.159 18.7735 25.4215 18.7472C25.428 18.7472 25.4477 18.7407 25.4609 18.7341C26.058 18.3995 26.5895 18.0058 27.0554 17.5727C27.2326 17.4021 27.4032 17.2052 27.5738 16.9821C27.8231 16.654 28.0069 16.28 28.0528 15.8732C28.0791 15.6632 28.0528 15.4598 27.9806 15.2432C27.8953 14.9807 27.8035 14.7314 27.6985 14.5017C27.6132 14.3049 27.5147 14.1343 27.4097 13.9965C27.4032 13.9899 27.4097 13.9899 27.4163 13.9965V13.9899ZM23.571 16.6803C23.571 16.6803 23.5645 16.6934 23.571 16.6737C23.4135 16.6343 23.2692 16.5753 23.1379 16.4768C22.7901 16.1881 22.6064 15.7813 22.4752 15.3548C22.3636 14.9807 22.2914 14.5805 22.2586 14.1605C22.2521 14.0555 22.2521 13.9505 22.2258 13.8521C22.2258 13.8521 22.2127 13.839 22.1996 13.8455C22.0093 13.944 21.8518 14.0752 21.714 14.2524C21.5631 14.4492 21.445 14.6658 21.3465 14.8954C21.1694 15.3154 21.0447 15.7616 20.9462 16.2275C20.9003 16.444 20.8609 16.6474 20.8347 16.8706C20.8281 16.9755 20.7953 17.0674 20.7494 17.1396C20.71 17.2052 20.651 17.2774 20.5985 17.3496C20.5197 17.4349 20.3425 17.5661 20.2179 17.5333C20.1063 17.5005 20.0079 17.4283 19.9291 17.3168C19.7454 17.0608 19.6404 16.7524 19.5617 16.4375H19.5486C19.542 16.5556 19.5617 16.6671 19.5748 16.7852C19.5879 16.9034 19.601 17.0346 19.6207 17.179C19.6864 17.5792 19.8438 18.2879 20.2638 18.4454C20.5919 18.5701 20.8806 18.2289 21.0053 17.9861C21.1103 17.7761 21.1825 17.5399 21.2022 17.3102C21.2087 17.2315 21.2153 17.1527 21.2284 17.0608C21.2612 16.6868 21.3465 16.3128 21.4843 15.9519C21.6221 15.591 21.7862 15.2826 22.0027 15.0004C22.0421 14.9545 22.0815 14.9151 22.1208 14.8757C22.1274 14.8692 22.134 14.8692 22.134 14.8823C22.134 14.9414 22.1471 14.9873 22.1471 15.0529C22.1471 15.112 22.1471 15.171 22.1536 15.2432C22.1864 15.5844 22.2324 15.8863 22.3046 16.1619C22.4621 16.7787 22.7836 17.3102 23.4201 17.4742C23.5907 17.5202 23.7482 17.5399 23.9122 17.5399C24.1025 17.5399 24.306 17.5136 24.5159 17.4742C24.7522 17.4283 25.0343 17.3561 25.3296 17.2511C25.3362 17.2446 25.3427 17.238 25.3427 17.2249V16.3587C25.3427 16.3587 25.3362 16.3456 25.3296 16.3456C25.1852 16.3522 25.0474 16.3784 24.9096 16.385C24.7653 16.3915 24.6275 16.4178 24.4897 16.3981C24.4306 16.3915 24.3781 16.3915 24.3125 16.385C24.0894 16.3719 23.6891 16.2603 23.6957 15.9716C23.7023 15.9125 23.6957 15.8666 23.7088 15.8141C23.886 15.1776 24.3781 14.7248 24.9293 14.3967C25.2968 14.1736 25.6971 13.9965 26.1302 13.8718C26.1367 13.8652 26.1564 13.8587 26.1564 13.839L26.2811 13.1106C26.2811 13.1106 26.2811 13.104 26.2745 13.104H23.7876C23.6826 13.104 23.5907 13.1172 23.4857 13.1303C23.3085 13.1434 23.1773 13.209 23.0657 13.3206C22.9608 13.4256 22.9214 13.6027 22.9542 13.734C22.9608 13.7602 22.9608 13.793 22.9608 13.8127V14.5805C22.9608 14.5805 22.9673 14.6067 22.9739 14.5805C23.1314 14.2392 23.3873 14.0293 23.7482 13.944C23.8991 13.9046 24.0566 13.9177 24.2206 13.9177C24.2469 13.9177 24.26 13.9243 24.2863 13.9308C24.2928 13.9374 24.2994 13.9374 24.3125 13.9374C24.3388 13.9374 24.3519 13.9374 24.3716 13.944H24.3781C24.3781 13.944 24.3847 13.9702 24.3781 13.9768C24.1682 14.1671 23.9975 14.377 23.8532 14.6133C23.571 15.0595 23.4463 15.5647 23.4595 16.0963C23.4595 16.1816 23.4726 16.2734 23.4857 16.3522C23.4923 16.4637 23.5185 16.5753 23.5579 16.6868L23.571 16.6803ZM38.1713 13.7077C38.0007 13.9308 37.7776 14.0555 37.5348 14.1605C37.4364 14.1999 37.4364 14.2064 37.5414 14.1933C37.8366 14.1343 38.0991 14.0358 38.296 13.8127C38.3747 13.7274 38.4469 13.629 38.5256 13.524C38.6503 13.3534 38.4469 13.2747 38.3157 13.2615C38.2369 13.255 38.1451 13.2353 38.0663 13.2353H37.817C37.7513 13.2353 37.7054 13.2418 37.666 13.2681C37.5282 13.3403 37.4429 13.5043 37.3839 13.6487C37.3773 13.6552 37.3839 13.6618 37.3904 13.6618C37.4364 13.6618 37.4889 13.6618 37.5282 13.6552C37.6332 13.6421 37.7448 13.6487 37.8563 13.6421C37.9351 13.6356 38.0073 13.6421 38.086 13.6487C38.1122 13.6487 38.1319 13.6552 38.1516 13.6749C38.1582 13.6815 38.1647 13.7012 38.1582 13.7077H38.1713ZM28.6959 14.8561C28.6368 14.902 28.5581 14.8233 28.5384 14.7839C28.499 14.7183 28.4793 14.6592 28.4728 14.587C28.4597 14.3639 28.4662 14.1474 28.4859 13.9505C28.499 13.7996 28.5253 13.6487 28.5581 13.5043C28.5646 13.4584 28.5646 13.4453 28.545 13.4978C28.394 13.8258 27.8888 15.007 28.499 15.1317C28.5646 15.1448 28.6171 15.1448 28.6762 15.1317C28.8731 15.0923 28.9321 14.8757 28.9059 14.6986C28.8993 14.633 28.8796 14.5608 28.8665 14.5017C28.8534 14.4295 28.8337 14.4361 28.8271 14.5017C28.8206 14.528 28.8206 14.5411 28.8206 14.5608C28.814 14.6461 28.7746 14.797 28.7024 14.8626L28.6959 14.8561ZM19.9554 14.8757V14.8364C19.9226 14.6133 19.8438 14.3902 19.6732 14.2458C19.4632 14.0686 19.1614 14.1605 19.122 14.4361C19.0958 14.587 19.1548 14.6986 19.2992 14.7642C19.3058 14.7708 19.3254 14.7708 19.332 14.7642C19.3779 14.7379 19.4304 14.7183 19.4829 14.7379C19.5879 14.7839 19.6667 14.8757 19.7323 14.9939C19.8438 15.2235 19.9291 15.4532 19.9816 15.7025C19.9882 15.7354 19.9948 15.7354 19.9948 15.7025C20.0341 15.3613 20.1129 15.0332 20.2507 14.7117C20.2835 14.633 20.3229 14.5608 20.3622 14.4886C20.4082 14.4164 20.5132 14.3508 20.5788 14.4623C20.6116 14.5214 20.6247 14.5739 20.6444 14.6395C20.6444 14.6526 20.651 14.6526 20.6575 14.6461C20.7428 14.587 20.8347 14.5477 20.8478 14.4361C20.8609 14.3508 20.8478 14.2655 20.7888 14.1802C20.7231 14.0752 20.6116 13.9571 20.4869 13.9636C20.2179 13.9899 20.0341 14.7051 19.9948 14.9217C19.9882 14.9611 19.9816 14.9611 19.962 14.9217C19.962 14.9217 19.962 14.9086 19.9554 14.8626V14.8757ZM25.2509 15.0529C25.1459 15.171 25.0409 15.2826 24.9884 15.4335C24.9228 15.6107 24.9818 15.755 25.1459 15.8666C25.3952 16.0372 25.7365 15.9847 25.9989 15.8732C26.2352 15.7682 26.4517 15.6369 26.6551 15.4729C26.7011 15.4269 26.7011 15.4138 26.642 15.4401C26.4255 15.5188 26.1958 15.5844 25.9464 15.6304C25.7955 15.6632 25.6183 15.6697 25.4346 15.6566C25.3493 15.65 25.2771 15.6107 25.2377 15.5319C25.2115 15.4926 25.2115 15.4466 25.2443 15.4138C25.4149 15.2563 25.5855 15.0398 25.6577 14.8167C25.6708 14.7576 25.6577 14.7117 25.6118 14.6789C25.533 14.6198 25.4412 14.5739 25.3493 14.6001C25.1196 14.6658 24.9293 14.8823 24.7981 15.0726L24.8047 15.0792C24.89 14.9807 24.995 14.9217 25.1131 14.8954C25.1918 14.8823 25.2574 14.9545 25.2574 15.0201C25.2574 15.0267 25.2509 15.0332 25.2509 15.0529ZM37.0033 14.8036C37.0033 14.7642 36.9967 14.7642 36.977 14.797C36.8064 15.1645 36.6817 15.5451 36.6489 15.9453C36.6489 15.9913 36.6489 16.0503 36.6621 16.1225C36.6949 16.2931 36.7867 16.4047 36.9639 16.4178C37.4036 16.4637 37.3773 16.0372 37.292 15.7485C37.2854 15.7222 37.2789 15.7354 37.2789 15.7485C37.2461 15.8732 37.2395 16.0766 37.1214 16.1553C37.1148 16.1619 37.1083 16.1619 37.0951 16.1619C36.8983 16.1356 36.9049 15.6894 36.9114 15.5385C36.9245 15.322 36.9508 15.1054 36.9902 14.902C36.9902 14.8692 37.0033 14.8364 36.9967 14.8036H37.0033ZM17.1469 15.9125C17.1206 15.9716 17.1075 16.0241 17.1075 16.0897C17.101 16.2603 17.1797 16.385 17.3437 16.4637C17.4225 16.4965 17.5012 16.5228 17.5997 16.5359C17.6718 16.549 17.7506 16.549 17.8293 16.5359C18.2427 16.4703 18.643 16.2341 18.958 15.9388C18.9908 15.9125 18.9908 15.906 18.9514 15.9256C18.6496 16.0503 18.3149 16.1553 17.9803 16.2144C17.9212 16.2209 17.8621 16.2275 17.7965 16.2275C17.6915 16.2275 17.5734 16.2341 17.475 16.1684C17.4094 16.1291 17.3766 16.07 17.3897 15.9913C17.3962 15.9781 17.3962 15.965 17.4028 15.9585C17.5931 15.7419 17.7637 15.5516 17.8425 15.2629C17.849 15.217 17.8359 15.1973 17.8031 15.1645C17.6784 15.0464 17.534 15.0201 17.3831 15.0989C17.1994 15.1973 17.0944 15.3285 16.9763 15.4794C16.95 15.5057 16.9369 15.5254 16.9303 15.5516C16.9238 15.5647 16.9303 15.5647 16.9369 15.5582C17.0353 15.486 17.3437 15.2301 17.4094 15.4926C17.4094 15.5057 17.4028 15.5254 17.3962 15.5385C17.2978 15.6566 17.2125 15.7616 17.1469 15.8994V15.9125ZM43.0337 16.8246C43.0206 16.7524 43.0074 16.6803 43.0009 16.6146C42.9878 16.5359 42.9943 16.4243 43.0074 16.2931C43.014 16.2537 43.014 16.2078 43.0206 16.1684C43.0337 15.9913 43.0599 15.801 43.0993 15.5844L43.0927 15.5779H43.0862C43.0403 15.696 42.9878 15.8075 42.9484 15.9191C42.8434 16.1684 42.7778 16.4047 42.7515 16.6278C42.7253 16.7459 42.7384 16.8574 42.7515 16.969C42.7778 17.1068 42.85 17.1986 42.9746 17.238C43.0337 17.2643 43.0862 17.2511 43.1518 17.2511C43.2568 17.2577 43.3487 17.1855 43.388 17.1002C43.4012 17.0608 43.4208 17.0018 43.4208 16.9493C43.4274 16.8115 43.4143 16.6868 43.3815 16.5687C43.3815 16.5556 43.3749 16.5556 43.3749 16.5687C43.3618 16.654 43.3355 16.7459 43.3093 16.8312C43.2962 16.9034 43.2502 17.0084 43.1715 17.0018C43.0862 16.9952 43.0337 16.8968 43.0271 16.8181L43.0337 16.8246ZM31.5897 17.5071L32.0425 18.0386H32.049C32.049 18.0386 32.0556 18.0386 32.0556 18.032L32.1278 17.8351V17.8089L31.2419 15.7419C31.2419 15.7419 31.2288 15.7157 31.2157 15.7419L30.7038 16.8246V16.8509C30.8613 17.6711 31.0385 18.4782 31.2353 19.2591C31.3403 19.6593 31.4585 20.0662 31.5963 20.4599C31.6553 20.6371 31.5175 20.7617 31.3666 20.8011C31.255 20.8274 31.1435 20.8274 31.0319 20.7945C30.6251 20.683 30.402 20.3024 30.356 19.8956C30.3429 19.6856 30.3429 19.4756 30.3692 19.2591C30.3692 19.2328 30.3626 19.2263 30.3429 19.2328C28.4203 19.7118 26.432 20.2434 24.5619 20.8405C23.7744 21.0964 22.9608 21.3851 22.2258 21.6935C22.088 21.7526 21.9699 21.792 21.8649 21.8116C21.4121 21.9101 20.5328 21.9822 20.3885 21.3589C20.3754 21.2867 20.3557 21.2079 20.3622 21.1358C20.3754 20.9652 20.4213 20.8339 20.4738 20.7027C20.5788 20.473 20.71 20.2565 20.8937 20.0662C21.2153 19.725 21.5696 19.4756 21.9962 19.2788C22.0552 19.2525 22.0421 19.2394 21.9896 19.2459C21.9437 19.2525 21.8912 19.2722 21.8452 19.2722H21.5237C21.4778 19.2722 21.4187 19.2853 21.3728 19.2853H20.9987C20.9987 19.2853 20.9331 19.2919 20.9134 19.3181C20.815 19.4231 20.7035 19.5084 20.6116 19.6134C20.5525 19.6725 20.5066 19.725 20.4541 19.784C20.336 19.8956 20.231 20.0334 20.1194 20.158C19.8963 20.4271 19.6864 20.7224 19.5223 21.0373C19.3976 21.2604 19.3058 21.5098 19.2598 21.7723C19.2467 21.8444 19.2533 21.9101 19.2533 21.9822C19.2467 22.0413 19.2533 22.0872 19.2598 22.1332C19.332 22.5334 19.6207 22.7894 19.9751 22.9468C20.1719 23.0321 20.4082 23.1043 20.651 23.1568C20.8675 23.1962 21.0972 23.1962 21.3531 23.1568C21.609 23.1174 21.8387 23.0518 22.0552 22.96C22.4358 22.7894 22.7836 22.6581 23.0723 22.5466C24.1485 22.1529 25.2574 21.7788 26.3795 21.4376C26.9242 21.267 27.4622 21.1161 28.0069 20.9783C28.4072 20.8733 28.7943 20.7945 29.1815 20.7289C29.3324 20.7027 29.4899 20.7158 29.6408 20.7158C29.6736 20.7158 29.6802 20.7289 29.6736 20.7552C29.6474 20.8339 29.6408 20.9127 29.6474 20.9848C29.6736 21.2867 29.7852 21.5426 29.9886 21.7395C30.2773 22.0282 30.6317 22.1594 31.0582 22.1397C31.3666 22.1266 31.6947 21.9691 31.8719 21.7066C32.0556 21.4376 32.1671 21.1161 32.2 20.7486C32.2 20.7355 32.2065 20.7092 32.2065 20.6896C32.2131 20.6436 32.2196 20.6043 32.2196 20.5518C32.2262 20.3812 32.2262 20.2171 32.2196 20.0662C32.2065 19.7381 32.1475 19.3641 32.0687 19.0294C31.9309 18.4848 31.7734 17.9926 31.5766 17.5071C31.5766 17.5071 31.5744 17.5071 31.57 17.5071H31.5897ZM41.1701 17.1462C41.1701 17.1462 41.1964 17.1527 41.2029 17.1462L41.7279 16.5162C41.7279 16.5162 41.7344 16.5031 41.7279 16.49C41.5441 16.2209 41.2948 16.0503 40.9732 15.9978C40.947 15.9913 40.9339 16.0044 40.9142 16.0241L40.4614 16.7196C40.4614 16.7196 40.4614 16.7328 40.468 16.7328C40.7567 16.7065 41.0651 16.8574 41.1701 17.133C41.1701 17.133 41.1701 17.1374 41.1701 17.1462ZM33.6042 17.763C33.5386 17.7236 33.4927 17.6645 33.4795 17.5924C33.4664 17.5136 33.4467 17.4218 33.4402 17.3299C33.4336 17.2249 33.4467 17.133 33.4533 17.028C33.4598 16.9559 33.4664 16.8837 33.4795 16.8049C33.4927 16.6606 33.5189 16.5162 33.5451 16.385C33.5495 16.3456 33.5451 16.3434 33.532 16.3784C33.4927 16.4768 33.4533 16.5687 33.4139 16.6671C33.3352 16.8771 33.263 17.0871 33.2236 17.3102C33.1974 17.4283 33.1908 17.5924 33.217 17.7105C33.2499 17.9008 33.3614 17.9992 33.5386 18.0189C33.7354 18.0451 33.8798 17.9139 33.8864 17.717C33.8929 17.5792 33.8798 17.4546 33.847 17.3233C33.8404 17.2971 33.8339 17.2971 33.8339 17.3233C33.8207 17.4349 33.7748 17.7302 33.6501 17.763C33.6436 17.763 33.637 17.763 33.6173 17.763H33.6042ZM28.9256 17.9533V17.8942C28.8534 17.5333 28.6893 17.0477 28.2825 16.9559C27.9544 16.8837 27.7313 17.1921 27.7772 17.4874C27.8035 17.6252 27.8888 17.717 28.0397 17.7695C28.0463 17.7761 28.0528 17.7761 28.0659 17.7695C28.4006 17.5202 28.7024 18.1632 28.8009 18.3863C28.8796 18.5832 28.9518 18.7866 29.0109 18.9769C29.0174 19.0163 29.024 19.0163 29.024 18.9769C29.024 18.9375 29.0174 18.8982 29.024 18.8588C29.0371 18.7604 29.0305 18.6751 29.0502 18.5766C29.1093 18.1961 29.2011 17.8286 29.339 17.4742C29.3783 17.3627 29.4439 17.2446 29.5358 17.1855C29.6539 17.1133 29.7589 17.3955 29.7852 17.4742C29.7852 17.4742 29.7983 17.4874 29.8114 17.4808C29.9623 17.4021 30.1001 17.2511 30.0476 17.0674C30.0017 16.9099 29.9098 16.7984 29.7852 16.6868C29.6802 16.6015 29.5555 16.549 29.4374 16.6409C29.3783 16.6803 29.339 16.7196 29.3127 16.7656C29.2143 16.9099 29.1421 17.074 29.0896 17.2708C29.0174 17.5071 28.9715 17.7302 28.9452 17.9401C28.9387 17.9729 28.9321 17.9795 28.9387 17.9533H28.9256ZM35.3234 17.9467H35.3169C35.3234 17.868 35.3169 17.7892 35.2906 17.6908C35.2316 17.4677 35.1659 17.284 34.9822 17.1658C34.8707 17.0937 34.7263 17.0805 34.6147 17.1658C34.4966 17.2643 34.4441 17.3955 34.4901 17.5464C34.5032 17.6252 34.5622 17.6842 34.6476 17.717H34.6804C34.6804 17.717 34.7197 17.7039 34.746 17.6908C34.8313 17.658 34.9363 17.7236 34.9822 17.7892C35.0675 17.8942 35.1397 18.0189 35.1988 18.1698C35.2644 18.3404 35.3103 18.511 35.3497 18.6816C35.3497 18.6816 35.3519 18.6838 35.3562 18.6882L35.3628 18.6816C35.3628 18.5766 35.3694 18.4716 35.3956 18.3732C35.4415 18.1239 35.5137 17.8876 35.6187 17.6383C35.6581 17.5333 35.7237 17.3889 35.8156 17.343C35.8943 17.2971 35.9665 17.4874 35.9862 17.553C35.9862 17.5858 35.9993 17.5858 36.0256 17.5792C36.1634 17.5136 36.2487 17.3889 36.183 17.2315C36.1371 17.1199 35.9534 16.8574 35.8025 16.9296C35.6515 17.0018 35.5662 17.1593 35.5072 17.3102C35.4219 17.5202 35.3628 17.7302 35.3234 17.9533V17.9467ZM21.8124 17.9729C21.8059 17.8942 21.819 17.822 21.819 17.7433C21.819 17.6842 21.819 17.6317 21.8255 17.5727C21.8518 17.3955 21.8715 17.2118 21.9108 17.028C21.9108 17.028 21.9065 17.0259 21.8977 17.0215C21.8715 17.0674 21.8518 17.1068 21.8321 17.1593C21.7337 17.3824 21.6615 17.5989 21.609 17.8023C21.5631 17.9795 21.5434 18.1436 21.5499 18.3142C21.5565 18.4716 21.6221 18.5832 21.7468 18.6488C21.8124 18.6816 21.8912 18.6751 21.9633 18.6751C22.088 18.6751 22.1799 18.5963 22.2127 18.4782C22.2258 18.406 22.2586 18.3338 22.2389 18.2617C22.2258 18.2157 22.2324 18.1567 22.2127 18.1107C22.1996 18.0714 22.1864 18.0254 22.1799 17.9729C22.1799 17.9664 22.1733 17.9664 22.1733 17.9664L22.1668 17.9729C22.1602 18.0779 22.134 18.1829 22.1011 18.2814C22.0027 18.5701 21.8387 18.3535 21.8124 18.1961C21.8059 18.1304 21.7993 18.0583 21.8059 17.9729H21.8124ZM42.0428 18.1304C41.9707 18.0911 41.8919 18.0517 41.8066 18.0648C41.6819 18.0976 41.5835 18.1895 41.5704 18.3273C41.5573 18.4848 41.6951 18.5438 41.8394 18.5373C41.905 18.5307 41.951 18.5832 41.9247 18.6488C41.8985 18.7341 41.8525 18.826 41.8001 18.9047C41.7147 19.0294 41.6229 19.141 41.5441 19.2328C41.5179 19.2591 41.4982 19.2919 41.4785 19.3116C41.4654 19.3247 41.472 19.3378 41.4851 19.3181C41.7476 19.1344 42.594 18.4651 42.0428 18.1304ZM18.9711 18.7276C18.9317 18.7604 18.9055 18.8063 18.8661 18.8457C18.5971 19.1344 18.3608 19.4428 18.164 19.784C18.0393 20.0006 17.8687 20.4074 18.0196 20.6371C18.0656 20.7158 18.1312 20.7749 18.2034 20.8142C18.2887 20.8602 18.3871 20.8799 18.4986 20.8733C18.7808 20.847 18.8924 20.4402 18.8989 20.2302C18.8989 20.1843 18.912 20.1449 18.912 20.0924C18.912 20.0596 18.9055 20.0596 18.8989 20.0859C18.8333 20.2302 18.7546 20.3483 18.6758 20.4533C18.643 20.4861 18.6036 20.5255 18.5511 20.5518C18.4462 20.5977 18.3805 20.4402 18.3674 20.3746C18.3543 20.3155 18.3543 20.2499 18.3674 20.1777C18.3937 20.0202 18.4396 19.8496 18.5052 19.6987C18.643 19.3641 18.7939 19.0425 18.9777 18.7407C19.0039 18.7013 18.9908 18.6948 18.9777 18.7341L18.9711 18.7276ZM42.7187 20.3352C42.6859 20.0006 42.5481 19.6397 42.2791 19.4362C42.1741 19.3575 42.0494 19.3181 41.9116 19.3313C41.7541 19.3444 41.6229 19.4887 41.5835 19.6397C41.5179 19.8562 41.5901 20.0859 41.8329 20.1449H41.8591C41.8591 20.1449 41.8985 20.1318 41.9182 20.1187C42.0625 20.0465 42.22 20.158 42.3119 20.2696C42.4103 20.3812 42.4825 20.5058 42.5415 20.6436C42.6531 20.893 42.7515 21.1489 42.8303 21.4179C42.804 21.3129 42.8303 21.2342 42.8303 21.1358C42.8368 21.0242 42.8565 20.8995 42.8762 20.7617C42.9418 20.4533 43.014 20.1712 43.1059 19.9218C43.1452 19.8168 43.1912 19.725 43.2568 19.6265C43.3027 19.5544 43.4012 19.5412 43.4668 19.6134C43.5324 19.6856 43.5652 19.7709 43.5849 19.8693C43.5849 19.8759 43.5915 19.8825 43.598 19.8759C43.6571 19.8431 43.7096 19.8037 43.7555 19.7578C43.8605 19.6528 43.8802 19.5347 43.8277 19.3969C43.7752 19.2591 43.6899 19.1475 43.5718 19.0622C43.4668 18.9769 43.3552 18.9638 43.2437 19.0228C43.1584 19.0819 43.0731 19.2 43.0271 19.2919C42.9484 19.4691 42.8828 19.6528 42.8368 19.8431C42.7975 20.0137 42.7647 20.1777 42.7384 20.3483C42.7384 20.3483 42.7362 20.3505 42.7318 20.3549C42.7253 20.3549 42.7187 20.3483 42.7187 20.3287V20.3352ZM39.6543 20.4861C39.569 20.2762 39.5821 20.0531 39.6084 19.83C39.6346 19.6331 39.6674 19.4297 39.6937 19.2328C39.7002 19.1935 39.6937 19.1935 39.6805 19.2263C39.5231 19.5478 39.4115 19.8825 39.3525 20.2302C39.3393 20.3352 39.3393 20.4205 39.3459 20.4861C39.3721 20.6633 39.4312 20.8077 39.6281 20.847C39.7002 20.8602 39.8183 20.8602 39.884 20.8339C40.0939 20.7224 40.0611 20.4271 40.0086 20.2302C39.9955 20.158 39.9758 20.158 39.9693 20.2302C39.9562 20.3418 39.9233 20.5255 39.8249 20.5911C39.7593 20.6305 39.6805 20.5452 39.6543 20.4927V20.4861ZM34.4901 20.4861C34.4638 20.368 34.4573 20.2499 34.4638 20.1187C34.4704 19.8365 34.5097 19.574 34.5622 19.3313C34.5754 19.2656 34.5688 19.2656 34.5491 19.3247C34.4376 19.5544 34.3523 19.7971 34.2801 20.0596C34.221 20.2368 34.2079 20.4074 34.2145 20.5911C34.221 20.7158 34.2801 20.8602 34.3916 20.9192C34.4376 20.9455 34.4966 20.9586 34.5622 20.9652C34.641 20.9717 34.7132 20.9586 34.7854 20.9061C34.8707 20.8405 34.8903 20.7486 34.9035 20.6436V20.5649C34.8969 20.4599 34.8772 20.3549 34.8575 20.263C34.851 20.2302 34.8444 20.2302 34.8444 20.263C34.8378 20.3746 34.8116 20.4861 34.7657 20.5977C34.7329 20.6764 34.6607 20.7355 34.5885 20.6699C34.5294 20.6239 34.5098 20.5583 34.5032 20.4861H34.4901ZM23.0395 20.7945L23.5645 20.1646C23.5645 20.1646 23.571 20.1515 23.5645 20.1384C23.3742 19.8562 23.1117 19.6987 22.7836 19.6462C22.777 19.6462 22.7705 19.6462 22.7573 19.6528L22.298 20.3549C22.298 20.3549 22.298 20.368 22.3046 20.368C22.613 20.3812 22.8689 20.4927 23.0067 20.7814C23.0133 20.8077 23.0198 20.8077 23.0395 20.788V20.7945ZM33.8404 21.6738C33.8404 21.6738 33.7945 21.7001 33.7617 21.7066C33.6829 21.7132 33.6239 21.6607 33.5386 21.6673C33.3417 21.6804 33.1317 21.7263 32.9218 21.7788H32.9152C33.2105 21.6542 33.4598 21.4442 33.5058 21.1161C33.5123 21.0833 33.5123 21.0439 33.5058 21.0111C33.4795 20.9258 33.4927 20.8405 33.4927 20.7617C33.4861 20.5714 33.5911 20.414 33.6633 20.2499C33.6633 20.2499 33.6654 20.2499 33.6698 20.2499C33.6567 20.3615 33.6436 20.4665 33.637 20.578C33.6305 20.683 33.637 20.7749 33.6501 20.8733C33.6633 20.9192 33.6895 20.9717 33.7354 20.998C33.742 21.0045 33.7486 21.0045 33.7617 20.998C33.8273 20.9652 33.8995 20.952 33.9585 20.9586C33.9848 20.9652 34.0045 20.9848 34.0176 21.0177C34.1029 21.2801 34.0439 21.4967 33.8404 21.6738ZM33.8207 21.2473C33.7814 21.2408 33.7617 21.2079 33.7092 21.2211C33.5911 21.2473 33.532 21.3261 33.5386 21.4507C33.5386 21.4639 33.5451 21.477 33.5517 21.477C33.7026 21.5098 33.7617 21.372 33.8207 21.267C33.8273 21.2604 33.8207 21.2539 33.8142 21.2408L33.8207 21.2473ZM40.7501 22.2907C41.0717 22.166 41.3735 22.0741 41.6491 22.0216C41.8329 21.9888 42.3184 21.9166 42.3119 22.2185C42.3119 22.2316 42.3119 22.2447 42.3053 22.2513C42.2988 22.2644 42.2922 22.2775 42.2791 22.2841C42.1019 22.4547 41.9772 22.6319 41.8854 22.8353C41.8591 22.8943 41.8525 22.9403 41.8525 22.9862C41.8525 23.0125 41.8657 23.0321 41.8854 23.0518C41.9838 23.1568 42.1019 23.2028 42.2331 23.1568C42.4562 23.0781 42.6728 22.8287 42.7778 22.6384C42.7778 22.6384 42.7756 22.6362 42.7712 22.6319C42.699 22.7041 42.6334 22.7565 42.5415 22.809C42.4825 22.8419 42.3513 22.8747 42.3119 22.8025C42.2791 22.7369 42.2856 22.6647 42.3447 22.6122C42.4694 22.4941 42.5547 22.3497 42.594 22.1725C42.6006 22.1266 42.5875 22.0872 42.5809 22.0347C42.5481 21.8444 42.3316 21.7395 42.1675 21.7066C42.0888 21.6935 42.01 21.7001 41.9313 21.7001C41.7804 21.7001 41.5835 21.7723 41.4523 21.8248C41.2029 21.9429 40.9667 22.0938 40.737 22.3038C40.6976 22.3366 40.7042 22.3431 40.7633 22.2972L40.7501 22.2907ZM36.6883 22.9009C36.7605 22.7237 36.7999 22.5269 36.813 22.3169C36.813 22.2316 36.7999 22.1463 36.7867 22.0676C36.7802 22.0413 36.7802 22.0216 36.7605 21.9954C36.7605 21.9888 36.7539 21.9822 36.7474 21.9822C36.6358 21.9429 36.5505 21.9363 36.4586 21.956C36.3537 21.9888 36.2749 22.0676 36.2093 22.1791C36.1043 22.3628 36.0518 22.5531 36.0321 22.7631L36.0387 22.7697C36.078 22.645 36.1502 22.5334 36.2552 22.4416C36.2815 22.4153 36.3208 22.3956 36.3602 22.4088C36.4258 22.435 36.4652 22.4809 36.4783 22.5466V22.5728C36.4324 22.6909 36.4061 22.809 36.3996 22.9468C36.3996 23.0912 36.4258 23.2028 36.4849 23.2881C36.6358 23.5046 36.9245 23.4849 37.1476 23.4062C37.6595 23.2224 38.0073 22.6384 38.1976 22.1529C38.2041 22.1397 38.1976 22.1266 38.191 22.1463C38.0401 22.3169 37.8695 22.4678 37.7054 22.6187C37.5085 22.7959 37.2854 22.9665 37.0295 23.0715C36.8917 23.1174 36.7277 23.1306 36.6621 22.9731C36.6555 22.9468 36.6555 22.9272 36.6752 22.8943L36.6883 22.9009ZM27.9413 21.9954C27.9413 21.9954 27.9544 21.9626 27.9347 21.9888C27.8888 22.0282 27.856 22.0872 27.81 22.1332C27.541 22.4285 27.3048 22.7369 27.1145 23.0715C27.0751 23.1437 27.0357 23.2224 27.0029 23.3012C26.9635 23.3996 26.9373 23.4849 26.9307 23.5571C26.9176 23.6358 26.9176 23.708 26.9307 23.7802C26.9438 23.8852 27.0029 23.9705 27.1013 24.0361C27.167 24.0755 27.2391 24.1149 27.3244 24.1345C27.5869 24.2002 27.7641 23.9639 27.8166 23.7408C27.8494 23.6227 27.8625 23.4915 27.8756 23.3602C27.8756 23.3143 27.8691 23.3143 27.8494 23.3537C27.81 23.4521 27.5672 23.9246 27.4097 23.7736C27.3638 23.7277 27.3376 23.6752 27.331 23.6162C27.3179 23.5177 27.331 23.4062 27.3572 23.3077C27.4032 23.124 27.4754 22.9337 27.5672 22.7369C27.6788 22.4875 27.8035 22.2447 27.9478 22.0019L27.9413 21.9954ZM39.6674 22.3694C39.6018 22.4285 39.5559 22.4875 39.4968 22.5531C39.1884 22.9009 38.086 24.2198 39.0506 24.5086C39.1228 24.5348 39.1884 24.5348 39.2475 24.5086C39.4574 24.4364 39.5493 24.2133 39.5821 24.0033C39.5952 23.918 39.6215 23.8261 39.6149 23.7343C39.6149 23.708 39.6084 23.708 39.6018 23.7343C39.5624 23.8327 39.2737 24.397 39.1228 24.128C39.0834 24.0558 39.0572 23.9902 39.0637 23.918C39.0703 23.8393 39.0769 23.7671 39.1031 23.6883C39.2212 23.2421 39.4443 22.7959 39.674 22.3891C39.674 22.3891 39.6696 22.3847 39.6609 22.376L39.6674 22.3694ZM29.6605 23.6293L30.1854 22.9928C30.1854 22.9928 30.192 22.9797 30.1854 22.9665C30.1526 22.9075 30.1133 22.8615 30.0673 22.8156C29.8836 22.6187 29.6605 22.5072 29.4046 22.4744C29.398 22.4744 29.3914 22.4744 29.3783 22.4809L28.919 23.1765C28.919 23.1765 28.919 23.1896 28.9256 23.1896C28.9584 23.1962 28.9977 23.2028 29.0371 23.2028C29.2996 23.229 29.5161 23.3602 29.6277 23.6096C29.6342 23.6161 29.6408 23.6161 29.6605 23.6227V23.6293ZM23.8007 23.1896C23.8007 23.1896 23.8007 23.1765 23.7941 23.1634C23.6563 22.9928 23.4988 22.9731 23.3085 23.0781C23.1248 23.1831 22.987 23.3602 22.8755 23.5243C22.8623 23.5374 22.8689 23.5505 22.882 23.5308C22.9804 23.4587 23.0657 23.3865 23.1839 23.3471C23.2495 23.334 23.2954 23.3471 23.3348 23.4127C23.3676 23.4587 23.3676 23.5112 23.3282 23.5505C23.2232 23.6555 23.1445 23.7671 23.0986 23.8786C23.0395 24.0033 23.0395 24.1739 23.1248 24.292C23.1642 24.338 23.2101 24.3904 23.2823 24.4167C23.4791 24.5151 23.6826 24.5348 23.8991 24.4823C24.2797 24.3773 24.634 24.1542 24.9293 23.8917C24.9293 23.8917 24.9271 23.8874 24.9228 23.8786C24.6406 23.9836 24.365 24.0689 24.0566 24.1411C23.9122 24.1805 23.7482 24.187 23.5645 24.1739C23.4135 24.1673 23.2757 23.9967 23.4135 23.8655C23.6104 23.6752 23.7548 23.4587 23.8138 23.1962L23.8007 23.1896ZM34.8313 24.4954C34.6147 24.4233 34.641 24.0099 34.6476 23.8327C34.6541 23.7736 34.6738 23.7277 34.6738 23.6752C34.6738 23.6358 34.6738 23.5965 34.6804 23.5571C34.7066 23.3865 34.7394 23.229 34.7591 23.065C34.5819 23.4324 34.431 23.8524 34.3916 24.2527C34.3851 24.3576 34.3982 24.4626 34.4507 24.5742C34.4901 24.6857 34.6016 24.7448 34.7132 24.7579C34.8641 24.7842 34.9691 24.7317 35.0347 24.6332C35.0806 24.5611 35.1003 24.4626 35.0938 24.3642C35.0872 24.2658 35.0675 24.1739 35.0478 24.082C35.0478 24.082 35.0435 24.082 35.0347 24.082C35.0347 24.082 35.0216 24.1083 35.0216 24.1214C35.0085 24.2592 34.9822 24.4101 34.8707 24.4954C34.8641 24.502 34.8575 24.502 34.8444 24.502L34.8313 24.4954ZM29.7524 24.0624L29.3849 24.5742L29.3914 24.5873L31.6487 23.7802L31.6553 23.7736L31.8325 23.2487L31.8259 23.2356L29.7524 24.0624ZM47.837 16.7918C47.837 26.0637 40.3171 33.5836 31.0451 33.5836C21.773 33.5836 14.2531 26.0637 14.2531 16.7918C14.2531 7.5199 21.773 0 31.0451 0C40.3171 0 47.837 7.5199 47.837 16.7918ZM46.4918 16.7918C46.4918 8.26139 39.5756 1.34518 31.0451 1.34518C22.5145 1.34518 15.5983 8.26139 15.5983 16.7918C15.5983 25.3222 22.5145 32.2384 31.0451 32.2384C39.5756 32.2384 46.4918 25.3222 46.4918 16.7918Z" fill="#CCCCCC"/>
<path d="M0.432304 38.6167H2.83397C3.23425 38.6167 3.54266 38.7151 3.75264 38.912C3.96918 39.1088 4.07417 39.3582 4.07417 39.6469C4.07417 39.8897 3.99543 40.0997 3.84451 40.2768C3.73952 40.3949 3.59515 40.4868 3.3983 40.5524C3.69358 40.6246 3.91669 40.7493 4.05449 40.9199C4.19229 41.0905 4.26447 41.3136 4.26447 41.5761C4.26447 41.7926 4.21197 41.9829 4.11355 42.1535C4.01512 42.3241 3.87732 42.4619 3.70014 42.5603C3.59515 42.6194 3.43111 42.6653 3.21456 42.6981C2.92584 42.7375 2.73554 42.7572 2.63711 42.7572H0.432304V38.6101V38.6167ZM1.725 40.2506H2.28277C2.48619 40.2506 2.62399 40.2178 2.70273 40.1456C2.78147 40.0734 2.82085 39.975 2.82085 39.8437C2.82085 39.7256 2.78147 39.6272 2.70273 39.5616C2.62399 39.496 2.48619 39.4566 2.28933 39.4566H1.71844V40.244L1.725 40.2506ZM1.725 41.8779H2.3812C2.6043 41.8779 2.76179 41.8385 2.84709 41.7598C2.9324 41.6811 2.98489 41.5761 2.98489 41.4448C2.98489 41.3202 2.93896 41.2217 2.84709 41.1495C2.75523 41.0774 2.59774 41.038 2.37463 41.038H1.725V41.8779Z" fill="#CCCCCC"/>
<path d="M4.98639 38.6163H6.27252V42.7634H4.98639V38.6163Z" fill="#CCCCCC"/>
<path d="M7.1967 38.6163H8.39097L9.95271 40.913V38.6163H11.1601V42.7634H9.95271L8.39753 40.4799V42.7634H7.1967V38.6163Z" fill="#CCCCCC"/>
<path d="M13.9611 42.7703V38.6232H16.1003C16.494 38.6232 16.8024 38.656 17.0058 38.7282C17.2158 38.7938 17.3864 38.925 17.5111 39.1087C17.6423 39.2925 17.7014 39.5156 17.7014 39.7781C17.7014 40.0077 17.6489 40.2046 17.557 40.3752C17.4586 40.5392 17.3208 40.677 17.1502 40.782C17.0386 40.8476 16.8877 40.9001 16.6974 40.9461C16.8483 40.9986 16.9599 41.0511 17.0321 41.097C17.078 41.1298 17.1502 41.202 17.2355 41.3135C17.3274 41.4251 17.3864 41.5104 17.4127 41.5694L18.036 42.7703H16.5924L15.9034 41.5038C15.8181 41.3398 15.7394 41.2348 15.6738 41.1823C15.5819 41.1167 15.4769 41.0839 15.3588 41.0839H15.2472V42.7703H13.9611ZM15.2472 40.303H15.7919C15.8509 40.303 15.9625 40.2833 16.1331 40.244C16.2184 40.2243 16.2906 40.1849 16.3431 40.1127C16.3956 40.0405 16.4218 39.9618 16.4218 39.8699C16.4218 39.7387 16.3824 39.6337 16.2971 39.5615C16.2118 39.4893 16.0543 39.4565 15.8181 39.4565H15.2538V40.303H15.2472Z" fill="#CCCCCC"/>
<path d="M20.9928 42.081H19.5426L19.3392 42.7634H18.0334L19.5951 38.6163H20.9994L22.548 42.7634H21.2094L21.006 42.081H20.9928ZM20.7304 41.1886L20.2776 39.699L19.8248 41.1886H20.7369H20.7304Z" fill="#CCCCCC"/>
<path d="M22.9651 38.6163H24.2447V40.0665H25.6424V38.6163H26.9285V42.7634H25.6424V41.0836H24.2447V42.7634H22.9651V38.6163Z" fill="#CCCCCC"/>
<path d="M27.7666 38.6163H29.453L30.1027 41.1427L30.7457 38.6163H32.4256V42.7634H31.3757V39.6006L30.5686 42.7634H29.6171L28.81 39.6006V42.7634H27.7601V38.6163H27.7666Z" fill="#CCCCCC"/>
<path d="M35.7912 42.081H34.341L34.1376 42.7634H32.8317L34.3935 38.6163H35.7977L37.3463 42.7634H36.0077L35.8043 42.081H35.7912ZM35.5287 41.1886L35.0759 39.699L34.6231 41.1886H35.5352H35.5287Z" fill="#CCCCCC"/>
<path d="M41.7654 41.261V40.4013H43.7471V42.1731C43.3665 42.429 43.0318 42.6061 42.7431 42.698C42.4544 42.7899 42.1066 42.8358 41.7063 42.8358C41.2142 42.8358 40.8139 42.7505 40.5055 42.5865C40.1971 42.4158 39.9543 42.1665 39.7837 41.8384C39.6131 41.5037 39.5278 41.1232 39.5278 40.6966C39.5278 40.2439 39.6196 39.8502 39.8099 39.5155C39.9937 39.1808 40.2693 38.9249 40.6302 38.7543C40.9123 38.6231 41.2864 38.5509 41.7654 38.5509C42.2444 38.5509 42.5659 38.5903 42.7956 38.6756C43.0253 38.7609 43.209 38.8856 43.3599 39.0627C43.5109 39.2399 43.6224 39.4564 43.6946 39.7255L42.461 39.9486C42.4085 39.7911 42.3232 39.673 42.205 39.5877C42.0869 39.5024 41.9294 39.463 41.7391 39.463C41.457 39.463 41.2339 39.5614 41.0698 39.7583C40.9058 39.9551 40.8205 40.2635 40.8205 40.6835C40.8205 41.1297 40.9058 41.4512 41.0698 41.6481C41.2339 41.845 41.4701 41.9368 41.7719 41.9368C41.9163 41.9368 42.0541 41.9171 42.1788 41.8712C42.31 41.8318 42.4544 41.7597 42.625 41.6547V41.261H41.7719H41.7654Z" fill="#CCCCCC"/>
<path d="M44.5246 42.7703V38.6232H46.6638C47.0575 38.6232 47.3659 38.656 47.5693 38.7282C47.7793 38.7938 47.9499 38.925 48.0746 39.1087C48.2058 39.2925 48.2649 39.5156 48.2649 39.7781C48.2649 40.0077 48.2124 40.2046 48.1205 40.3752C48.0221 40.5392 47.8843 40.677 47.7137 40.782C47.6021 40.8476 47.4512 40.9001 47.2609 40.9461C47.4118 40.9986 47.5234 41.0511 47.5955 41.097C47.6415 41.1298 47.7137 41.202 47.799 41.3135C47.8908 41.4251 47.9499 41.5104 47.9761 41.5694L48.5995 42.7703H47.1559L46.4669 41.5038C46.3816 41.3398 46.3028 41.2348 46.2372 41.1823C46.1454 41.1167 46.0404 41.0839 45.9223 41.0839H45.8107V42.7703H44.5246ZM45.8107 40.303H46.3553C46.4144 40.303 46.526 40.2833 46.6966 40.244C46.7819 40.2243 46.854 40.1849 46.9065 40.1127C46.959 40.0405 46.9853 39.9618 46.9853 39.8699C46.9853 39.7387 46.9459 39.6337 46.8606 39.5615C46.7753 39.4893 46.6178 39.4565 46.3816 39.4565H45.8173V40.303H45.8107Z" fill="#CCCCCC"/>
<path d="M48.7597 40.6966C48.7597 40.0208 48.95 39.4893 49.324 39.1152C49.698 38.7346 50.223 38.5509 50.8989 38.5509C51.5748 38.5509 52.1194 38.7346 52.4934 39.1087C52.8675 39.4827 53.0512 40.0011 53.0512 40.6704C53.0512 41.156 52.9724 41.5562 52.8084 41.8646C52.6444 42.1731 52.4081 42.4158 52.0997 42.5865C51.7913 42.7571 51.4107 42.8424 50.9448 42.8424C50.4789 42.8424 50.0918 42.7702 49.7834 42.6193C49.4749 42.4683 49.2321 42.2321 49.0353 41.9106C48.8384 41.589 48.7531 41.1822 48.7531 40.6966H48.7597ZM50.0393 40.7032C50.0393 41.1232 50.118 41.425 50.2755 41.6087C50.433 41.7925 50.643 41.8843 50.912 41.8843C51.181 41.8843 51.3976 41.7925 51.5485 41.6153C51.6994 41.4381 51.7716 41.1166 51.7716 40.6507C51.7716 40.257 51.6929 39.9748 51.5354 39.7911C51.3779 39.6074 51.1679 39.5221 50.8923 39.5221C50.6167 39.5221 50.4264 39.6139 50.2689 39.7977C50.1114 39.9814 50.0327 40.2832 50.0327 40.7098L50.0393 40.7032Z" fill="#CCCCCC"/>
<path d="M56.4387 38.6167H57.7183V41.0905C57.7183 41.3333 57.6789 41.5695 57.6068 41.786C57.5346 42.0026 57.4099 42.1929 57.2458 42.3569C57.0818 42.521 56.9112 42.6325 56.734 42.6981C56.4847 42.79 56.1894 42.8359 55.835 42.8359C55.6316 42.8359 55.4151 42.8228 55.1723 42.7966C54.9361 42.7703 54.7326 42.7113 54.5751 42.626C54.4177 42.5407 54.2667 42.4226 54.1355 42.2651C54.0043 42.1076 53.9124 41.9501 53.8599 41.786C53.7812 41.5236 53.7418 41.2873 53.7418 41.0839V38.6101H55.0214V41.143C55.0214 41.3661 55.087 41.5433 55.2117 41.6745C55.3363 41.8057 55.5069 41.8648 55.73 41.8648C55.9532 41.8648 56.1238 41.7992 56.2484 41.6745C56.3731 41.5498 56.4387 41.3727 56.4387 41.143V38.6101V38.6167Z" fill="#CCCCCC"/>
<path d="M58.5628 38.6162H60.6954C61.1613 38.6162 61.5091 38.7278 61.7388 38.9443C61.9684 39.1674 62.0866 39.4758 62.0866 39.8892C62.0866 40.3026 61.9619 40.6373 61.706 40.8735C61.45 41.1097 61.0695 41.2278 60.5511 41.2278H59.8489V42.7699H58.5628V38.6228V38.6162ZM59.8489 40.3879H60.1639C60.4133 40.3879 60.5839 40.342 60.6823 40.2567C60.7807 40.1714 60.8332 40.0598 60.8332 39.9286C60.8332 39.7973 60.7873 39.6858 60.702 39.6005C60.6167 39.5086 60.4526 39.4627 60.2098 39.4627H59.8424V40.3879H59.8489Z" fill="#CCCCCC"/>
<path d="M0 44.4627L36.8649 44.3774V45.3486L0 45.4339V44.4627Z" fill="#CCCCCC"/>
<path d="M61.5767 44.3774H39.0824V45.342H61.5767V44.3774Z" fill="#CCCCCC"/>
<path d="M2.12972 46.687V47.4416H2.07066C1.99848 47.2382 1.89349 47.0807 1.75569 46.9691C1.61132 46.8642 1.4604 46.8051 1.28979 46.8051C1.11918 46.8051 0.994502 46.851 0.889511 46.9429C0.784521 47.0348 0.705777 47.1594 0.666406 47.3169C0.627034 47.4744 0.600787 47.645 0.600787 47.8156C0.600787 48.019 0.627034 48.2028 0.672968 48.3537C0.718901 48.5112 0.797644 48.6227 0.909197 48.6949C1.01419 48.7671 1.14543 48.8065 1.29635 48.8065C1.34885 48.8065 1.40134 48.8065 1.45384 48.7868C1.50633 48.7737 1.56539 48.7605 1.61789 48.7408V48.2946C1.61789 48.2093 1.61789 48.1568 1.5982 48.1306C1.58508 48.1043 1.56539 48.0847 1.52602 48.065C1.48665 48.0453 1.44728 48.0322 1.39478 48.0322H1.34228V47.9731H2.38563V48.0322C2.30689 48.0322 2.25439 48.0453 2.22158 48.065C2.18877 48.0781 2.16909 48.1109 2.1494 48.1437C2.14284 48.1634 2.13628 48.2159 2.13628 48.2881V48.7343C1.99848 48.7933 1.85411 48.8393 1.70975 48.8721C1.55883 48.9049 1.4079 48.918 1.25042 48.918C1.047 48.918 0.876388 48.8918 0.745149 48.8327C0.61391 48.7802 0.489234 48.7015 0.390805 48.6162C0.285814 48.5243 0.207071 48.4259 0.148014 48.3143C0.0758324 48.17 0.0364609 48.0059 0.0364609 47.8287C0.0364609 47.5072 0.148014 47.2316 0.377681 47.0151C0.607349 46.792 0.889511 46.6804 1.23073 46.6804C1.33572 46.6804 1.43415 46.687 1.51946 46.7067C1.56539 46.7132 1.63757 46.7395 1.74256 46.7788C1.84755 46.8182 1.90661 46.8379 1.9263 46.8379C1.95254 46.8379 1.98535 46.8248 2.0116 46.8051C2.03785 46.7854 2.05753 46.7395 2.08378 46.6804H2.14284L2.12972 46.687Z" fill="#CCCCCC"/>
<path d="M3.27519 47.9008V48.4979C3.27519 48.616 3.28175 48.6882 3.29488 48.7145C3.308 48.7473 3.33425 48.767 3.36706 48.7867C3.39987 48.8063 3.47205 48.8129 3.57048 48.8129V48.872H2.47464V48.8129C2.57306 48.8129 2.63868 48.8063 2.67806 48.7867C2.71087 48.767 2.73711 48.7473 2.75024 48.7145C2.76336 48.6882 2.76992 48.6095 2.76992 48.4979V47.1068C2.76992 46.9887 2.76336 46.9165 2.75024 46.8903C2.73711 46.864 2.71087 46.8378 2.67806 46.8181C2.64525 46.7984 2.57306 46.7918 2.47464 46.7918V46.7328H3.47205C3.72796 46.7328 3.91826 46.7525 4.04294 46.7853C4.16105 46.8181 4.25948 46.8903 4.33822 46.9821C4.41697 47.074 4.44978 47.1921 4.44978 47.3234C4.44978 47.4808 4.39072 47.6121 4.27917 47.7171C4.20698 47.7827 4.10199 47.8286 3.97732 47.8614L4.48915 48.5898C4.55477 48.6817 4.60726 48.7407 4.63351 48.767C4.67944 48.7998 4.72538 48.8195 4.78443 48.8195V48.8785H4.10856L3.41955 47.9008H3.28175H3.27519ZM3.27519 46.8509V47.7892H3.36706C3.51142 47.7892 3.62297 47.7761 3.69515 47.7499C3.76734 47.7236 3.82639 47.6777 3.86576 47.6055C3.90514 47.5333 3.93138 47.4415 3.93138 47.3299C3.93138 47.1659 3.89201 47.0478 3.81983 46.969C3.74109 46.8903 3.62297 46.8509 3.45236 46.8509H3.28175H3.27519Z" fill="#CCCCCC"/>
<path d="M6.00555 46.707C6.34677 46.6938 6.62238 46.7923 6.83892 47.0088C7.05546 47.2188 7.16045 47.4878 7.16045 47.8028C7.16045 48.0718 7.08171 48.3146 6.92422 48.518C6.71424 48.7936 6.41895 48.9314 6.0318 48.9314C5.64465 48.9314 5.34936 48.8002 5.13938 48.5377C4.97533 48.3343 4.89003 48.085 4.89003 47.8028C4.89003 47.4878 4.99502 47.2188 5.21156 47.0088C5.4281 46.7988 5.69714 46.6938 6.01212 46.707H6.00555ZM6.01868 46.8054C5.82182 46.8054 5.6709 46.9038 5.57247 47.1072C5.48716 47.2713 5.44779 47.5075 5.44779 47.8159C5.44779 48.1834 5.51341 48.4524 5.63809 48.6296C5.72995 48.7543 5.85463 48.8133 6.01212 48.8133C6.12367 48.8133 6.20897 48.7871 6.28115 48.7346C6.37302 48.669 6.4452 48.5574 6.4977 48.4131C6.55019 48.2621 6.57644 48.0718 6.57644 47.8356C6.57644 47.5534 6.55019 47.3435 6.4977 47.1991C6.4452 47.0613 6.37958 46.9563 6.29428 46.9038C6.21554 46.8448 6.11711 46.8185 6.01212 46.8185L6.01868 46.8054Z" fill="#CCCCCC"/>
<path d="M7.34122 46.7328H8.45019V46.7918H8.3977C8.31239 46.7918 8.25989 46.7984 8.22709 46.8181C8.19428 46.8378 8.17459 46.8575 8.16147 46.8903C8.14834 46.9231 8.14178 46.9953 8.14178 47.1199V48.1698C8.14178 48.3601 8.1549 48.4914 8.18771 48.5504C8.21396 48.6095 8.26646 48.662 8.33208 48.7079C8.3977 48.7538 8.483 48.767 8.58143 48.767C8.69954 48.767 8.79797 48.7407 8.87672 48.6882C8.95546 48.6357 9.02108 48.5635 9.06045 48.4717C9.09982 48.3798 9.11951 48.2223 9.11951 47.9927V47.1199C9.11951 47.0215 9.10638 46.9559 9.0867 46.9165C9.06701 46.8771 9.04076 46.8443 9.00795 46.8312C8.96202 46.805 8.8964 46.7918 8.80453 46.7918V46.7328H9.54603V46.7918H9.5001C9.44104 46.7918 9.38855 46.805 9.34917 46.8312C9.3098 46.8575 9.27699 46.8903 9.26387 46.9428C9.25075 46.9756 9.24418 47.0346 9.24418 47.1265V47.9402C9.24418 48.1895 9.2245 48.3733 9.19169 48.4848C9.15888 48.5964 9.08014 48.7013 8.9489 48.7932C8.81766 48.8851 8.64705 48.931 8.42394 48.931C8.24021 48.931 8.09585 48.9048 7.99742 48.8588C7.85962 48.7932 7.76119 48.7079 7.70213 48.6029C7.64307 48.4979 7.61683 48.3536 7.61683 48.1764V47.1265C7.61683 47.0018 7.61026 46.9296 7.59714 46.8968C7.58402 46.864 7.55777 46.8443 7.52496 46.8247C7.49215 46.805 7.42653 46.7984 7.34122 46.7984V46.7394V46.7328Z" fill="#CCCCCC"/>
<path d="M10.479 47.9076V48.5048C10.479 48.6229 10.4856 48.6951 10.4987 48.7213C10.5118 48.7541 10.538 48.7738 10.5774 48.7935C10.6168 48.8132 10.6824 48.8197 10.7743 48.8197V48.8788H9.685V48.8197C9.78343 48.8197 9.84905 48.8132 9.88842 48.7935C9.92123 48.7738 9.94747 48.7541 9.9606 48.7213C9.97372 48.6951 9.98028 48.6163 9.98028 48.5048V47.1137C9.98028 46.9955 9.97372 46.9234 9.9606 46.8971C9.94747 46.8709 9.92123 46.8446 9.88842 46.8249C9.85561 46.8052 9.78343 46.7987 9.685 46.7987V46.7396H10.6168C10.9252 46.7396 11.1417 46.7921 11.2795 46.9037C11.4108 47.0152 11.483 47.153 11.483 47.3171C11.483 47.4549 11.437 47.573 11.3517 47.6714C11.2664 47.7698 11.1483 47.8355 10.9974 47.8748C10.8924 47.9011 10.7218 47.9142 10.479 47.9142V47.9076ZM10.479 46.8577V47.783C10.5118 47.783 10.538 47.783 10.5577 47.783C10.689 47.783 10.7874 47.7436 10.853 47.6714C10.9252 47.5927 10.958 47.4746 10.958 47.3171C10.958 47.1596 10.9252 47.0415 10.853 46.9693C10.7808 46.8971 10.6824 46.8577 10.5446 46.8577H10.479Z" fill="#CCCCCC"/>
<path d="M13.4601 46.707C13.8013 46.6938 14.0769 46.7923 14.2934 47.0088C14.51 47.2188 14.615 47.4878 14.615 47.8028C14.615 48.0718 14.5362 48.3146 14.3787 48.518C14.1687 48.7936 13.8735 48.9314 13.4863 48.9314C13.0992 48.9314 12.8039 48.8002 12.5939 48.5377C12.4298 48.3343 12.3445 48.085 12.3445 47.8028C12.3445 47.4878 12.4495 47.2188 12.6661 47.0088C12.8826 46.7988 13.1516 46.6938 13.4666 46.707H13.4601ZM13.4797 46.8054C13.2829 46.8054 13.132 46.9038 13.0335 47.1072C12.9482 47.2713 12.9089 47.5075 12.9089 47.8159C12.9089 48.1834 12.9745 48.4524 13.0992 48.6296C13.191 48.7543 13.3157 48.8133 13.4732 48.8133C13.5847 48.8133 13.67 48.7871 13.7422 48.7346C13.8341 48.669 13.9063 48.5574 13.9588 48.4131C14.0113 48.2621 14.0375 48.0718 14.0375 47.8356C14.0375 47.5534 14.0113 47.3435 13.9588 47.1991C13.9063 47.0613 13.8407 46.9563 13.7553 46.9038C13.6766 46.8448 13.5782 46.8185 13.4732 46.8185L13.4797 46.8054Z" fill="#CCCCCC"/>
<path d="M15.616 46.8578V47.7371H15.675C15.7669 47.7371 15.8456 47.724 15.9047 47.6912C15.9638 47.6583 16.0162 47.6124 16.0556 47.5468C16.095 47.4812 16.1212 47.3893 16.1344 47.2712H16.1869V48.3473H16.1344C16.1147 48.1439 16.0622 48.0127 15.9703 47.9471C15.8784 47.8815 15.78 47.8486 15.6685 47.8486H15.6094V48.5048C15.6094 48.6164 15.6094 48.682 15.6291 48.7082C15.6422 48.7345 15.6619 48.7607 15.7013 48.7804C15.7341 48.8001 15.7866 48.8132 15.8456 48.8132H15.9178V48.8723H14.7957V48.8132H14.8679C14.927 48.8132 14.9795 48.8001 15.0188 48.7804C15.0451 48.7673 15.0648 48.7411 15.0845 48.7017C15.0976 48.6754 15.1041 48.6098 15.1041 48.5048V47.094C15.1041 46.9825 15.1041 46.9169 15.0845 46.8906C15.0713 46.8644 15.0516 46.8381 15.0123 46.8184C14.9795 46.7987 14.927 46.7856 14.8679 46.7856H14.7957V46.7266H16.6003V47.3434H16.5346C16.5215 47.199 16.4821 47.094 16.4231 47.0218C16.364 46.9497 16.2722 46.9037 16.1606 46.8775C16.095 46.8644 15.9834 46.8512 15.8128 46.8512H15.616V46.8578Z" fill="#CCCCCC"/>
<path d="M19.5512 46.6869V47.4284H19.4922C19.4462 47.2315 19.3609 47.0872 19.2362 46.9822C19.1116 46.8772 18.9672 46.8247 18.8097 46.8247C18.6785 46.8247 18.5538 46.8641 18.4422 46.9428C18.3307 47.0215 18.2519 47.12 18.1995 47.2446C18.1338 47.4021 18.101 47.5793 18.101 47.7762C18.101 47.973 18.1273 48.1436 18.1732 48.3011C18.2191 48.4586 18.2979 48.5767 18.4029 48.6554C18.5079 48.7342 18.6391 48.7736 18.8032 48.7736C18.941 48.7736 19.0591 48.7473 19.1706 48.6883C19.2822 48.6292 19.4003 48.5308 19.525 48.3864V48.5701C19.4068 48.6948 19.2822 48.7867 19.1509 48.8457C19.0197 48.9048 18.8688 48.931 18.6982 48.931C18.4685 48.931 18.2651 48.8851 18.0879 48.7932C17.9107 48.7014 17.7729 48.5701 17.6745 48.3995C17.5761 48.2289 17.5301 48.0452 17.5301 47.8483C17.5301 47.6449 17.5826 47.4481 17.6876 47.2643C17.7926 47.0806 17.937 46.9362 18.1207 46.8378C18.3044 46.7394 18.4947 46.6869 18.6982 46.6869C18.8491 46.6869 19.0066 46.7197 19.1772 46.7853C19.2756 46.8247 19.3347 46.8444 19.3609 46.8444C19.3937 46.8444 19.4265 46.8313 19.4462 46.805C19.4725 46.7788 19.4856 46.7394 19.4922 46.6869H19.5512Z" fill="#CCCCCC"/>
<path d="M20.9764 46.707C21.3176 46.6938 21.5932 46.7923 21.8098 47.0088C22.0263 47.2188 22.1313 47.4878 22.1313 47.8028C22.1313 48.0718 22.0526 48.3146 21.8951 48.518C21.6851 48.7936 21.3898 48.9314 21.0027 48.9314C20.6155 48.9314 20.3202 48.8002 20.1102 48.5377C19.9462 48.3343 19.8609 48.085 19.8609 47.8028C19.8609 47.4878 19.9659 47.2188 20.1824 47.0088C20.399 46.7988 20.668 46.6938 20.983 46.707H20.9764ZM20.9961 46.8054C20.7992 46.8054 20.6483 46.9038 20.5499 47.1072C20.4646 47.2713 20.4252 47.5075 20.4252 47.8159C20.4252 48.1834 20.4908 48.4524 20.6155 48.6296C20.7074 48.7543 20.8321 48.8133 20.9895 48.8133C21.1011 48.8133 21.1864 48.7871 21.2586 48.7346C21.3504 48.669 21.4226 48.5574 21.4751 48.4131C21.5276 48.2621 21.5539 48.0718 21.5539 47.8356C21.5539 47.5534 21.5276 47.3435 21.4751 47.1991C21.4226 47.0613 21.357 46.9563 21.2717 46.9038C21.193 46.8448 21.0945 46.8185 20.9895 46.8185L20.9961 46.8054Z" fill="#CCCCCC"/>
<path d="M23.7836 48.1439L24.3676 46.7331H25.2404V46.7922H25.1682C25.1026 46.7922 25.0566 46.8053 25.0173 46.825C24.991 46.8381 24.9713 46.8644 24.9517 46.8972C24.9385 46.9234 24.932 46.989 24.932 47.094V48.5048C24.932 48.6164 24.932 48.682 24.9517 48.7082C24.9648 48.7345 24.9845 48.7607 25.0238 48.7804C25.0566 48.8001 25.1091 48.8132 25.1682 48.8132H25.2404V48.8723H24.1249V48.8132H24.197C24.2627 48.8132 24.3086 48.8001 24.348 48.7804C24.3742 48.7673 24.3939 48.7411 24.4136 48.7017C24.4267 48.6754 24.4333 48.6098 24.4333 48.5048V46.9169L23.613 48.8723H23.5737L22.7403 46.93V48.4392C22.7403 48.5442 22.7403 48.6098 22.7468 48.6361C22.76 48.6886 22.7928 48.7345 22.8387 48.7673C22.8847 48.8001 22.9568 48.8198 23.0553 48.8198V48.8789H22.3203V48.8198H22.34C22.3859 48.8198 22.4319 48.8132 22.4712 48.8001C22.5106 48.787 22.5434 48.7607 22.5631 48.7345C22.5828 48.7082 22.6025 48.6689 22.609 48.6164C22.609 48.6033 22.609 48.5508 22.609 48.4523V47.094C22.609 46.9825 22.6091 46.9169 22.5894 46.8906C22.5762 46.8644 22.5566 46.8381 22.5172 46.8184C22.4844 46.7987 22.4319 46.7856 22.3728 46.7856H22.3072V46.7266H23.1799L23.7836 48.1374V48.1439Z" fill="#CCCCCC"/>
<path d="M26.1758 47.9076V48.5048C26.1758 48.6229 26.1823 48.6951 26.1955 48.7213C26.2086 48.7476 26.2348 48.7738 26.2742 48.7935C26.3136 48.8132 26.3792 48.8197 26.4711 48.8197V48.8788H25.3818V48.8197C25.4802 48.8197 25.5458 48.8132 25.5852 48.7935C25.618 48.7738 25.6443 48.7541 25.6574 48.7213C25.6705 48.6951 25.6771 48.6163 25.6771 48.5048V47.1137C25.6771 46.9955 25.6705 46.9234 25.6574 46.8971C25.6443 46.8709 25.618 46.8446 25.5852 46.8249C25.5524 46.8052 25.4802 46.7987 25.3818 46.7987V46.7396H26.3136C26.622 46.7396 26.8385 46.7921 26.9763 46.9037C27.1076 47.0152 27.1797 47.153 27.1797 47.3171C27.1797 47.4549 27.1338 47.573 27.0485 47.6714C26.9632 47.7698 26.8451 47.8355 26.6942 47.8748C26.5892 47.9011 26.4186 47.9142 26.1758 47.9142V47.9076ZM26.1758 46.8577V47.783C26.2086 47.783 26.2348 47.783 26.2545 47.783C26.3857 47.783 26.4842 47.7436 26.5498 47.6714C26.622 47.5927 26.6548 47.4746 26.6548 47.3171C26.6548 47.1596 26.622 47.0415 26.5498 46.9693C26.4776 46.8971 26.3792 46.8577 26.2414 46.8577H26.1758Z" fill="#CCCCCC"/>
<path d="M28.3789 48.2683H27.6242L27.5324 48.4783C27.5061 48.5505 27.4864 48.603 27.4864 48.6489C27.4864 48.7079 27.5127 48.7539 27.5586 48.7801C27.5849 48.7998 27.657 48.8064 27.7686 48.8195V48.8785H27.0533V48.8195C27.1321 48.8064 27.1911 48.7736 27.2436 48.7211C27.2961 48.6686 27.3552 48.5636 27.4274 48.3995L28.1951 46.6869H28.2279L29.0022 48.4455C29.0744 48.6095 29.1335 48.7145 29.186 48.7604C29.2188 48.7932 29.2713 48.8129 29.3369 48.8195V48.8785H28.3001V48.8195H28.346C28.4314 48.8195 28.4904 48.8064 28.5232 48.7867C28.5495 48.767 28.556 48.7473 28.556 48.7145C28.556 48.6948 28.556 48.6751 28.5495 48.6554C28.5495 48.6489 28.5298 48.6095 28.5035 48.5373L28.392 48.2683H28.3789ZM28.3264 48.1502L28.0048 47.4153L27.6767 48.1502H28.3264Z" fill="#CCCCCC"/>
<path d="M30.1762 46.7328L31.2327 48.0583V47.1396C31.2327 47.0084 31.213 46.9231 31.1802 46.8771C31.1277 46.8181 31.0424 46.7853 30.9243 46.7918V46.7328H31.633V46.7918C31.5411 46.805 31.482 46.8181 31.4492 46.8378C31.4164 46.8575 31.3967 46.8837 31.377 46.9296C31.3574 46.969 31.3508 47.0412 31.3508 47.1462V48.931H31.2983L29.8481 47.1462V48.5111C29.8481 48.6357 29.8744 48.7145 29.9334 48.7604C29.9925 48.8063 30.0515 48.826 30.1237 48.826H30.1762V48.8851H29.415V48.826C29.5331 48.826 29.6119 48.7998 29.6644 48.7538C29.7103 48.7079 29.7366 48.6226 29.7366 48.5111V47.0018L29.6906 46.9428C29.6447 46.8837 29.6053 46.8509 29.5725 46.8312C29.5397 46.8115 29.4872 46.805 29.4216 46.7984V46.7394H30.1828L30.1762 46.7328Z" fill="#CCCCCC"/>
<path d="M32.8939 48.8195V48.8785H31.7718V48.8195H31.844C31.9031 48.8195 31.9556 48.8063 31.9949 48.7867C32.0212 48.7735 32.0409 48.7473 32.0605 48.7079C32.0737 48.6817 32.0802 48.616 32.0802 48.5111V47.1003C32.0802 46.9887 32.0802 46.9231 32.0605 46.8968C32.0474 46.8706 32.0277 46.8443 31.9884 46.8247C31.9556 46.805 31.9031 46.7918 31.844 46.7918H31.7718V46.7328H32.8939V46.7918H32.8217C32.7627 46.7918 32.7102 46.805 32.6708 46.8247C32.6446 46.8378 32.6249 46.864 32.6052 46.9034C32.5921 46.9296 32.5855 46.9953 32.5855 47.1003V48.5111C32.5855 48.6226 32.5855 48.6882 32.6052 48.7145C32.6183 48.7407 32.638 48.767 32.6774 48.7867C32.7102 48.8063 32.7627 48.8195 32.8217 48.8195H32.8939Z" fill="#CCCCCC"/>
<path d="M33.8518 46.8578V47.7305H33.8977C34.0355 47.7305 34.134 47.6846 34.193 47.5993C34.2521 47.514 34.2914 47.3893 34.3111 47.2187H34.3702V48.3408H34.3111C34.298 48.2161 34.2718 48.1177 34.2324 48.0389C34.193 47.9602 34.1471 47.9077 34.088 47.8815C34.029 47.8552 33.9568 47.8421 33.8518 47.8421V48.4458C33.8518 48.5639 33.8518 48.6361 33.8649 48.6623C33.878 48.6886 33.8912 48.7082 33.924 48.7279C33.9502 48.7476 33.9962 48.7542 34.0552 48.7542H34.1864C34.3833 48.7542 34.5474 48.7082 34.6655 48.6164C34.7836 48.5245 34.8754 48.3802 34.9279 48.1899H34.987L34.8886 48.8723H33.0381V48.8132H33.1103C33.1693 48.8132 33.2218 48.8001 33.2612 48.7804C33.2875 48.7673 33.3071 48.7411 33.3268 48.7017C33.34 48.6754 33.3465 48.6098 33.3465 48.5048V47.094C33.3465 46.9956 33.3465 46.9365 33.34 46.9169C33.3268 46.8775 33.3071 46.8512 33.2809 46.8316C33.2415 46.8053 33.189 46.7856 33.1169 46.7856H33.0447V46.7266H34.8361V47.3631H34.777C34.7442 47.2056 34.7048 47.094 34.6458 47.0284C34.5933 46.9628 34.5145 46.9103 34.4096 46.8775C34.3505 46.8578 34.2389 46.8512 34.0749 46.8512H33.8518V46.8578Z" fill="#CCCCCC"/>
<path d="M36.6457 46.687L36.6654 47.4022H36.5998C36.567 47.2251 36.4948 47.0807 36.3767 46.9691C36.2585 46.8576 36.1273 46.8051 35.9895 46.8051C35.8845 46.8051 35.7992 46.8313 35.7336 46.8904C35.668 46.9495 35.6417 47.0151 35.6417 47.0873C35.6417 47.1332 35.6549 47.1791 35.6745 47.2119C35.7073 47.2644 35.7533 47.3104 35.8189 47.3563C35.8714 47.3891 35.9829 47.4547 36.1601 47.54C36.4095 47.6647 36.5801 47.7828 36.6654 47.8878C36.7507 47.9994 36.7966 48.124 36.7966 48.2618C36.7966 48.439 36.7244 48.5965 36.5866 48.7212C36.4488 48.8524 36.2717 48.9115 36.0551 48.9115C35.9895 48.9115 35.9239 48.9049 35.8648 48.8918C35.8058 48.8786 35.727 48.8524 35.6417 48.813C35.5892 48.7933 35.5499 48.7802 35.5171 48.7802C35.4908 48.7802 35.458 48.7933 35.4317 48.813C35.3989 48.8327 35.3792 48.8655 35.3596 48.9115H35.3005V48.1043H35.3596C35.4055 48.334 35.4974 48.5046 35.6286 48.6227C35.7598 48.7408 35.9042 48.7999 36.0551 48.7999C36.1732 48.7999 36.2651 48.7671 36.3373 48.7015C36.4095 48.6359 36.4423 48.5637 36.4423 48.4784C36.4423 48.4259 36.4292 48.3799 36.4029 48.334C36.3767 48.2881 36.3373 48.2421 36.2782 48.1962C36.2257 48.1503 36.1273 48.0978 35.9895 48.0322C35.7927 47.9337 35.6549 47.855 35.5695 47.7894C35.4842 47.7238 35.4186 47.645 35.3727 47.5663C35.3268 47.481 35.3071 47.3891 35.3071 47.2907C35.3071 47.1201 35.3727 46.9757 35.4974 46.8576C35.622 46.7395 35.7795 46.6804 35.9698 46.6804C36.042 46.6804 36.1076 46.687 36.1732 46.7067C36.2257 46.7198 36.2848 46.7395 36.357 46.7788C36.4292 46.8117 36.4751 46.8313 36.5079 46.8313C36.5407 46.8313 36.5538 46.8248 36.5735 46.8051C36.5866 46.7854 36.6063 46.746 36.6195 46.6804H36.6654L36.6457 46.687Z" fill="#CCCCCC"/>
<path d="M47.9201 47.0488L47.6117 46.865C47.6117 46.865 47.5921 46.8388 47.5986 46.8257L47.7364 46.6157C47.7364 46.6157 47.7627 46.596 47.7758 46.6091L48.0776 46.7929C48.0776 46.7929 48.0973 46.8191 48.0908 46.8322L47.9595 47.0488C47.9595 47.0488 47.9333 47.0685 47.9201 47.0553V47.0488Z" fill="#CCCCCC"/>
<path d="M50.8413 46.9763L50.7166 47.1863C50.7166 47.1863 50.7035 47.1995 50.697 47.1863L50.3295 46.9632C50.3229 46.9632 50.3164 46.9501 50.3295 46.9435L50.487 46.6679C50.487 46.6679 50.5001 46.6548 50.5067 46.6679L50.8544 46.8845H50.8741L50.9922 46.6745C50.9922 46.6745 51.0054 46.6614 51.0119 46.6745L51.3663 46.891C51.3663 46.891 51.3794 46.9042 51.3663 46.9107L51.2022 47.1798C51.2022 47.1798 51.1891 47.1929 51.1825 47.1798L50.8544 46.9763H50.8348H50.8413Z" fill="#CCCCCC"/>
<path d="M43.5034 47.5603C43.8446 47.8228 44.1924 48.0984 44.5468 48.3871C44.5533 48.3937 44.5599 48.4068 44.5599 48.4134C44.5599 48.479 44.5533 48.5512 44.5468 48.6168C44.5336 48.7874 44.4746 48.8858 44.2908 48.9121C44.1924 48.9252 44.0743 48.9318 43.9496 48.9318C43.4837 48.9318 43.0113 48.9186 42.5388 48.9055C42.4666 48.9055 42.3682 48.8727 42.3157 48.8202C42.2763 48.7809 42.2501 48.7284 42.2435 48.6562C42.2238 48.5053 42.2042 48.3543 42.191 48.2165C42.1582 47.8425 42.132 47.4488 42.0992 47.042C42.0992 47.0288 42.0992 47.0091 42.1123 47.0026C42.2107 46.9042 42.3157 46.8189 42.4338 46.7401C42.4338 46.7401 42.4404 46.7401 42.4469 46.7401C42.4666 47.2782 42.4929 47.79 42.5126 48.2821C42.5126 48.3281 42.5323 48.3806 42.5585 48.4265C42.5585 48.4265 42.5651 48.4396 42.5782 48.4396C42.5979 48.4462 42.6241 48.4528 42.6504 48.4528C42.8603 48.4528 43.0769 48.4593 43.3 48.4724C43.5625 48.4856 43.8315 48.4856 44.1137 48.4724C44.1137 48.4724 44.1268 48.4724 44.1268 48.4593C44.1137 48.4396 44.1006 48.4265 44.0809 48.4134C43.8709 48.2362 43.6543 48.0787 43.4378 47.9212C43.4378 47.9212 43.4247 47.9212 43.4181 47.9212L43.3722 48C43.3722 48 43.3525 48.0131 43.3394 48.0066C43.2606 47.9409 43.1884 47.8753 43.1163 47.8097C43.0113 47.7047 43.0441 47.5997 43.0835 47.4816C43.1031 47.4225 43.1425 47.3897 43.195 47.3635C43.6412 47.1469 44.1071 46.937 44.573 46.7401H44.5861C44.5861 46.7401 44.5861 46.7401 44.5861 46.7467C44.5468 46.8845 44.5008 47.0157 44.4549 47.1404C44.4549 47.1601 44.4352 47.1732 44.4155 47.1798C44.1859 47.2651 43.9628 47.3438 43.7528 47.4225C43.6675 47.4554 43.5822 47.4882 43.4969 47.5275C43.4837 47.5275 43.4837 47.5407 43.4969 47.5472L43.5034 47.5603Z" fill="#CCCCCC"/>
<path d="M48.165 47.0425L48.4931 47.2524C48.4931 47.2524 48.5062 47.2656 48.4931 47.2787L48.3356 47.5149C48.3356 47.5149 48.3225 47.528 48.3094 47.5149L48.0141 47.3246C48.0141 47.3246 47.9944 47.3246 47.9878 47.3246L47.8566 47.528C47.8566 47.528 47.8435 47.5412 47.8303 47.528L47.4957 47.3246C47.4957 47.3246 47.4826 47.3115 47.4957 47.2984L47.6466 47.0556C47.6466 47.049 47.6597 47.0425 47.6729 47.0556L47.9944 47.2459C47.9944 47.2459 48.0141 47.2459 48.0206 47.2459L48.1453 47.0425C48.1453 47.0425 48.1584 47.0293 48.1716 47.0425H48.165Z" fill="#CCCCCC"/>
<path d="M53.3536 48.3154C53.1961 48.3416 53.0386 48.3679 52.8812 48.3941C52.8024 48.4072 52.7302 48.4072 52.6581 48.3941C52.4743 48.3679 52.3103 48.1907 52.2709 48.0135C52.2709 47.9873 52.2709 47.961 52.2906 47.9479C52.3956 47.8626 52.5793 47.8364 52.6974 47.856C52.8155 47.8757 52.9271 47.9413 53.0255 48.007C53.0255 48.007 53.0386 48.007 53.0452 48.007C53.0452 48.007 53.0452 48.007 53.0452 48.0004C53.0452 47.7839 52.8746 47.5936 52.6843 47.5148C52.3562 47.377 52.0544 47.6329 51.9166 47.9151C51.8181 48.1185 51.8444 48.3022 51.9953 48.4597C52.015 48.4794 52.0084 48.486 51.9822 48.486C51.7722 48.486 51.5688 48.486 51.3719 48.486C51.221 48.486 51.1357 48.4072 51.1094 48.2498C51.0635 47.9348 51.0701 47.6133 51.0635 47.2852C51.0635 47.2589 51.0504 47.2523 51.0307 47.2655C50.9454 47.3245 50.8601 47.3836 50.7813 47.4426C50.7551 47.4623 50.7485 47.4886 50.7617 47.5279C50.7748 47.5608 50.7617 47.5804 50.7354 47.5936C50.6435 47.6395 50.5517 47.6789 50.4664 47.7314C50.1776 47.8954 50.0202 48.1251 49.9349 48.44C49.9217 48.4925 49.9283 48.5385 49.948 48.591C50.0727 48.8338 50.4401 48.8206 50.6829 48.7813C50.7092 48.7813 50.7223 48.7616 50.7354 48.7419C50.7682 48.696 50.8076 48.6435 50.8404 48.5975C50.847 48.5844 50.8535 48.591 50.8601 48.5975C50.8732 48.6435 50.8798 48.6828 50.8995 48.7288C50.9454 48.8206 51.0176 48.8797 51.1226 48.9125C51.1882 48.9322 51.2472 48.9453 51.2932 48.9453C51.9166 48.9322 52.5399 48.8731 53.1568 48.7681C53.1699 48.7681 53.1764 48.7616 53.183 48.7485L53.3274 48.3416L53.3536 48.3154ZM50.8404 48.3154C50.7223 48.3351 50.3548 48.3876 50.2958 48.2366C50.2958 48.2301 50.2958 48.2235 50.2958 48.2169C50.3154 48.1579 50.3548 48.1054 50.4204 48.0726C50.5385 48.0004 50.6698 47.9413 50.8076 47.8954C50.8142 47.8954 50.8207 47.8954 50.8207 47.902L50.8535 48.3088C50.8535 48.3088 50.8535 48.3219 50.8404 48.3219V48.3154Z" fill="#CCCCCC"/>
<path d="M40.7436 47.2648L41.1111 47.4813C41.1111 47.4813 41.1176 47.4944 41.1111 47.501L40.947 47.7766C40.947 47.7766 40.9339 47.7831 40.9273 47.7766L40.5927 47.5666C40.5927 47.5666 40.5795 47.5666 40.573 47.5666L40.4417 47.7897C40.4417 47.7897 40.4286 47.7963 40.4221 47.7897L40.048 47.56C40.048 47.56 40.0415 47.5469 40.048 47.5404L40.2055 47.2648C40.2055 47.2648 40.2186 47.2582 40.2252 47.2648L40.5795 47.4813C40.5795 47.4813 40.5927 47.4813 40.5992 47.4813L40.7239 47.2648C40.7239 47.2648 40.737 47.2582 40.7436 47.2648Z" fill="#CCCCCC"/>
<path d="M61.1898 48.3809C61.1504 48.1184 61.052 47.8232 60.8486 47.6525C60.6845 47.5147 60.4549 47.5738 60.3236 47.7313C60.2908 47.7707 60.2515 47.81 60.2252 47.856C60.1727 47.9413 60.1268 48.0331 60.0808 48.1184C60.0087 48.2562 59.8971 48.3153 59.7396 48.3284C59.6084 48.3415 59.4771 48.3415 59.3459 48.3284C59.1031 48.3153 58.9522 48.1447 58.7881 47.9872C58.6832 47.8822 58.5716 47.7838 58.4469 47.6788C58.3813 47.6263 58.3091 47.5804 58.2435 47.5541C57.8826 47.4163 57.5939 47.6657 57.4233 47.9609C57.4167 47.9741 57.4101 47.9872 57.4101 48.0003C57.4101 48.0003 57.4101 48.0003 57.4167 48.0003C57.5808 47.9216 57.8039 47.8035 57.981 47.8625C58.0532 47.8888 58.1188 47.9216 58.1779 47.9675C58.3157 48.0659 58.4469 48.1841 58.5782 48.3284C58.5847 48.335 58.5782 48.3415 58.5782 48.3415C58.3747 48.3547 58.1779 48.3612 57.9745 48.3547C57.6332 48.3481 57.3052 48.335 56.9967 48.3153C56.9902 48.3153 56.9836 48.3153 56.9836 48.3022C56.9442 48.0528 56.8327 47.751 56.6227 47.6C56.4652 47.4819 56.2552 47.5476 56.1306 47.6854C56.019 47.8166 55.9534 47.9544 55.8681 48.0988C55.7959 48.2234 55.6909 48.2825 55.5531 48.2956C55.4219 48.3087 55.2906 48.3087 55.166 48.3022C55.1594 48.3022 55.1528 48.3022 55.1528 48.289C55.1135 48.0594 55.0085 47.6591 54.7591 47.5672C54.5754 47.4951 54.4113 47.6722 54.326 47.8166C54.2342 47.9806 54.1882 48.1512 54.1948 48.3284C54.1948 48.6106 54.3785 48.7418 54.6476 48.7746C54.7329 48.7812 54.8116 48.7943 54.8904 48.8009C54.9035 48.8009 54.9035 48.8009 54.8969 48.814C54.7132 49.2143 54.267 49.4505 53.8339 49.3324C53.7223 49.2996 53.6173 49.2602 53.5255 49.2208C53.5124 49.2143 53.4927 49.2077 53.473 49.2143C53.6305 49.4308 53.8339 49.6145 54.0701 49.7327C54.3523 49.8705 54.6541 49.6998 54.8313 49.4833C55.0019 49.2733 55.1069 49.0305 55.1463 48.7549C55.1463 48.7484 55.1528 48.7418 55.166 48.7418C55.2775 48.7418 55.3891 48.7418 55.4941 48.7418C55.6647 48.7418 55.7828 48.6696 55.8681 48.545C56.0715 48.7287 56.393 48.814 56.6621 48.8206C56.7539 48.8206 56.8261 48.8074 56.8852 48.7681C56.8983 48.7615 56.9246 48.7549 56.9377 48.7549C57.5611 48.7812 58.1188 48.7877 58.5979 48.7812C59.0113 48.7746 59.3787 48.7615 59.6937 48.7549C59.8446 48.7549 59.9627 48.6828 60.0415 48.5581C60.0743 48.5909 60.1137 48.6237 60.153 48.6434C60.3564 48.7615 60.5796 48.8206 60.8355 48.8271C61.157 48.8337 61.1898 48.5909 61.1504 48.335L61.1898 48.3809ZM54.9297 48.3743C54.7985 48.3743 54.4638 48.3547 54.431 48.1841C54.4179 48.1316 54.4638 48.0791 54.4966 48.0397C54.5557 47.9741 54.6279 47.9675 54.7001 48.0134C54.8247 48.0856 54.9035 48.2234 54.9363 48.3678L54.9297 48.3743ZM56.7474 48.4203C56.5308 48.4137 56.2749 48.3415 56.1174 48.1906C56.1174 48.1906 56.1109 48.1775 56.1174 48.1709C56.1765 48.0725 56.2946 47.9544 56.4193 47.9741C56.6162 48.0003 56.7343 48.2365 56.7671 48.4137L56.7474 48.4203ZM60.9405 48.4137C60.9405 48.4137 60.9405 48.4137 60.9339 48.4137C60.7174 48.4137 60.4614 48.335 60.304 48.1775C60.304 48.1775 60.304 48.1709 60.304 48.1644C60.4155 47.9806 60.6124 47.8691 60.7895 48.0528C60.8748 48.1447 60.9273 48.2628 60.9601 48.3875C60.9601 48.3875 60.9601 48.3875 60.9601 48.394L60.9405 48.4137Z" fill="#CCCCCC"/>
<path d="M41.5489 48.5054C41.5095 48.3544 41.4111 48.2166 41.2798 48.1116C41.2798 48.1116 41.2733 48.0985 41.2798 48.092C41.3454 47.9607 41.4176 47.8229 41.5095 47.6917C41.5095 47.6851 41.5226 47.6851 41.5292 47.6917C41.667 47.8426 41.7588 48.0198 41.7982 48.2232C41.8376 48.4332 41.8376 48.6432 41.7982 48.8466C41.7982 48.8728 41.772 48.8925 41.7523 48.9056C41.6801 48.9319 41.6079 48.9516 41.5226 48.9713C41.3323 49.0041 41.1355 49.0369 40.9255 49.0566C40.7221 49.0828 40.5055 49.0894 40.289 49.0828C40.0199 49.0762 39.6525 49.0237 39.5147 48.7678C39.3703 48.4922 39.4884 48.1182 39.6459 47.8689C39.6525 47.8557 39.6722 47.8426 39.6853 47.8361C39.6918 47.8361 39.705 47.8361 39.7115 47.8361C39.7115 47.8361 39.7115 47.8426 39.7115 47.8492C39.6984 47.9214 39.6853 47.987 39.6787 48.046C39.6065 48.4529 39.9149 48.5775 40.2365 48.6104C40.3874 48.6235 40.5449 48.63 40.7155 48.6169C40.9977 48.6038 41.2733 48.5644 41.5357 48.5119C41.5423 48.5119 41.5489 48.5119 41.5423 48.4988L41.5489 48.5054Z" fill="#CCCCCC"/>
<path d="M46.2286 48.9387C46.1827 49.3193 45.9924 49.8245 45.6118 49.9689C45.4674 50.0214 45.3296 50.0083 45.1918 49.923C45.0015 49.8048 44.8572 49.6277 44.7522 49.3914C44.7522 49.3783 44.7522 49.3718 44.7522 49.3586C44.7522 49.3521 44.7719 49.3455 44.7784 49.3521C44.8769 49.4046 44.9753 49.4636 45.0737 49.4964C45.3362 49.5817 45.5724 49.5227 45.7824 49.3127C45.8808 49.2077 45.9596 49.083 46.0186 48.9387C46.0186 48.9256 46.0186 48.9059 46.0186 48.8927C45.953 48.7353 45.8152 48.5975 45.684 48.4859C45.6709 48.4728 45.6709 48.4597 45.6709 48.4465C45.7234 48.3087 45.789 48.1775 45.8743 48.0528C45.8743 48.0528 45.8808 48.0528 45.8874 48.0528C46.0186 48.1644 46.1433 48.3022 46.1893 48.4662C46.1893 48.4728 46.1958 48.4793 46.2024 48.4793C46.4058 48.4793 46.5961 48.4793 46.7798 48.4728C46.8258 48.4728 46.8717 48.4728 46.9111 48.4597C47.0292 48.44 47.0489 48.1906 47.0554 48.0988C47.0554 48.0856 47.0554 48.0791 47.0686 48.0725L47.4032 47.8363C47.4032 47.8363 47.4098 47.8363 47.4163 47.8363C47.4098 48.0594 47.3507 48.2628 47.2392 48.44C47.2392 48.44 47.2392 48.4465 47.2392 48.4531C47.3245 48.4662 47.4163 48.4728 47.5213 48.4793C47.6526 48.4859 47.8494 48.499 47.8494 48.3153C47.8494 48.2431 47.8429 48.1709 47.8232 48.0988C47.8232 48.0791 47.8232 48.0659 47.8363 48.0528L48.1316 47.7969H48.1447C48.1644 48.0003 48.1447 48.1906 48.0922 48.3809C48.0922 48.394 48.0922 48.4072 48.1053 48.4137C48.2366 48.4728 48.4269 48.5187 48.5778 48.4859C48.6434 48.4728 48.6697 48.4268 48.65 48.3612C48.6237 48.2628 48.5844 48.1644 48.5253 48.0791C48.5187 48.0659 48.5253 48.0528 48.5253 48.0397L48.7747 47.7247C48.7747 47.7247 48.7878 47.7247 48.7943 47.7247C48.8862 47.9741 48.919 48.2628 48.9256 48.5253C48.9256 48.6171 48.919 48.709 48.8993 48.8074C48.8796 48.9124 48.7747 48.919 48.6828 48.9255C48.4137 48.9387 48.1578 48.8927 47.915 48.7943C47.9019 48.7943 47.8822 48.7943 47.8691 48.8009C47.7904 48.8731 47.6919 48.9124 47.5738 48.919C47.3901 48.9321 47.2129 48.9124 47.0357 48.8534C46.9636 48.8271 46.9242 48.8796 46.8586 48.8927C46.6552 48.9387 46.4189 48.9255 46.2089 48.9255C46.1958 48.9255 46.1958 48.9256 46.1893 48.9387H46.2286Z" fill="#CCCCCC"/>
<path d="M58.0528 49.3718L58.4202 49.6081C58.4202 49.6081 58.4399 49.6343 58.4268 49.6474L58.2562 49.9165C58.2562 49.9165 58.2299 49.9361 58.2168 49.923L57.8493 49.6999C57.8493 49.6999 57.8297 49.6737 57.8428 49.6605L58.0134 49.385C58.0134 49.385 58.0396 49.3653 58.0528 49.3784V49.3718Z" fill="#CCCCCC"/>
<path d="M38.141 47.974C38.1607 47.8428 38.187 47.7181 38.2132 47.5869C38.2526 47.436 38.2985 47.2982 38.3641 47.1604C38.4035 47.0882 38.4626 46.9963 38.5282 46.9504C38.6135 46.9045 38.6988 46.911 38.7775 46.9832C38.8694 47.0488 38.9285 47.1341 38.9744 47.2391C39.0203 47.3441 39.0007 47.436 38.9219 47.5147C38.8825 47.5541 38.8432 47.5803 38.7972 47.6066H38.7841C38.7644 47.5344 38.7382 47.4622 38.6922 47.4097C38.6463 47.3572 38.5676 47.3638 38.5348 47.4228C38.4823 47.495 38.4494 47.5738 38.4166 47.6525C38.3445 47.8428 38.2854 48.0593 38.2395 48.2956C38.2198 48.4006 38.2067 48.499 38.2001 48.5843C38.2001 48.6565 38.1804 48.7221 38.2001 48.7943C38.141 48.5909 38.0623 48.394 37.977 48.2037C37.9245 48.0987 37.872 48.0003 37.7998 47.915C37.7342 47.8297 37.6095 47.7444 37.498 47.7969C37.4848 47.7969 37.4717 47.81 37.452 47.8166H37.4324C37.2486 47.7706 37.1896 47.5935 37.2421 47.4294C37.2749 47.3113 37.3733 47.1997 37.4914 47.1866C37.5964 47.1735 37.6948 47.2063 37.7736 47.2654C37.9836 47.4228 38.0885 47.705 38.1148 47.9609C38.1148 47.974 38.1148 47.9806 38.1279 47.9806L38.141 47.974Z" fill="#CCCCCC"/>
</svg>
