<svg width="102" height="77" viewBox="0 0 102 77" fill="none" xmlns="http://www.w3.org/2000/svg">
<path d="M75.87 27.26C76.17 26.92 76.91 26.89 77.1 27.07C77.29 27.25 77.41 27.95 77.24 28.18C69.3 39.06 56.47 44.88 42.95 43.55C30.32 42.3 18.78 34.41 13.11 22.79C9.37 25.45 6.41 28.82 4.46 32.92L3.88 33.28C3.71 33.39 3.33999 32.96 3.18999 32.76C2.98999 24.97 6.99 18.17 14.02 14.63C21.08 11.29 29.3 12.46 35.05 17.54C35.26 17.74 35.62 18.29 35.45 18.39L34.69 18.86C30.26 17.69 25.82 17.77 21.4 18.96C25.78 29.13 35.07 36.27 45.39 38.06C57.05 40.09 68.26 36.04 75.88 27.26H75.87ZM79.65 27.57L81.06 26.18L80.94 23.9C83.77 21.35 86.27 18.79 88.78 15.93L91.98 22.83L93.22 20.69L91.42 12.58C93.69 9.59999 95.89 6.66 97.47 3.25C97.96 2.18 98.16 1.14 97.86 0L94.28 1.10001C93.19 1.44001 91.97 2.58 91.31 3.53L86.9 9.92999L77 12.92L75.21 14.87L84.09 14.1L79.28 21.02L73.31 21.41C72.47 21.47 71.85 21.91 71.57 22.82L78.99 24.59L79.64 27.58L79.65 27.57ZM66.68 51.47C62.92 51.47 59.88 54.52 59.88 58.27C59.88 62.02 62.93 65.07 66.68 65.07C70.43 65.07 73.48 62.02 73.48 58.27C73.48 54.52 70.43 51.47 66.68 51.47ZM66.74 62.81C64.44 62.86 62.62 61.06 62.41 58.65C62.17 56.05 64.04 53.84 66.52 53.76C69 53.68 71.1 55.78 70.93 58.57C70.77 61.06 68.95 62.77 66.75 62.82L66.74 62.81ZM81.35 51.47C77.59 51.47 74.55 54.52 74.55 58.27C74.55 62.02 77.6 65.07 81.35 65.07C85.1 65.07 88.15 62.02 88.15 58.27C88.15 54.52 85.1 51.47 81.35 51.47ZM81.24 62.81C79.08 62.75 77.44 61.14 77.12 58.91C76.72 56.21 78.63 53.82 81.24 53.76C83.85 53.7 86.05 56.12 85.56 59.05C85.17 61.4 83.34 62.87 81.24 62.82V62.81ZM95.61 64.8C99.29 64.5 101.4 61.69 101.36 58.17C101.32 54.85 99.21 51.85 95.68 51.8L89.35 51.71L89.33 53.71L90.57 53.79V64.17C90.64 64.33 91.21 64.88 91.46 64.87L95.62 64.8H95.61ZM92.95 62.7V53.82C94.56 53.71 96.39 53.63 97.62 54.91C99.3 56.66 99.32 59.94 97.54 61.75C96.26 63.05 94.38 62.82 92.95 62.7ZM55.21 60.14C55.67 60.06 56.22 59.94 56.28 60.18C56.33 60.37 56.4 61.11 56.38 61.32C55.03 63 51.89 63.46 50.11 61.71C48.05 59.67 48.21 56.08 50.62 54.43C52.41 53.2 54.72 53.71 56.29 54.9L57.67 53.15C54.94 50.99 51.05 50.86 48.4 53.19C46.3 55.04 45.74 57.92 46.53 60.53C47.17 62.64 48.69 64.15 50.53 64.74C52.61 65.41 54.7 65.12 56.35 63.71L56.46 64.89L58.52 64.87L58.55 59.11C58.55 58.65 57.85 57.96 57.44 57.96H55.12L55.21 60.14ZM28.21 59.26V57.2H23.96V53.75L27.28 53.77L27.46 54.94H29.53C29.63 53.76 29.61 52.79 29.13 51.72L20.44 51.68L20.36 53.63L21.55 53.88V63.6C21.54 64.17 22.14 64.89 22.71 64.88L29.4 64.79C30.2 64.78 30.2 61.7 29.83 61.66L28.96 61.57C28.73 61.55 27.96 61.57 27.92 61.79L27.75 62.77H23.98L23.96 59.24H28.2L28.21 59.26ZM17.52 59.25V57.2H13.28V53.76L16.56 53.78L16.76 54.94H18.88L18.84 52.63C18.84 52.28 18.1 51.7 17.75 51.7H9.72L9.68999 53.68L10.88 53.79V63.7C10.87 64.22 11.45 64.9 11.96 64.89L18.64 64.82C19.13 64.82 19.44 63.42 19.4 62.94L19.29 61.79C19.26 61.52 17.32 61.46 17.25 61.79L17.04 62.78L13.3 62.75L13.28 59.24H17.52V59.25ZM42.42 5.79999C40.04 5.79999 38.1 7.72999 38.1 10.12C38.1 12.51 40.03 14.44 42.42 14.44C44.81 14.44 46.74 12.51 46.74 10.12C46.74 7.72999 44.81 5.79999 42.42 5.79999ZM3.57999 53.76L6.37 53.78L6.64 54.97L8.72 54.94L8.74 52.89C8.74 52.3 8.16 51.71 7.52 51.71H0.0299988L0 53.73L1.16 53.81V64.88L3.57 64.89V59.56H7.73V57.47H3.56V53.77L3.57999 53.76ZM39.41 61.57C39.19 61.55 38.5 61.59 38.46 61.8L38.27 62.77H34.7L34.68 52.68C34.68 52.19 33.96 51.68 33.52 51.68L31.01 51.72V53.67L32.24 53.9V63.69C32.23 64.31 32.83 64.91 33.45 64.9L39.88 64.8C40.71 64.79 40.78 61.7 40.34 61.66L39.41 61.57ZM59.28 6.81C56.71 6.81 53.92 8.45 53.21 11.22C57.31 8.19 61.79 8.55 65.59 11.41C64.74 8.39 62.01 6.81 59.29 6.81H59.28ZM47.05 71.88L46.48 72.53C46.23 72.82 45.24 72.66 45.01 72.36C44.88 72.2 44.8 71.46 45.01 71.39L45.89 71.08C46.06 71.02 46.33 70.64 46.42 70.46C46.65 70.02 44.48 69.89 43.91 71.09C43.59 71.76 44.02 72.59 44.34 73.05C43.99 73.43 43.41 74.23 43.49 74.68C43.57 75.13 44.08 75.85 44.49 76.07C45.27 76.48 46.26 76.44 46.92 76.02C47.55 75.62 47.74 74.58 47.82 73.82C48.04 73.7 48.61 73.24 48.46 73.06L47.85 72.34C47.72 72.19 47.18 71.74 47.05 71.89V71.88ZM46.47 75.04C46.24 75.25 45.75 75.38 45.35 75.36C44.99 75.34 44.53 74.65 44.69 74.11C44.82 73.68 45.98 73.44 46.53 73.73C46.8 73.87 46.7 74.84 46.48 75.04H46.47ZM72.56 74.27C72.58 73.64 72.39 72.81 71.98 72.36C71.57 71.91 70.53 71.76 69.96 71.95C68.41 72.48 68.08 74.16 68.81 75.32C69.54 76.48 71.19 76.66 72.35 75.79C72.3 75.67 72.03 75.01 72.05 75.07C71.36 75.31 70.76 75.47 70.33 75.38C70.03 75.32 69.71 74.82 69.47 74.31L72.56 74.26V74.27ZM63.58 76.01C62.69 74.31 63.42 72.83 62.63 72.27C61.59 71.54 59.55 71.77 59.63 72.91C60.1 73.69 61.37 72.12 61.74 72.81C61.84 73 61.97 73.44 61.97 73.51C61.03 73.57 60.03 73.74 59.59 74.28C59 75.02 59.42 75.88 60.17 76.24C60.66 76.48 61.51 76.1 61.98 75.84C62.32 76.09 63.45 76.41 63.57 76L63.58 76.01ZM60.84 75.52C60.62 75.49 60.21 74.9 60.38 74.76C60.55 74.62 61.06 74.29 61.28 74.3L62.04 74.35C62.2 74.36 61.76 75.65 60.85 75.52H60.84ZM35.75 71.95L35.63 74.53C35.62 74.76 35.14 75.21 34.94 75.34C34.74 75.47 33.97 75.34 33.96 75.1L33.86 73.14C33.84 72.7 33.67 71.99 33.36 71.93C33.02 71.86 32.15 72.05 32.21 72.24C33.24 74.02 32.22 76.1 33.87 76.37C34.36 76.45 35.17 76.06 35.57 75.81C36.07 76.2 36.82 76.39 37.41 76.05L36.77 75.08L36.75 71.99L35.75 71.96V71.95ZM29.46 71.78C28.19 71.78 27.15 72.81 27.15 74.09C27.15 75.37 28.18 76.4 29.46 76.4C30.74 76.4 31.77 75.37 31.77 74.09C31.77 72.81 30.74 71.78 29.46 71.78ZM29.46 75.43C28.73 75.43 28.13 74.84 28.13 74.1C28.13 73.36 28.72 72.77 29.46 72.77C30.2 72.77 30.79 73.36 30.79 74.1C30.79 74.84 30.2 75.43 29.46 75.43ZM54.04 71.16C54.42 71.16 55.17 71.46 55.71 71.72C55.94 71.78 56.2 71.07 56.15 70.76C56.11 70.5 55.56 70.21 55.13 70.22L51.22 70.31C50.98 70.32 50.75 71.08 50.79 71.3C50.82 71.47 51.22 71.73 51.4 71.66L52.89 71.07L52.94 76.15C52.93 76.26 53.98 76.12 53.99 75.95L54.05 71.16H54.04ZM25.26 71.17C25.74 71.13 26.31 71.35 26.85 71.69C27.12 71.86 27.51 71.12 27.39 70.75C27.29 70.45 26.7 70.22 26.19 70.23L22.52 70.28C22.27 70.28 22.01 71.07 22.04 71.31C22.21 72.56 23.35 70.64 24.17 71.34L24.25 76.1C24.34 76.34 25.26 76.16 25.26 75.9V71.18V71.17ZM76.65 73C77.02 72.56 77.16 72.56 77.66 72.81L78.47 73.22C78.6 73.29 78.9 72.73 78.82 72.58C78.47 71.94 77.27 71.64 76.41 72C76.03 72.16 75.52 72.86 75.61 73.22C75.68 73.54 76.18 74.06 76.47 74.22L78.03 75.06C77.33 76.18 76.02 74.73 75.88 75L75.57 75.58C76.01 75.97 76.79 76.34 77.45 76.36C78.03 76.37 78.97 75.82 78.93 75C78.87 73.67 76.29 73.4 76.65 72.98V73ZM66 75.1L64.93 72.2C64.88 72.06 64.36 71.89 64.21 71.87C64.06 71.85 63.77 72.28 63.84 72.45L65.04 75.47C65.22 75.91 65.61 76.33 66 76.32C66.32 76.31 66.78 75.81 66.91 75.5L67.93 72.93C68.05 72.62 68.12 72.19 68.04 71.95C67.98 71.76 67.1 72.07 67.02 72.28L66.01 75.11L66 75.1ZM74.58 74.9V70.37L72.94 70.23C73.06 70.62 73.51 71.3 73.52 71.55L73.6 76.08L75.31 76.23L74.58 74.89V74.9ZM40.79 72.58C40.93 72.5 40.53 71.75 40.41 71.83L39.3 72.56C39.22 72.19 38.35 71.76 37.97 71.89C37.82 71.94 37.55 72.39 37.65 72.5L38.16 73.08L38.23 76.02C38.23 76.2 39.1 76.36 39.11 76.18L39.15 75.33C39.18 74.61 39.32 73.42 39.84 73.13L40.81 72.57L40.79 72.58ZM59.11 72.73L59.02 71.79L57.74 72.5L56.97 71.89C56.77 71.73 55.82 72.09 55.95 72.31L56.51 73.22L56.55 76.13C56.8 76.27 57.63 76.26 57.62 76.03L57.56 75.1C57.52 74.45 57.75 73.31 58.24 73.1C58.73 72.89 59.12 72.88 59.1 72.73H59.11Z" fill="#CCCCCC"/>
</svg>
