<svg width="61" height="50" viewBox="0 0 61 50" fill="none" xmlns="http://www.w3.org/2000/svg">
<path d="M32.679 46.4178C32.6117 46.3612 32.499 46.3333 32.3399 46.3333H32.1944V47.0359H32.329C32.4855 47.0359 32.5999 47.0089 32.6715 46.9557C32.7438 46.9017 32.78 46.8181 32.78 46.7041C32.78 46.5698 32.7464 46.4744 32.679 46.4178ZM32.679 46.4178C32.6117 46.3612 32.499 46.3333 32.3399 46.3333H32.1944V47.0359H32.329C32.4855 47.0359 32.5999 47.0089 32.6715 46.9557C32.7438 46.9017 32.78 46.8181 32.78 46.7041C32.78 46.5698 32.7464 46.4744 32.679 46.4178ZM32.679 46.4178C32.6117 46.3612 32.499 46.3333 32.3399 46.3333H32.1944V47.0359H32.329C32.4855 47.0359 32.5999 47.0089 32.6715 46.9557C32.7438 46.9017 32.78 46.8181 32.78 46.7041C32.78 46.5698 32.7464 46.4744 32.679 46.4178ZM32.679 46.4178C32.6117 46.3612 32.499 46.3333 32.3399 46.3333H32.1944V47.0359H32.329C32.4855 47.0359 32.5999 47.0089 32.6715 46.9557C32.7438 46.9017 32.78 46.8181 32.78 46.7041C32.78 46.5698 32.7464 46.4744 32.679 46.4178ZM59.456 44.2323H0.591571C0.292011 44.2323 0.0488281 44.4763 0.0488281 44.777V49.4554C0.0488281 49.756 0.292011 50 0.591571 50H59.456C59.7556 50 59.9988 49.756 59.9988 49.4554V44.777C59.9988 44.4763 59.7556 44.2323 59.456 44.2323ZM17.1515 46.3587H16.2276V46.8223H17.0985V47.3948H16.2276V47.8458H17.1515V48.4445H15.5208V45.7735H17.1515V46.3587ZM23.0998 48.4445H22.4031L21.3984 47.0647C21.3774 47.0368 21.3454 46.9811 21.3008 46.8958C21.2562 46.8113 21.2082 46.7125 21.1561 46.5977C21.1712 46.71 21.1813 46.8088 21.188 46.8949C21.1948 46.9819 21.1981 47.0579 21.1981 47.1255V48.4445H20.498V45.7735H21.1981L22.2037 47.1474C22.223 47.1753 22.255 47.231 22.2988 47.3155C22.3434 47.4008 22.3922 47.5012 22.4452 47.6178C22.4309 47.5072 22.4199 47.4084 22.4132 47.3222C22.4065 47.2361 22.4031 47.1592 22.4031 47.0925V45.7735H23.0998V48.4445ZM28.168 46.3587H27.2449V46.8223H28.115V47.3948H27.2449V47.8458H28.168V48.4445H26.5372V45.7735H28.168V46.3587ZM32.8053 48.4445L32.1944 47.3991V48.4445H31.5145V45.7735H32.2726C32.5696 45.7735 32.7766 45.787 32.8936 45.814C33.0106 45.8419 33.1116 45.8875 33.1965 45.9516C33.2925 46.0251 33.3657 46.118 33.417 46.2312C33.4683 46.3443 33.4944 46.4693 33.4944 46.6053C33.4944 46.8122 33.4439 46.9802 33.343 47.1094C33.2411 47.2395 33.0939 47.3248 32.9003 47.3678L33.6257 48.4445H32.8053ZM39.1002 48.1278C38.8579 48.3812 38.5179 48.5079 38.0795 48.5079C37.8633 48.5079 37.6714 48.4758 37.504 48.4107C37.3357 48.3457 37.1859 48.2461 37.0538 48.1126C36.9276 47.9843 36.83 47.8331 36.7601 47.6592C36.6903 47.4844 36.6558 47.302 36.6558 47.1103C36.6558 46.9186 36.6894 46.7277 36.7576 46.5605C36.8258 46.3933 36.9267 46.243 37.0614 46.1087C37.1943 45.9787 37.3475 45.8807 37.52 45.8131C37.6925 45.7464 37.8793 45.7127 38.0795 45.7127C38.3396 45.7127 38.5701 45.765 38.7712 45.868C38.9715 45.9719 39.1406 46.1256 39.2769 46.33L38.6484 46.6323C38.5726 46.5293 38.4885 46.4524 38.3942 46.4017C38.3008 46.3511 38.1957 46.3257 38.0795 46.3257C37.8624 46.3257 37.6916 46.3984 37.5663 46.5436C37.4417 46.6897 37.3794 46.8882 37.3794 47.1398C37.3794 47.3915 37.4417 47.5941 37.5663 47.7402C37.6916 47.8863 37.8624 47.9589 38.0795 47.9589C38.2638 47.9589 38.417 47.9133 38.5398 47.823C38.6627 47.7326 38.735 47.6119 38.7552 47.4607H38.0333V46.9008H39.4587C39.4604 46.9186 39.4612 46.9388 39.4621 46.9608C39.4621 46.9827 39.4629 47.0148 39.4629 47.0579C39.4629 47.5173 39.3417 47.8737 39.1002 48.1278ZM43.8806 47.2259V48.4445H43.1805V47.2259L42.2498 45.7735H43.082L43.4405 46.4609C43.443 46.4651 43.4464 46.4718 43.4514 46.4811C43.4885 46.5529 43.5145 46.6213 43.5297 46.6872C43.5415 46.6272 43.5676 46.5614 43.6071 46.4887C43.6147 46.4752 43.6197 46.4659 43.6223 46.4609L43.9765 45.7735H44.8112L43.8806 47.2259ZM32.3399 46.3333H32.1944V47.0359H32.329C32.4855 47.0359 32.5999 47.0089 32.6715 46.9557C32.7438 46.9017 32.78 46.8181 32.78 46.7041C32.78 46.5698 32.7464 46.4744 32.679 46.4178C32.6117 46.3612 32.499 46.3333 32.3399 46.3333ZM32.679 46.4178C32.6117 46.3612 32.499 46.3333 32.3399 46.3333H32.1944V47.0359H32.329C32.4855 47.0359 32.5999 47.0089 32.6715 46.9557C32.7438 46.9017 32.78 46.8181 32.78 46.7041C32.78 46.5698 32.7464 46.4744 32.679 46.4178ZM32.679 46.4178C32.6117 46.3612 32.499 46.3333 32.3399 46.3333H32.1944V47.0359H32.329C32.4855 47.0359 32.5999 47.0089 32.6715 46.9557C32.7438 46.9017 32.78 46.8181 32.78 46.7041C32.78 46.5698 32.7464 46.4744 32.679 46.4178Z" fill="#CCCCCC"/>
<path d="M44.281 0L41.6135 3.70132H29.9206L40.0434 21.3423L39.7295 25.9886L45.4582 12.4433H39.573L44.281 0Z" fill="#CCCCCC"/>
<path d="M48.5959 3.85901H60.0524L44.907 29.7691L41.6118 24.0461L49.9296 9.05673H46.1633L48.5959 3.85901Z" fill="#CCCCCC"/>
<path d="M15.138 29.7155C4.41776 30.6258 -4.12056 19.619 2.10794 10.2664C7.55136 2.73458 11.8395 3.55541 28.2505 3.97511V9.76904L25.6941 9.43716V6.70613H13.9835C7.84587 6.43337 2.43864 11.6725 3.09835 18.5414C6.14949 31.5345 26.4363 29.2181 25.6941 15.1475C25.6941 15.1475 13.901 14.0716 9.53048 22.5138C9.53048 22.5138 14.984 23.3811 18.4668 21.3603C18.4777 21.3543 18.4904 21.3527 18.5022 21.3569L18.7622 21.443C18.8068 21.4582 18.853 21.4684 18.9018 21.4751C17.3536 22.8187 13.3667 24.6275 8.21107 23.1767C8.21107 23.175 9.28393 10.0173 28.2496 12.8311C29.1744 20.5825 26.9302 28.8043 15.1371 29.7138L15.138 29.7155ZM23.0023 17.2967C22.9215 17.1683 22.8264 17.1033 22.7196 17.1024C22.6287 17.1007 22.526 17.2105 22.4116 17.4309C22.3056 17.6353 22.2509 17.7924 22.2492 17.9021C22.2475 17.9604 22.2711 18.0102 22.3199 18.0491C22.3619 18.0846 22.4133 18.104 22.4739 18.1048C22.558 18.1057 22.6649 18.0542 22.7978 17.9494C22.834 17.9655 22.8517 18.0001 22.8508 18.0516C22.8491 18.1454 22.7902 18.2594 22.6733 18.3953C22.5849 18.4983 22.4966 18.5777 22.4091 18.6377L22.4107 18.6335C22.314 18.6985 22.2054 18.7306 22.0826 18.728C21.9606 18.7264 21.8133 18.6504 21.6433 18.5017C21.4734 18.3548 21.3783 18.2796 21.3581 18.2779C21.1797 18.4384 21.0442 18.5591 20.9533 18.6419C20.8582 18.7247 20.7009 18.8319 20.4804 18.9628C20.2532 19.0996 20.0858 19.2305 19.9806 19.3555C19.8746 19.4796 19.7635 19.6519 19.6499 19.8723C19.5515 20.0623 19.4774 20.2025 19.4294 20.2937C19.3924 20.3655 19.3697 20.406 19.363 20.417C19.3074 20.5116 19.2477 20.6011 19.1846 20.6847C19.0483 20.8679 18.8951 21.0242 18.7268 21.1567C18.8303 21.1973 18.9658 21.204 19.1004 21.1736C19.1366 21.1652 19.1728 21.1551 19.2065 21.1432C19.3032 21.0335 19.3747 20.9313 19.4185 20.8401C19.4303 20.8156 19.4429 20.7902 19.4538 20.7658C19.5161 20.6374 19.5784 20.5099 19.6406 20.3807C19.7273 20.2 19.8148 20.0192 19.9015 19.8377C19.9537 19.7389 20.0934 19.6156 20.3239 19.467C20.4156 19.4078 20.573 19.3141 20.7951 19.1891C20.7951 19.1891 20.801 19.1866 20.8044 19.1841C20.8145 19.1781 20.8229 19.1739 20.8338 19.168L20.8355 19.1629C20.9365 19.0929 21.0089 19.0312 21.0501 18.978C21.0644 19.0321 21.1124 19.1089 21.1915 19.2052C21.2773 19.3107 21.3429 19.3631 21.3875 19.3631C21.4288 19.3648 21.5323 19.2643 21.6989 19.0641C21.7763 19.1883 21.8848 19.2516 22.022 19.2541C22.0918 19.255 22.1575 19.2381 22.2214 19.2069C22.2214 19.2069 22.2223 19.2069 22.2223 19.206C22.2324 19.2009 22.2433 19.1967 22.2534 19.19L22.2559 19.1807C22.595 18.9316 22.8407 18.5819 22.9914 18.1276C23.0721 17.881 23.1142 17.7181 23.115 17.6378C23.1167 17.5247 23.0797 17.4107 23.004 17.2967H23.0023ZM22.903 16.5653C23.1049 16.4497 23.1201 16.3618 23.1596 16.3154C23.2169 16.2504 23.2716 16.1152 23.3237 15.9109C23.0587 16.0688 22.7221 16.2056 22.5403 16.2791C22.4175 16.5206 22.3544 16.6794 22.3493 16.7528C22.4553 16.7038 22.786 16.6312 22.9038 16.5645L22.903 16.5653Z" fill="#CCCCCC"/>
<path d="M41.0719 34.2261L38.5912 41.2436H36.4598L33.9792 34.2261H35.7917L37.5251 39.5243L39.2686 34.2261H41.0719Z" fill="#CCCCCC"/>
<path d="M4.97094 36.4582C4.84472 36.2251 4.66381 36.0469 4.4282 35.9236C4.19259 35.8003 3.91491 35.7387 3.59683 35.7387C3.04568 35.7387 2.60391 35.9203 2.27237 36.2834C1.94 36.6465 1.77423 37.1312 1.77423 37.7376C1.77423 38.3844 1.94841 38.8886 2.29678 39.2517C2.64514 39.6148 3.12477 39.7964 3.73568 39.7964C4.15388 39.7964 4.5073 39.69 4.79676 39.4763C5.08538 39.2635 5.29659 38.9561 5.42954 38.5567H3.26782V37.2976H6.97362V38.8869C6.8474 39.3133 6.63367 39.7102 6.33159 40.0767C6.0295 40.4433 5.64579 40.7397 5.18131 40.966C4.71682 41.1923 4.19175 41.3063 3.60777 41.3063C2.91693 41.3063 2.30098 41.1551 1.75992 40.8511C1.21886 40.548 0.797289 40.1266 0.495205 39.587C0.19312 39.0473 0.0416565 38.4309 0.0416565 37.7376C0.0416565 37.0443 0.192278 36.4261 0.495205 35.8831C0.797289 35.3401 1.21718 34.917 1.75487 34.6139C2.29257 34.3107 2.90684 34.1587 3.59768 34.1587C4.43409 34.1587 5.14008 34.3622 5.71395 34.7684C6.28867 35.1746 6.66817 35.7379 6.85413 36.4582H4.97178H4.97094ZM12.1225 38.4773C12.6341 38.3245 13.0212 38.0644 13.2829 37.6979C13.5463 37.3322 13.6767 36.915 13.6767 36.4481C13.6767 36.0351 13.5808 35.6602 13.3881 35.3232C13.1962 34.9871 12.9051 34.7228 12.5163 34.5286C12.1276 34.336 11.6589 34.2389 11.1069 34.2389H8.24844V41.2565H9.95156V38.6074H10.3597L11.8137 41.2565H13.7365L12.1225 38.4773ZM11.7094 37.1675C11.5537 37.3212 11.3198 37.3972 11.0068 37.3972H9.95071V35.6576H11.0068C11.3198 35.6576 11.5537 35.7345 11.7094 35.8873C11.8659 36.041 11.9433 36.2513 11.9433 36.5173C11.9433 36.7968 11.8659 37.0139 11.7094 37.1667V37.1675ZM16.775 35.6087V37.0282H19.0562V38.3481H16.775V39.8876H19.3549V41.2573H15.0719V34.2398H19.3549V35.6095H16.775V35.6087ZM22.4919 35.6087V37.0282H24.7731V38.3481H22.4919V39.8876H25.0718V41.2573H20.7887V34.2398H25.0718V35.6095H22.4919V35.6087ZM32.7619 41.2565H31.0588L28.2096 36.9277V41.2565H26.5065V34.2389H28.2096L31.0588 38.5871V34.2389H32.7619V41.2565Z" fill="#CCCCCC"/>
<path d="M48.1448 35.88C47.8301 35.3345 47.3976 34.9072 46.8498 34.6006C46.302 34.2949 45.6995 34.1404 45.0415 34.1404C44.3835 34.1404 43.7818 34.2941 43.2332 34.6006C42.6854 34.9072 42.2512 35.3345 41.9281 35.88C41.6067 36.4272 41.4451 37.0437 41.4451 37.7294C41.4451 38.4151 41.6067 39.0341 41.9281 39.5838C42.2512 40.1336 42.6854 40.5626 43.2332 40.8683C43.781 41.1748 44.3835 41.3285 45.0415 41.3285C45.6995 41.3285 46.3003 41.1757 46.8448 40.8683C47.39 40.5626 47.8209 40.1336 48.1398 39.5838C48.4587 39.0341 48.6177 38.4159 48.6177 37.7294C48.6177 37.0428 48.4604 36.4272 48.1448 35.88ZM46.382 39.2081C46.0471 39.5822 45.6002 39.7679 45.0423 39.7679C44.4845 39.7679 44.0284 39.583 43.6926 39.2131C43.3577 38.8432 43.1894 38.3484 43.1894 37.7285C43.1894 37.1087 43.3577 36.6062 43.6926 36.2389C44.0284 35.8732 44.4786 35.6891 45.0423 35.6891C45.6061 35.6891 46.0471 35.8741 46.382 36.244C46.7177 36.6138 46.8851 37.1087 46.8851 37.7285C46.8851 38.3484 46.7177 38.8348 46.382 39.2081ZM51.5973 39.9385H53.8289V41.2584H49.8942V34.2409H51.5973V39.9385ZM60.0044 34.2409V35.6106H58.1515V41.2584H56.4484V35.6106H54.5955V34.2409H60.0044Z" fill="#CCCCCC"/>
</svg>
