<svg width="43" height="50" viewBox="0 0 43 50" fill="none" xmlns="http://www.w3.org/2000/svg">
<path d="M4.46624 44.1404H3.25931V42.8926H5.91223V45.4289C5.34666 45.8954 4.61784 46.2685 3.27097 46.2685C1.4868 46.2685 0 44.98 0 43.1492C0 41.3184 1.48097 40.0415 3.23598 40.0415C4.30881 40.0415 5.14842 40.4438 5.67317 41.1202L4.53621 42.1055C4.23302 41.7149 3.80155 41.4525 3.19517 41.4525C2.20397 41.4525 1.66172 42.193 1.66172 43.1492C1.66172 44.1054 2.21563 44.8983 3.28846 44.8983C3.87735 44.8983 4.20969 44.7817 4.46624 44.6593V44.1404Z" fill="#CCCCCC"/>
<path d="M11.5672 46.1866H9.8064L8.95514 44.7931H8.34875V46.1866H6.72202V40.1112H9.0251C10.6577 40.1112 11.5789 41.149 11.5789 42.4959C11.5789 43.3705 11.1941 44.0701 10.4828 44.4608L11.5614 46.1866H11.5672ZM8.94931 43.4929C9.68396 43.4929 9.95217 43.0848 9.95217 42.4901C9.95217 41.8953 9.68396 41.4814 8.94931 41.4814H8.34875V43.4929H8.94931Z" fill="#CCCCCC"/>
<path d="M12.3438 40.1119H16.6059V41.4763H13.9705V42.8872H16.1686V44.1816H13.9705V44.8171H16.7284V46.1815H12.3438V40.1061V40.1119Z" fill="#CCCCCC"/>
<path d="M16.9385 40.1112H18.7226L20.0987 42.5834L21.463 40.1112H23.1714L20.8858 44.041V46.1866H19.2591V44.0876L16.9385 40.1112Z" fill="#CCCCCC"/>
<path d="M23.8543 40.0473C23.866 39.9831 23.901 39.9948 23.936 40.0356L26.8454 43.3065L29.7141 40.0356C29.7491 39.989 29.784 39.9831 29.7957 40.0473L30.1514 46.181H28.5538L28.408 43.5922L26.8921 45.3531C26.8921 45.3531 26.8396 45.3822 26.8104 45.3531L25.2303 43.5864L25.0846 46.1868H23.4928L23.8485 40.0531L23.8543 40.0473Z" fill="#CCCCCC"/>
<path d="M32.194 46.1865H30.6022L33.5583 40.0061C33.5875 39.942 33.6399 39.942 33.6633 40.0061L36.6136 46.1865H34.9343L34.7011 45.6676H32.4155L32.194 46.1865ZM33.5408 43.038L32.9344 44.449H34.1647L33.5408 43.038Z" fill="#CCCCCC"/>
<path d="M37.0634 40.1119H38.8767L39.7805 41.6512L40.6901 40.1119H42.3809L40.6201 42.8523L42.7074 46.1815H40.8941L39.6697 44.1291L38.4161 46.1815H36.7253L38.8243 42.9222L37.0576 40.1061L37.0634 40.1119Z" fill="#CCCCCC"/>
<path d="M1.17165 49.4839H0.888183V49.1893H1.51625V49.7896C1.38285 49.9007 1.21055 49.9897 0.888183 49.9897C0.465766 49.9897 0.110046 49.684 0.110046 49.2505C0.110046 48.8169 0.460208 48.5112 0.877066 48.5112C1.13274 48.5112 1.33283 48.6057 1.45511 48.7669L1.18832 49.0003C1.11607 48.9059 1.01602 48.8447 0.871508 48.8447C0.638067 48.8447 0.504673 49.0226 0.504673 49.2505C0.504673 49.4783 0.638067 49.6673 0.888183 49.6673C1.02714 49.6673 1.10495 49.6395 1.16609 49.6117V49.4894L1.17165 49.4839Z" fill="#CCCCCC"/>
<path d="M1.70184 48.5284H2.71342V48.8507H2.08535V49.1842H2.60782V49.4899H2.08535V49.64H2.74121V49.9624H1.70184V48.5228V48.5284Z" fill="#CCCCCC"/>
<path d="M3.29032 49.2509V49.9679H2.92905V48.5061C2.92905 48.5061 2.9346 48.4839 2.95684 48.5061L3.86281 49.2509V48.5283H4.22409V49.9901C4.22409 49.9901 4.21853 50.0123 4.1963 49.9901L3.29032 49.2453V49.2509Z" fill="#CCCCCC"/>
<path d="M4.48178 48.5284H5.49336V48.8507H4.86529V49.1842H5.38775V49.4899H4.86529V49.64H5.52115V49.9624H4.48178V48.5228V48.5284Z" fill="#CCCCCC"/>
<path d="M6.85722 49.9674H6.44036L6.24027 49.6339H6.09576V49.9674H5.71225V48.5278H6.25695C6.64601 48.5278 6.86278 48.7724 6.86278 49.0948C6.86278 49.3004 6.77385 49.4671 6.60155 49.5616L6.85722 49.9729V49.9674ZM6.23471 49.3282C6.40701 49.3282 6.47371 49.2281 6.47371 49.0892C6.47371 48.9502 6.41257 48.8502 6.23471 48.8502H6.0902V49.3282H6.23471Z" fill="#CCCCCC"/>
<path d="M7.30114 49.9673H6.92319L7.62351 48.5C7.62351 48.5 7.64018 48.4833 7.6513 48.5L8.35162 49.9673H7.95144L7.89586 49.845H7.35116L7.29558 49.9673H7.30114ZM7.62351 49.2225L7.479 49.556H7.77358L7.62351 49.2225Z" fill="#CCCCCC"/>
<path d="M8.48475 48.5278H8.86826V49.645H9.47965V49.9674H8.47919V48.5278H8.48475Z" fill="#CCCCCC"/>
<path d="M10.8539 49.9893C10.4481 49.9893 10.1035 49.6836 10.1035 49.2501C10.1035 48.8166 10.4481 48.5109 10.8316 48.5109C11.1429 48.5109 11.3319 48.6443 11.4541 48.8221L11.1651 49.0166C11.1095 48.9333 11.0206 48.8443 10.8372 48.8443C10.626 48.8443 10.4981 49.0222 10.4981 49.2501C10.4981 49.478 10.6315 49.6558 10.8539 49.6558C11.0428 49.6558 11.1318 49.5725 11.1929 49.4557L11.4875 49.6447C11.343 49.8837 11.1484 49.9893 10.8539 49.9893Z" fill="#CCCCCC"/>
<path d="M11.5293 49.2501C11.5293 48.8166 11.885 48.5109 12.3019 48.5109C12.7187 48.5109 13.0745 48.8166 13.0745 49.2501C13.0745 49.6836 12.7187 49.9893 12.3019 49.9893C11.885 49.9893 11.5293 49.6836 11.5293 49.2501ZM12.6854 49.2501C12.6854 49.0222 12.5464 48.8443 12.3074 48.8443C12.0684 48.8443 11.9295 49.0222 11.9295 49.2501C11.9295 49.478 12.0684 49.6558 12.3074 49.6558C12.5464 49.6558 12.6854 49.478 12.6854 49.2501Z" fill="#CCCCCC"/>
<path d="M13.6191 49.2509V49.9679H13.2578V48.5061C13.2578 48.5061 13.2634 48.4839 13.2856 48.5061L14.1916 49.2509V48.5283H14.5529V49.9901C14.5529 49.9901 14.5473 50.0123 14.5251 49.9901L13.6191 49.2453V49.2509Z" fill="#CCCCCC"/>
<path d="M15.1094 48.8502H14.7259V48.5278H15.8765V48.8502H15.4929V49.9674H15.1094V48.8502Z" fill="#CCCCCC"/>
<path d="M17.199 49.9674H16.7822L16.5821 49.6339H16.4376V49.9674H16.054V48.5278H16.5987C16.9878 48.5278 17.2046 48.7724 17.2046 49.0948C17.2046 49.3004 17.1156 49.4671 16.9433 49.5616L17.199 49.9729V49.9674ZM16.5821 49.3282C16.7544 49.3282 16.8211 49.2281 16.8211 49.0892C16.8211 48.9502 16.7599 48.8502 16.5821 48.8502H16.4376V49.3282H16.5821Z" fill="#CCCCCC"/>
<path d="M17.6429 49.9673H17.265L17.9653 48.5C17.9653 48.5 17.982 48.4833 17.9931 48.5L18.6934 49.9673H18.2932L18.2377 49.845H17.693L17.6374 49.9673H17.6429ZM17.9653 49.2225L17.8208 49.556H18.1154L17.9653 49.2225Z" fill="#CCCCCC"/>
<path d="M19.3728 49.9893C18.967 49.9893 18.6224 49.6836 18.6224 49.2501C18.6224 48.8166 18.967 48.5109 19.3505 48.5109C19.6618 48.5109 19.8507 48.6443 19.973 48.8221L19.684 49.0166C19.6284 48.9333 19.5395 48.8443 19.3561 48.8443C19.1449 48.8443 19.017 49.0222 19.017 49.2501C19.017 49.478 19.1504 49.6558 19.3728 49.6558C19.5617 49.6558 19.6507 49.5725 19.7118 49.4557L20.0064 49.6447C19.8619 49.8837 19.6673 49.9893 19.3728 49.9893Z" fill="#CCCCCC"/>
<path d="M20.4577 48.8502H20.0742V48.5278H21.2247V48.8502H20.8412V49.9674H20.4577V48.8502Z" fill="#CCCCCC"/>
<path d="M21.4056 48.5278H21.7891V49.9674H21.4056V48.5278Z" fill="#CCCCCC"/>
<path d="M22.4163 49.2509V49.9679H22.055V48.5061C22.055 48.5061 22.0606 48.4839 22.0828 48.5061L22.9888 49.2509V48.5283H23.3501V49.9901C23.3501 49.9901 23.3445 50.0123 23.3223 49.9901L22.4163 49.2453V49.2509Z" fill="#CCCCCC"/>
<path d="M24.3078 49.4835V49.1889H24.9859C24.9859 49.1889 24.9859 49.2223 24.9859 49.2501C24.9859 49.7392 24.7024 49.9893 24.28 49.9893C23.8576 49.9893 23.5296 49.6836 23.5296 49.2501C23.5296 48.8166 23.8687 48.5109 24.2744 48.5109C24.5523 48.5109 24.7746 48.6331 24.8858 48.8332L24.5801 49.0222C24.5245 48.9222 24.43 48.8443 24.2689 48.8443C24.041 48.8443 23.9243 49.0222 23.9243 49.2501C23.9243 49.478 24.0465 49.6558 24.2855 49.6558C24.4634 49.6558 24.5412 49.5947 24.5857 49.4835H24.3078Z" fill="#CCCCCC"/>
<path d="M26.5635 49.4171C26.5913 49.356 26.608 49.2893 26.6135 49.217H26.9359C26.9304 49.3949 26.8692 49.5505 26.7692 49.6784L27.0026 49.9729H26.5524L26.4968 49.9062C26.3968 49.9618 26.2745 49.9952 26.1411 49.9952C25.8187 49.9952 25.5853 49.834 25.5853 49.5728C25.5853 49.356 25.702 49.2504 25.9077 49.1503C25.8465 49.0503 25.8187 48.9502 25.8187 48.8669C25.8187 48.6501 25.9966 48.5167 26.2412 48.5167C26.4857 48.5167 26.6469 48.6446 26.6469 48.8446C26.6469 49.0058 26.5635 49.1059 26.3857 49.2059L26.558 49.4227L26.5635 49.4171ZM26.0744 49.3615C26.0133 49.4116 25.9855 49.4616 25.9855 49.5283C25.9855 49.6228 26.0466 49.6839 26.1745 49.6839C26.2189 49.6839 26.2634 49.6728 26.3079 49.6561L26.0744 49.3615ZM26.3356 48.8558C26.3356 48.8002 26.3079 48.7668 26.2578 48.7668C26.2078 48.7668 26.1745 48.7835 26.1745 48.8502C26.1745 48.9058 26.1911 48.9391 26.2356 49.0003C26.2967 48.9614 26.3356 48.9169 26.3356 48.8558Z" fill="#CCCCCC"/>
<path d="M27.7062 48.5114C27.7062 48.5114 27.7173 48.5003 27.7228 48.5114L28.412 49.2895L29.0901 48.5114C29.0901 48.5114 29.1068 48.5003 29.1068 48.5114L29.1902 49.9676H28.8122L28.7789 49.3507L28.4176 49.7675C28.4176 49.7675 28.4065 49.7731 28.4009 49.7675L28.023 49.3507L27.9896 49.9676H27.6117L27.695 48.5114H27.7062Z" fill="#CCCCCC"/>
<path d="M29.6791 49.9673H29.3011L30.0014 48.5C30.0014 48.5 30.0181 48.4833 30.0292 48.5L30.7296 49.9673H30.3294L30.2738 49.845H29.7291L29.6735 49.9673H29.6791ZM30.0014 49.2225L29.8569 49.556H30.1515L30.0014 49.2225Z" fill="#CCCCCC"/>
<path d="M30.875 48.5278H31.2585V49.9674H30.875V48.5278Z" fill="#CCCCCC"/>
<path d="M31.8808 49.2508V49.9677H31.5195V48.506C31.5195 48.506 31.5251 48.4837 31.5473 48.506L32.4533 49.2508V48.5282H32.8146V49.99C32.8146 49.99 32.809 50.0122 32.7868 49.99L31.8808 49.2452V49.2508Z" fill="#CCCCCC"/>
<path d="M33.3663 48.8502H32.9828V48.5278H34.1333V48.8502H33.7498V49.9674H33.3663V48.8502Z" fill="#CCCCCC"/>
<path d="M34.3109 48.5284H35.3225V48.8507H34.6944V49.1842H35.2169V49.4899H34.6944V49.64H35.3502V49.9624H34.3109V48.5228V48.5284Z" fill="#CCCCCC"/>
<path d="M35.8977 49.2509V49.9679H35.5365V48.5061C35.5365 48.5061 35.542 48.4839 35.5643 48.5061L36.4702 49.2509V48.5283H36.8315V49.9901C36.8315 49.9901 36.826 50.0123 36.8037 49.9901L35.8977 49.2453V49.2509Z" fill="#CCCCCC"/>
<path d="M37.3402 49.9673H36.9622L37.6626 48.5C37.6626 48.5 37.6792 48.4833 37.6904 48.5L38.3907 49.9673H37.9905L37.9349 49.845H37.3902L37.3346 49.9673H37.3402ZM37.6626 49.2225L37.5181 49.556H37.8126L37.6626 49.2225Z" fill="#CCCCCC"/>
<path d="M38.8909 49.2509V49.9679H38.5296V48.5061C38.5296 48.5061 38.5352 48.4839 38.5574 48.5061L39.4634 49.2509V48.5283H39.8247V49.9901C39.8247 49.9901 39.8191 50.0123 39.7969 49.9901L38.8909 49.2453V49.2509Z" fill="#CCCCCC"/>
<path d="M40.7562 49.9897C40.3505 49.9897 40.0059 49.684 40.0059 49.2505C40.0059 48.8169 40.3505 48.5112 40.734 48.5112C41.0452 48.5112 41.2342 48.6446 41.3565 48.8225L41.0675 49.017C41.0119 48.9336 40.9229 48.8447 40.7395 48.8447C40.5283 48.8447 40.4005 49.0226 40.4005 49.2505C40.4005 49.4783 40.5339 49.6562 40.7562 49.6562C40.9452 49.6562 41.0341 49.5728 41.0952 49.4561L41.3898 49.6451C41.2453 49.8841 41.0508 49.9897 40.7562 49.9897Z" fill="#CCCCCC"/>
<path d="M41.5326 48.5284H42.5441V48.8507H41.9216V49.1842H42.4441V49.4899H41.9216V49.64H42.5775V49.9624H41.5381V48.5228L41.5326 48.5284Z" fill="#CCCCCC"/>
<path d="M31.4915 18.1081V35.2547C31.4915 35.4381 31.3359 35.5882 31.1469 35.5882C30.9579 35.5882 30.8023 35.4381 30.8023 35.2547V18.4472L27.4952 15.9683L26.7726 15.4292L26.1001 14.9234L25.2108 14.2564L25.0996 14.173L20.6198 17.041L19.4971 17.758L20.6198 16.9298L24.9774 13.7173L25.1052 13.6228L25.2108 13.6951L25.2442 13.7173L26.1001 14.3176L26.7893 14.8011L27.6731 15.4236L31.3525 18.0137L31.4915 18.1137V18.1081Z" fill="#CCCCCC"/>
<path d="M26.7991 4.59095V4.76324L26.7935 13.2226L26.1099 13.2115L26.1043 4.93554L20.4073 0.561363L14.8047 4.22967L20.285 0.0944868L20.4128 0L20.5518 0.100045L26.6601 4.4909L26.7991 4.59095Z" fill="#CCCCCC"/>
<path d="M26.7935 13.2226L26.1099 13.2115L26.1043 4.93554L20.4073 0.561363L14.8047 4.22967L20.285 0.0944868L20.4128 0L20.5518 0.100045L26.6601 4.4909L26.7991 4.59095V4.76324L26.7935 13.2226Z" fill="#CCCCCC"/>
<path d="M24.8325 16.8241V35.2601H20.625V19.7254L24.8325 16.8241Z" fill="#CCCCCC"/>
<path d="M20.6284 2.91785V14.9288L19.0332 13.706L18.0772 12.9724L17.149 12.2609L16.7933 11.983L16.4209 11.694V5.84138L20.6284 2.91785Z" fill="#CCCCCC"/>
<path d="M20.6264 16.0515L20.5152 15.9793L16.4189 13.3503L16.2688 13.2503L11.9001 16.6351V35.2546C11.9001 35.4435 11.7445 35.5992 11.5555 35.5992C11.3666 35.5992 11.2109 35.4435 11.2109 35.2546V16.4684V16.2905L11.3499 16.1905L16.1188 12.7945L16.2577 12.6945L16.3855 12.7889L16.4189 12.8167L20.5263 15.9737L20.6319 16.0515H20.6264Z" fill="#CCCCCC"/>
<path d="M14.9413 15.9965L12.8125 17.5305V35.2606H14.9413V15.9965Z" fill="#CCCCCC"/>
<path d="M19.6773 35.2544C19.6773 35.3489 19.605 35.4267 19.505 35.4267C19.4105 35.4267 19.3327 35.3545 19.3327 35.2544C19.3327 35.1599 19.3493 33.5814 19.3716 31.4527C19.4216 26.745 19.4994 19.3473 19.4994 19.3473L19.6273 31.4527L19.6662 35.2489L19.6773 35.2544Z" fill="#CCCCCC"/>
<path d="M6.99545 35.7719C16.4832 34.3991 26.2043 34.3991 35.692 35.7719C26.1043 35.3995 16.5832 35.394 6.99545 35.7719Z" fill="#CCCCCC"/>
</svg>
