<svg width="139" height="45" viewBox="0 0 139 45" fill="none" xmlns="http://www.w3.org/2000/svg">
<g clip-path="url(#clip0_1226_494)">
<path d="M9.12001 29.4H1.23001C0.730013 29.39 0.350013 29.01 0.180013 28.7C-0.0999873 28.2 -0.0299873 27.75 0.220013 27.25L13.72 0.85C13.98 0.35 14.38 0 14.96 0H22.79C23.24 0 23.6 0.32 23.78 0.58C24.05 0.97 24.17 1.46 23.94 1.92L10.45 28.6C10.18 29.13 9.75001 29.4 9.12001 29.4ZM22.48 28.68L36.14 1.98C36.37 1.53 36.31 1.07 36.05 0.64C35.88 0.36 35.49 0.01 35.02 0.01H27.1C26.61 0.01 26.12 0.23 25.89 0.69L12.36 27.43C12.13 27.88 12.19 28.35 12.44 28.76C12.61 29.04 13 29.4 13.46 29.4H21.44C21.89 29.39 22.29 29.04 22.48 28.68ZM39.57 44.08L52.94 17.65C53.19 17.16 53.24 16.69 52.95 16.22C52.74 15.88 52.33 15.53 51.81 15.53H43.83C43.49 15.53 42.98 15.76 42.81 16.1L29.24 42.9C29 43.37 29.04 43.81 29.27 44.24C29.45 44.58 29.87 44.93 30.36 44.93H38.43C38.99 44.92 39.35 44.51 39.56 44.08H39.57ZM27.27 44.2L40.8 17.46C41.04 16.99 40.91 16.48 40.65 16.11C40.4 15.76 40.01 15.52 39.5 15.52H31.87C31.31 15.52 30.87 15.83 30.62 16.33L17.03 42.91C16.79 43.38 16.83 43.82 17.06 44.24C17.24 44.58 17.65 44.92 18.14 44.92H26.12C26.64 44.92 27.06 44.62 27.28 44.2H27.27ZM106.73 11.77C107.56 12.07 108.09 12.82 108.09 13.71L108.11 20.21H110.7V13.9C110.73 11.57 109.09 9.63 106.8 9.27C104.99 9 103.18 9.31 102.04 10.88C100.84 9.29 99.05 8.96 97.1 9.3C94.97 9.72 93.38 11.51 93.38 13.71V20.2H95.97V13.81C95.97 12.9 96.42 12.13 97.26 11.8C97.93 11.53 98.67 11.52 99.36 11.76C100.17 12.05 100.73 12.77 100.73 13.64L100.75 20.2H103.34L103.36 13.61C103.36 12.72 103.95 11.99 104.8 11.72C105.47 11.51 106.12 11.53 106.73 11.75V11.77ZM73.87 5.05H71.16V11.3H64.53V5.05H61.82V20.2H64.53V13.8H71.16V20.21H73.87V5.05ZM135.3 13.72V20.22H137.92L137.9 13.64C137.9 11.53 136.37 9.82 134.36 9.36C133.36 9.13 132.41 9.14 131.42 9.38C129.45 9.86 127.97 11.56 127.96 13.64L127.94 20.22H130.55L130.57 13.64C130.57 13.09 130.82 12.52 131.24 12.18C132.21 11.42 133.66 11.4 134.64 12.2C135.11 12.58 135.3 13.18 135.3 13.73V13.72ZM92.7 11.58V9.21C89.87 9.07 87.36 10.77 87.35 13.65L87.32 20.21H89.93V13.86C90.08 12.22 91.16 11.58 92.7 11.58ZM126.75 19.03V9.4L125.13 9.44C124.65 9.45 124.17 10.01 124.17 10.54V20.22L125.63 20.2C126.23 20.2 126.75 19.64 126.75 19.03ZM125.46 5.46C124.66 5.46 124.02 6.11 124.02 6.9C124.02 7.69 124.67 8.34 125.46 8.34C126.25 8.34 126.9 7.69 126.9 6.9C126.9 6.11 126.25 5.46 125.46 5.46ZM122.88 20.21H120.27L120.23 19.23C118.9 20.68 116.25 20.71 114.47 19.81C111.97 18.54 111.16 15.47 111.95 12.87C112.87 9.87 116.01 8.7 118.96 9.45C121.16 10.01 122.68 11.87 122.82 14.18L122.88 20.21ZM120.22 14.17C120.03 12.61 118.84 11.62 117.29 11.61C115.92 11.61 114.74 12.38 114.41 13.74C114.22 14.49 114.22 15.27 114.43 16.01C114.77 17.2 115.78 17.95 117.01 18.01C117.89 18.06 118.78 17.87 119.42 17.2C120.21 16.37 120.34 15.23 120.22 14.17ZM86.05 20.21H83.44L83.37 19.3C82.96 19.66 82.53 19.97 81.98 20.14C79.27 20.99 76.26 19.85 75.25 17.1C74.12 14.07 75.27 10.46 78.53 9.51C79.87 9.11 81.26 9.13 82.59 9.59C84.61 10.29 85.89 12.12 86.01 14.29L86.05 20.21ZM83.3 13.61C82.97 12.33 81.91 11.53 80.59 11.5C79.67 11.48 78.76 11.74 78.16 12.46C77.51 13.24 77.39 14.24 77.47 15.22C77.61 16.89 78.94 18 80.6 17.9C81.83 17.83 82.89 17.19 83.26 15.92C83.49 15.15 83.49 14.35 83.3 13.61ZM71.58 33.54C71.12 32.55 70.22 31.85 69.23 31.51L66.57 30.62C65.87 30.39 65.17 30.18 64.61 29.67C63.87 29 63.99 27.64 64.87 27.12C65.75 26.6 66.88 26.72 67.67 27.26C68.16 27.6 68.36 28.08 68.43 28.63H71.78C71.68 26.89 70.73 25.46 69.12 24.79C67.3 24.04 65.18 24.06 63.39 24.86C61.76 25.58 60.9 27.1 60.94 28.83C60.97 30.22 61.59 31.37 62.81 32.07C63.59 32.52 64.47 32.77 65.34 33.07L67.69 33.88C68.32 34.2 68.73 34.72 68.78 35.33C68.83 36.04 68.55 36.62 67.94 37.01C67.41 37.34 66.76 37.4 66.12 37.34C65.02 37.26 64.24 36.46 64.19 35.34H60.9C60.91 36.91 61.73 38.24 63.05 39.01C65.29 40.28 68.73 40.26 70.62 38.46C71.94 37.21 72.35 35.21 71.59 33.55L71.58 33.54ZM108.6 35.28C108.42 34.5 108.44 33.7 108.69 32.94C109.09 31.72 110.22 31.05 111.5 31.08C112.69 31.06 113.75 31.65 114.2 32.75H116.9C116.52 30.94 115.25 29.54 113.49 28.99C110.3 28.05 106.84 29.36 106.07 32.66C105.37 35.66 106.59 38.72 109.61 39.6C110.83 39.96 112.08 39.96 113.3 39.62C115.15 39.1 116.51 37.65 116.92 35.75H114.2C113.77 36.84 112.76 37.47 111.54 37.47C110.08 37.54 108.9 36.65 108.59 35.29L108.6 35.28ZM137.97 34.94C137.45 34.2 136.63 33.85 135.78 33.59L133.07 32.76C132.64 32.63 132.39 32.27 132.39 31.86C132.39 30.89 133.71 30.63 134.83 30.98C135.36 31.2 135.69 31.63 135.76 32.23H138.37C138.33 30.84 137.48 29.56 136.13 29.04C134.63 28.46 132.93 28.52 131.5 29.2C129.88 29.97 129.22 31.91 130.15 33.44C130.63 34.23 131.5 34.61 132.36 34.87L135.16 35.71C135.55 35.83 135.82 36.1 135.86 36.47C135.9 36.8 135.76 37.14 135.43 37.37C134.74 37.84 133.76 37.81 133.03 37.39C132.58 37.13 132.34 36.73 132.24 36.24H129.48C129.55 37.28 130.03 38.09 130.77 38.71C132.39 40.07 135.15 40.24 136.98 39.18C138.47 38.32 138.98 36.37 137.98 34.95L137.97 34.94ZM96.33 36.14L93.69 28.83H90.89L94.98 39.65H97.67L101.76 28.84H98.95L96.32 36.14H96.33ZM89.68 31.11L90.56 30.98V28.64L88.5 28.9C87.72 29.12 86.98 29.48 86.42 30.08C85.67 30.88 85.22 31.94 85.22 33.06L85.19 39.66H87.79L87.83 33.2C87.83 32.08 88.68 31.27 89.69 31.12L89.68 31.11ZM105.02 38.42V28.84H103.74C103.05 28.84 102.42 29.32 102.42 30.06V39.66H103.8C104.48 39.66 105.01 39.1 105.01 38.43L105.02 38.42ZM103.72 24.9C102.92 24.9 102.28 25.54 102.28 26.34C102.28 27.14 102.93 27.78 103.72 27.78C104.51 27.78 105.16 27.14 105.16 26.34C105.16 25.54 104.51 24.9 103.72 24.9ZM128.65 35.12H120.19C120.4 36.54 121.62 37.53 123.08 37.46C124.03 37.49 124.92 37.14 125.5 36.31H128.36C127.89 37.81 126.79 38.95 125.32 39.48C122.13 40.62 118.46 39.24 117.67 35.82C116.98 32.83 118.23 29.79 121.22 28.95C122.34 28.63 123.44 28.61 124.58 28.84C127.48 29.43 129.01 32.11 128.65 35.12ZM125.8 32.73C125.33 31.58 124.24 31.07 123.08 31.07C121.92 31.07 120.85 31.57 120.39 32.73H125.8ZM84.14 35.11H75.7C75.93 36.57 77.07 37.43 78.45 37.47C79.48 37.5 80.46 37.15 81.05 36.3H83.87C83.37 37.87 82.2 39.03 80.66 39.54C79.25 39.99 77.78 39.98 76.39 39.48C73.51 38.45 72.44 35.26 73.25 32.42C74.16 29.23 77.58 28.06 80.63 28.99C83.26 29.8 84.48 32.37 84.14 35.11ZM81.3 32.71C80.75 31.52 79.68 31.04 78.54 31.08C77.39 31.06 76.32 31.66 75.89 32.75L81.3 32.71Z" fill="#CCCCCC"/>
</g>
<defs>
<clipPath id="clip0_1226_494">
<rect width="138.49" height="44.93" fill="white"/>
</clipPath>
</defs>
</svg>
