<svg width="137" height="98" viewBox="0 0 137 98" fill="none" xmlns="http://www.w3.org/2000/svg">
<path d="M109.94 43.6622L105.19 48.6322L97.29 40.0022C97.41 39.5022 97.48 39.0022 97.32 38.7722C97.15 38.5322 96.45 38.4422 96.06 38.4822L97.16 40.0522C96.96 40.1822 96.17 40.1722 95.94 39.9722C95.69 39.7622 95.7 39.1522 95.96 38.5622L75.36 16.0922L65.98 27.7922L62.27 28.0722L47.93 42.7322L35.01 31.7122L21.66 46.1822L13.18 46.8522L0 61.1322V62.6322L15.06 49.2422L23.15 49.1122L35.52 36.6622L40.63 41.4622C39.91 43.0622 38.84 44.6422 38.32 46.2722C37.75 49.8322 37.5 53.2422 37.19 57.1022L70.89 26.4522C71.83 27.6322 73.1 28.6922 73.81 29.9822C74.71 31.6222 75.18 33.6422 75.81 35.3222C74.25 37.3922 71.85 38.6722 70.51 40.7922C68.46 44.0322 67.02 47.5422 65.33 50.9322L74.18 46.1022C75.56 46.5522 76.94 47.1722 78.08 47.8422C78.05 48.4122 78.22 49.1122 78.55 49.3222C78.83 49.5022 79.36 49.1422 79.74 48.6522L85.5 51.7522L99.88 58.6422L109.08 54.3122L136.27 67.7522C136.63 67.0322 136.76 66.2622 136.73 65.3422L109.94 43.6622ZM81.44 48.1322C80.96 48.1322 80.58 47.7422 80.58 47.2722C80.58 46.8022 80.96 46.4022 81.44 46.4022C81.92 46.4022 82.3 46.7922 82.3 47.2722C82.3 47.7522 81.92 48.1322 81.44 48.1322ZM84 46.8922C83.52 46.8922 83.13 46.5022 83.13 46.0222C83.13 45.5422 83.52 45.1622 84 45.1622C84.48 45.1622 84.87 45.5522 84.87 46.0222C84.87 46.4922 84.48 46.8922 84 46.8922ZM86.56 45.6422C86.07 45.6422 85.68 45.2522 85.68 44.7622C85.68 44.2722 86.07 43.8822 86.56 43.8822C87.05 43.8822 87.44 44.2822 87.44 44.7622C87.44 45.2422 87.04 45.6422 86.56 45.6422ZM89.1 44.3222C88.61 44.3222 88.22 43.9222 88.22 43.4422C88.22 42.9622 88.61 42.5722 89.1 42.5722C89.59 42.5722 89.97 42.9622 89.97 43.4422C89.97 43.9222 89.58 44.3222 89.1 44.3222ZM91.62 42.9722C91.13 42.9722 90.73 42.5722 90.73 42.0922C90.73 41.6122 91.13 41.2022 91.62 41.2022C92.11 41.2022 92.5 41.6022 92.5 42.0922C92.5 42.5822 92.11 42.9722 91.62 42.9722ZM94.11 41.6222C93.62 41.6222 93.22 41.2222 93.22 40.7322C93.22 40.2422 93.62 39.8422 94.11 39.8422C94.6 39.8422 95 40.2422 95 40.7322C95 41.2222 94.6 41.6222 94.11 41.6222ZM51.71 0.742226C46.3 -1.20777 40.51 0.802189 37.33 5.39219C34.12 10.0422 34.26 16.4922 38.32 20.6122L47.52 29.9522L56.83 20.5722C58.77 18.6022 59.68 16.0922 59.88 13.5422C60.36 7.68221 56.92 2.62223 51.71 0.742226ZM47.54 22.4022C42.01 22.4022 37.53 17.9222 37.53 12.3922C37.53 6.86219 42.01 2.39219 47.54 2.39219C53.07 2.39219 57.55 6.87219 57.55 12.3922C57.55 17.9122 53.07 22.4022 47.54 22.4022ZM84.17 68.9722C79.57 68.9722 75.84 72.6922 75.84 77.2922C75.84 81.8922 79.57 85.6222 84.17 85.6222C88.77 85.6222 92.5 81.8922 92.5 77.2922C92.5 72.6922 88.77 68.9722 84.17 68.9722ZM86.34 80.9622C84.85 81.8522 82.9 81.7922 81.48 80.6222C80.17 79.5522 79.66 77.7122 80.17 75.8922C80.73 73.9222 82.49 72.9222 84.47 73.0222C86.24 73.1222 87.95 74.3622 88.31 76.4822C88.64 78.4322 87.83 80.0722 86.34 80.9622ZM42.38 85.2922L38.31 85.3122L38.29 79.8222H31.42V85.3222L27.4 85.3022V69.3322L31.42 69.3222V75.8622H38.3V69.3222H42.37V85.3022L42.38 85.2922ZM109.31 85.6522L98.63 76.9122V85.3022H94.59L94.61 68.9022L105.3 77.5022L105.33 69.3022H109.34L109.3 85.6422L109.31 85.6522ZM70.61 85.2922L66.63 85.3122V73.3222H61.67V69.3222H75.54L75.59 73.3222H70.6V85.2922H70.61ZM62.59 81.3122V85.3122H52.37V69.3322L56.38 69.3522V81.3322H62.59V81.3122ZM108.71 28.5922C108.78 28.4122 109.44 28.1622 109.73 28.2322L111.94 28.7522L115.85 25.1522L114.18 23.8922L109.99 21.3922C111.44 19.9322 112.84 22.2722 114.48 20.5422C114.6 20.6322 114.65 21.0622 114.62 21.6122L116.32 21.9522C116.62 22.0122 117.17 21.5122 117.56 21.2522L117.66 22.2622L119.36 22.6222C120.86 21.6222 122.52 20.2922 123.9 20.2522C124.72 20.2322 122.7 22.7722 120.65 24.1322L120.44 26.1322L121.01 25.9722C122.21 25.6422 119.65 27.1822 120.4 29.2322L121.05 29.0622C121.17 29.0322 121.17 29.5322 121.06 29.5922C119.42 30.5522 120.88 32.5722 119.25 33.5522L117.88 28.5722L117.17 26.9422L112.63 29.7622C112.61 30.7922 112.6 31.7522 112.23 33.0122C111.08 31.1522 110.47 29.9022 108.72 28.5822L108.71 28.5922ZM45.33 69.3122H49.38L49.37 85.3322H45.32L45.33 69.3122ZM64.2 96.2122C64.62 95.4922 64.76 94.3022 64.44 93.6422L63.79 93.8422L63.59 95.5722L61.82 93.3922C62.98 92.9022 63.61 91.9922 63.31 90.8822C63.05 89.8722 61.87 89.5722 61.07 89.9022C60.17 90.2722 59.74 91.3022 60.17 92.2722L60.61 93.2922C59.97 93.8222 59.39 94.4822 59.37 95.1822C59.35 95.9122 59.88 96.7722 60.6 97.0922C61.5 97.4922 62.55 97.2422 63.38 96.9322L64.94 97.1222L64.2 96.2122ZM60.93 91.1622C61.02 90.8722 61.68 90.5722 61.96 90.5822C62.28 90.6022 62.74 91.4822 62.49 91.7622L61.48 92.8722C61.06 92.3222 60.8 91.6222 60.93 91.1622ZM60.39 95.7422C60.05 95.1922 60.51 94.3322 61.13 93.9422L62.95 96.1022C62.21 96.7022 60.98 96.7122 60.39 95.7422ZM37.33 89.7822C35.25 89.7822 33.57 91.4622 33.57 93.5322C33.57 95.6022 35.25 97.2922 37.33 97.2922C39.41 97.2922 41.08 95.6122 41.08 93.5322C41.08 91.4522 39.4 89.7822 37.33 89.7822ZM37.33 96.4122C35.74 96.4122 34.45 95.1222 34.45 93.5322C34.45 91.9422 35.74 90.6522 37.33 90.6522C38.92 90.6522 40.22 91.9422 40.22 93.5322C40.22 95.1222 38.93 96.4122 37.33 96.4122ZM79.35 94.5422C80.34 93.8522 80.76 92.8622 80.58 91.7122C80.44 90.8122 79.48 89.8722 78.36 89.8622L75.87 89.8322V97.2622L76.75 97.1422V94.8522L78.57 94.8822L79.87 97.0422C79.97 97.2022 80.72 97.2622 80.92 97.2222L79.35 94.5422ZM78.72 93.8922L76.75 94.1022V90.6622L79.02 90.9122C79.48 90.9622 79.79 91.9822 79.76 92.3922C79.73 92.8522 79.18 93.8422 78.72 93.8922ZM53.61 94.5322C54.56 93.8122 55.03 92.8722 54.84 91.7422C54.7 90.9822 53.87 89.9222 52.89 89.8922L50.14 89.8122V97.2622H50.96V94.8422L52.81 94.8922L54.21 97.1822C54.28 97.2922 55.14 97.2622 55.17 97.2422L53.61 94.5322ZM52.21 94.0422L50.96 94.0622V90.6722L53.12 90.8722C53.89 90.9422 54.1 92.1922 53.89 92.8822C53.71 93.4522 52.92 94.0322 52.21 94.0422ZM84.51 89.7022L81.21 97.2222C81.78 97.2522 82.21 97.1622 82.29 96.9422L82.7 95.8122H86.35L86.86 97.1622C86.93 97.3422 87.61 97.2722 87.84 97.2322L84.51 89.7022ZM83.06 95.0222L84.48 91.6822L85.88 94.9222L83.06 95.0222ZM98.3 94.2722H95.63V96.3522H98.82V97.2722H94.79V89.8322H98.82L98.81 90.6822L95.65 90.7022V93.3522L98.33 93.3722L98.31 94.2622L98.3 94.2722ZM47.39 89.9322L48.24 89.8522L48.22 94.5622C48.22 96.2722 46.79 97.3622 45.16 97.3322C43.72 97.3122 42.44 96.3422 42.42 94.7822L42.38 89.8622H43.21L43.32 94.9522C43.34 96.0922 44.68 96.5522 45.49 96.4822C46.61 96.3822 47.38 95.5322 47.39 94.3122V89.9422V89.9322ZM108.27 97.0822C106.84 97.6722 105.6 97.1322 104.79 96.1722C105.12 95.9322 105.5 95.6722 105.49 95.6822C106.06 96.1722 106.64 96.4822 107.15 96.5322C107.57 96.5722 108.47 96.0122 108.46 95.5522C108.41 93.5922 103.88 93.3822 105.3 90.7622C105.61 90.1822 106.54 89.7122 107.18 89.7522C107.88 89.8022 108.62 90.1822 109.08 90.6122L108.64 91.0622C108.39 91.3222 107.95 90.4722 106.61 90.6522C106.24 90.7022 105.75 91.5722 105.99 91.9122C106.95 93.2722 109.16 93.5022 109.35 95.1922C109.42 95.8422 108.94 96.8022 108.27 97.0822ZM92.9 89.9222L93.9 89.8622L90.59 97.3522L87.28 89.8622H88.26L90.64 95.3722L92.91 89.9222H92.9ZM72.24 96.9022C72.24 97.0922 71.55 97.3222 71.39 97.2722V90.7022H68.87L68.97 89.8522H74.45C74.58 89.8622 74.77 90.5322 74.78 90.6922L72.24 90.7422V96.9122V96.9022ZM30.78 96.9222C30.77 97.0922 30.15 97.2922 29.95 97.2722L29.93 90.7022H27.71C27.53 90.7022 27.41 89.9722 27.49 89.8522H33.16L33.31 90.7022L30.78 90.7322V96.9322V96.9222ZM104.38 96.3722L104.53 97.2722H100.32V89.8722H101.16V96.3522L104.37 96.3722H104.38ZM109.59 31.7222C109.59 32.2322 109.18 32.6422 108.67 32.6422C108.16 32.6422 107.75 32.2322 107.75 31.7222C107.75 31.2122 108.16 30.8022 108.67 30.8022C109.18 30.8022 109.59 31.2122 109.59 31.7222ZM107.21 33.3222C107.21 33.8222 106.8 34.2322 106.3 34.2322C105.8 34.2322 105.39 33.8222 105.39 33.3222C105.39 32.8222 105.8 32.4122 106.3 32.4122C106.8 32.4122 107.21 32.8222 107.21 33.3222ZM99.94 37.8622C99.94 38.3522 99.54 38.7522 99.05 38.7522C98.56 38.7522 98.16 38.3522 98.16 37.8622C98.16 37.3722 98.56 36.9722 99.05 36.9722C99.54 36.9722 99.94 37.3722 99.94 37.8622ZM104.8 34.8622C104.8 35.3522 104.4 35.7522 103.91 35.7522C103.42 35.7522 103.02 35.3522 103.02 34.8622C103.02 34.3722 103.42 33.9722 103.91 33.9722C104.4 33.9722 104.8 34.3722 104.8 34.8622ZM102.38 36.3722C102.38 36.8722 101.98 37.2722 101.48 37.2722C100.98 37.2722 100.58 36.8722 100.58 36.3722C100.58 35.8722 100.98 35.4722 101.48 35.4722C101.98 35.4722 102.38 35.8722 102.38 36.3722ZM63.84 54.9922C63.84 55.4422 63.47 55.8122 63.02 55.8122C62.57 55.8122 62.2 55.4422 62.2 54.9922C62.2 54.5422 62.57 54.1722 63.02 54.1722C63.47 54.1722 63.84 54.5422 63.84 54.9922ZM77.09 49.6422C77.09 50.1022 76.71 50.4822 76.25 50.4822C75.79 50.4822 75.41 50.1022 75.41 49.6422C75.41 49.1822 75.79 48.8022 76.25 48.8022C76.71 48.8022 77.09 49.1822 77.09 49.6422ZM58.43 56.8922C58.43 57.3322 58.07 57.6922 57.63 57.6922C57.19 57.6922 56.83 57.3322 56.83 56.8922C56.83 56.4522 57.19 56.0922 57.63 56.0922C58.07 56.0922 58.43 56.4522 58.43 56.8922ZM66.52 53.9922C66.52 54.4422 66.15 54.8122 65.7 54.8122C65.25 54.8122 64.88 54.4422 64.88 53.9922C64.88 53.5422 65.25 53.1722 65.7 53.1722C66.15 53.1722 66.52 53.5422 66.52 53.9922ZM69.17 52.9422C69.17 53.3922 68.8 53.7622 68.35 53.7622C67.9 53.7622 67.53 53.3922 67.53 52.9422C67.53 52.4922 67.9 52.1222 68.35 52.1222C68.8 52.1222 69.17 52.4922 69.17 52.9422ZM71.82 51.8722C71.82 52.3222 71.45 52.6922 71 52.6922C70.55 52.6922 70.18 52.3222 70.18 51.8722C70.18 51.4222 70.55 51.0522 71 51.0522C71.45 51.0522 71.82 51.4222 71.82 51.8722ZM74.47 50.7822C74.47 51.2422 74.1 51.6122 73.64 51.6122C73.18 51.6122 72.81 51.2422 72.81 50.7822C72.81 50.3222 73.18 49.9522 73.64 49.9522C74.1 49.9522 74.47 50.3222 74.47 50.7822ZM52.98 58.6722C52.98 59.1022 52.63 59.4622 52.19 59.4622C51.75 59.4622 51.4 59.1122 51.4 58.6722C51.4 58.2322 51.75 57.8822 52.19 57.8822C52.63 57.8822 52.98 58.2322 52.98 58.6722ZM61.13 55.9522C61.13 56.3922 60.77 56.7522 60.33 56.7522C59.89 56.7522 59.53 56.3922 59.53 55.9522C59.53 55.5122 59.89 55.1522 60.33 55.1522C60.77 55.1522 61.13 55.5122 61.13 55.9522ZM47.51 60.3022C47.51 60.7322 47.16 61.0822 46.73 61.0822C46.3 61.0822 45.95 60.7322 45.95 60.3022C45.95 59.8722 46.3 59.5222 46.73 59.5222C47.16 59.5222 47.51 59.8722 47.51 60.3022ZM50.25 59.4922C50.25 59.9222 49.9 60.2822 49.46 60.2822C49.02 60.2822 48.67 59.9322 48.67 59.4922C48.67 59.0522 49.02 58.7022 49.46 58.7022C49.9 58.7022 50.25 59.0522 50.25 59.4922ZM55.71 57.7822C55.71 58.2222 55.36 58.5722 54.92 58.5722C54.48 58.5722 54.13 58.2222 54.13 57.7822C54.13 57.3422 54.48 56.9922 54.92 56.9922C55.36 56.9922 55.71 57.3422 55.71 57.7822ZM41.99 61.8222C41.99 62.2422 41.65 62.5822 41.23 62.5822C40.81 62.5822 40.47 62.2422 40.47 61.8222C40.47 61.4022 40.81 61.0622 41.23 61.0622C41.65 61.0622 41.99 61.4022 41.99 61.8222ZM44.74 61.0822C44.74 61.5022 44.4 61.8522 43.97 61.8522C43.54 61.8522 43.2 61.5122 43.2 61.0822C43.2 60.6522 43.54 60.3122 43.97 60.3122C44.4 60.3122 44.74 60.6522 44.74 61.0822ZM25.27 65.6222C25.27 66.0322 24.94 66.3622 24.53 66.3622C24.12 66.3622 23.79 66.0322 23.79 65.6222C23.79 65.2122 24.12 64.8822 24.53 64.8822C24.94 64.8822 25.27 65.2122 25.27 65.6222ZM36.44 63.2022C36.44 63.6222 36.1 63.9522 35.69 63.9522C35.28 63.9522 34.94 63.6122 34.94 63.2022C34.94 62.7922 35.28 62.4522 35.69 62.4522C36.1 62.4522 36.44 62.7922 36.44 63.2022ZM33.66 63.8422C33.66 64.2522 33.33 64.5822 32.92 64.5822C32.51 64.5822 32.18 64.2522 32.18 63.8422C32.18 63.4322 32.51 63.1022 32.92 63.1022C33.33 63.1022 33.66 63.4322 33.66 63.8422ZM39.21 62.5322C39.21 62.9522 38.87 63.2822 38.46 63.2822C38.05 63.2822 37.71 62.9422 37.71 62.5322C37.71 62.1222 38.05 61.7822 38.46 61.7822C38.87 61.7822 39.21 62.1222 39.21 62.5322ZM30.88 64.4522C30.88 64.8622 30.55 65.1922 30.14 65.1922C29.73 65.1922 29.4 64.8622 29.4 64.4522C29.4 64.0422 29.73 63.7122 30.14 63.7122C30.55 63.7122 30.88 64.0422 30.88 64.4522ZM22.46 66.1522C22.46 66.5522 22.13 66.8822 21.73 66.8822C21.33 66.8822 21 66.5522 21 66.1522C21 65.7522 21.33 65.4222 21.73 65.4222C22.13 65.4222 22.46 65.7522 22.46 66.1522ZM19.64 66.6522C19.64 67.0522 19.32 67.3722 18.92 67.3722C18.52 67.3722 18.2 67.0522 18.2 66.6522C18.2 66.2522 18.52 65.9322 18.92 65.9322C19.32 65.9322 19.64 66.2522 19.64 66.6522ZM16.83 67.1222C16.83 67.5222 16.51 67.8422 16.11 67.8422C15.71 67.8422 15.39 67.5222 15.39 67.1222C15.39 66.7222 15.71 66.4022 16.11 66.4022C16.51 66.4022 16.83 66.7222 16.83 67.1222ZM8.34 68.3622C8.34 68.7522 8.02 69.0722 7.63 69.0722C7.24 69.0722 6.92 68.7522 6.92 68.3622C6.92 67.9722 7.24 67.6522 7.63 67.6522C8.02 67.6522 8.34 67.9722 8.34 68.3622Z" fill="#CCCCCC"/>
</svg>
