<svg width="94" height="102" viewBox="0 0 94 102" fill="none" xmlns="http://www.w3.org/2000/svg">
<path d="M29.0816 101.773H27.3016C25.5016 101.193 24.3516 99.3826 24.6416 97.4026C24.9316 95.4226 26.5116 94.1226 28.5416 94.1926C30.4416 94.2526 32.1016 95.7326 32.1616 97.8726C32.2116 99.6526 31.0616 101.353 29.0816 101.773ZM30.5516 97.9826C30.5516 96.7726 29.5716 95.7926 28.3616 95.7926C27.1516 95.7926 26.1716 96.7726 26.1716 97.9826C26.1716 99.1926 27.1516 100.173 28.3616 100.173C29.5716 100.173 30.5516 99.1926 30.5516 97.9826ZM39.8916 94.3426L38.2716 94.3226L38.2916 98.4926L33.2616 94.1526L33.2016 101.523H34.8716L34.9216 97.4926L39.5616 101.773H39.9016V94.3326L39.8916 94.3426ZM63.5616 100.103C63.7616 99.0826 63.2116 98.2726 62.3716 97.7526L60.2016 96.4226C60.6316 95.4426 61.4416 95.5626 62.1116 96.3326L63.3816 95.2026C62.2416 94.1326 61.0716 93.9026 59.7516 94.5126C59.1616 94.7826 58.6316 95.7526 58.6916 96.3826C58.8816 98.3826 61.5716 98.2726 62.0316 99.6426C61.5316 100.583 60.4116 100.453 59.7016 99.4326L58.3716 100.703L60.2416 101.783H61.7916C62.6016 101.433 63.4316 100.813 63.5716 100.123L63.5616 100.103ZM82.0416 71.4626C75.0716 71.9226 68.3716 71.6626 61.3216 71.6526L12.0016 71.5626C9.66162 71.5626 7.61162 71.0926 5.36162 70.7326C4.37162 70.5726 3.37162 69.8526 2.67162 69.1126C6.70162 69.3126 10.4316 69.3526 14.1716 68.5026C11.5516 66.4326 9.70162 63.7726 8.44162 60.6926C7.72162 58.9426 6.83162 57.6526 4.92162 56.9326C4.36162 56.5426 3.16162 55.9026 2.89162 55.3026L2.41162 50.8526L5.25162 50.5326V16.8326L0.111621 10.5626C-0.0383793 9.47262 -0.0183792 8.08262 0.0616208 6.81262C13.6716 3.20262 25.3016 0.932625 39.3816 0.272625L42.8916 0.112625C45.8916 -0.0273753 48.8616 -0.0473753 51.8416 0.112625L54.8816 0.272625C60.3116 0.562625 65.5716 1.01262 70.9416 1.91262C77.5616 3.02262 83.8916 4.42262 90.4116 5.87262L93.5316 6.76262C94.3416 9.06262 93.4216 11.1326 91.7116 12.7126C90.3616 13.9626 89.4016 15.5426 88.3416 17.1526L88.4216 50.5326L91.3416 50.8926L90.7216 55.7426L87.1916 57.8526C86.7016 58.2426 86.1216 58.8726 85.8816 59.4926C84.5016 63.0026 82.5216 65.8526 79.8116 68.5926C83.5716 69.4926 86.9116 69.2426 90.7416 69.3926C88.0916 71.0326 85.0516 71.2626 82.0316 71.4726L82.0416 71.4626ZM91.6816 9.67262L91.6616 8.10262C61.6016 4.67262 31.9616 4.65262 1.99162 8.15262L2.05162 9.66262C32.0216 8.33262 61.7616 8.36262 91.6716 9.66262L91.6816 9.67262ZM56.3916 18.9426C57.9416 19.5026 58.9716 20.6426 59.2716 22.2226L62.1616 22.1626C62.4716 21.4926 62.8616 20.5526 63.2516 20.2226L66.7116 17.3626C70.4216 14.3026 78.2416 14.5726 80.7116 19.0926C82.2816 19.3726 83.1816 20.5826 83.2816 22.1826L86.3916 22.1326V13.5626C59.8316 11.5426 33.6816 11.5326 7.26162 13.5926V22.1626L10.3416 22.1726C10.2116 20.3926 11.6816 19.8426 12.6216 18.9026C15.2016 16.3426 18.2316 14.9326 21.9816 15.4426C23.7916 15.6826 25.6216 16.1326 26.9716 17.4326C27.9116 18.3426 28.8416 18.9726 29.9616 19.7626C30.5916 20.2026 31.0616 21.3926 31.4116 22.1626H34.4616C34.5416 20.7126 35.1716 20.1026 36.2616 19.5426C37.0216 19.1526 37.7316 18.3426 38.3716 17.7226C43.0016 13.2726 52.1616 13.5026 56.3716 18.9326L56.3916 18.9426ZM9.99162 23.9426H7.31162V38.6626H9.99162V23.9426ZM31.6216 23.9426V38.6226H34.1816V23.9426H31.6216ZM62.1116 23.9526H59.4616V38.6226H62.1116V23.9526ZM83.7616 23.9526V38.6626H86.3016V23.9526H83.7616ZM37.6216 50.3026L36.0416 64.2226L37.8816 64.2826L39.4416 52.6826L40.1816 48.1826V37.4026C39.9216 37.1026 39.3816 36.7626 39.0416 36.7026C38.7016 36.6426 37.9016 37.0226 37.8716 37.3626L37.6916 39.6626H7.27162L7.30162 50.7126H36.9416C37.2116 47.5026 36.5216 44.3826 37.3316 41.1326C38.1916 44.1826 37.9716 47.1626 37.6216 50.2926V50.3026ZM56.8316 42.0326V50.7026H86.3816V39.6726H55.9216L55.8016 37.2726C55.7816 36.9426 54.8316 36.6526 54.5116 36.7426C54.2416 36.8226 53.8616 37.1226 53.5916 37.4326L53.6216 48.6826L55.9816 64.3026L57.7516 64.3226L56.1116 50.4226C55.7716 47.5026 55.8516 44.3226 56.1516 41.5526C56.3016 41.3826 56.8316 41.7526 56.8316 42.0426V42.0326ZM52.6116 53.4226L52.3616 51.4826H41.4216L41.1316 53.4326H52.6116V53.4226ZM35.9416 54.7726C36.2216 53.7226 36.3116 53.1826 36.3716 52.3526H4.19162L4.55162 54.7326L35.9416 54.7726ZM89.2216 54.7326L89.5516 52.3526H57.3816C57.3816 53.2226 57.5116 53.9226 57.8916 54.7726L89.2216 54.7326ZM53.1716 57.5026L52.9216 55.5926H40.7516L40.6016 57.5026H53.1716ZM53.8516 61.9626L53.5016 60.0926H40.2016L39.9316 61.9726H53.8516V61.9626ZM54.6016 66.4726L54.3216 64.6026H39.4916L39.2516 66.4726H54.6016ZM24.5816 84.5926C24.5816 87.5826 22.1516 90.0126 19.1616 90.0126C16.1716 90.0126 13.7416 87.5826 13.7416 84.5926C13.7416 81.6026 16.1716 79.1726 19.1616 79.1726C22.1516 79.1726 24.5816 81.6026 24.5816 84.5926ZM22.2716 84.5826C22.2716 82.8626 20.8816 81.4726 19.1616 81.4726C17.4416 81.4726 16.0516 82.8626 16.0516 84.5826C16.0516 86.3026 17.4416 87.6926 19.1616 87.6926C20.8816 87.6926 22.2716 86.3026 22.2716 84.5826ZM72.0816 84.5926C72.0816 87.5926 69.6516 90.0126 66.6616 90.0126C63.6716 90.0126 61.2416 87.5826 61.2416 84.5926C61.2416 81.6026 63.6716 79.1726 66.6616 79.1726C69.6516 79.1726 72.0816 81.6026 72.0816 84.5926ZM69.7516 84.5826C69.7516 82.8626 68.3616 81.4726 66.6416 81.4726C64.9216 81.4726 63.5316 82.8626 63.5316 84.5826C63.5316 86.3026 64.9216 87.6926 66.6416 87.6926C68.3616 87.6926 69.7516 86.3026 69.7516 84.5826ZM12.2016 79.3626L9.94162 79.3426L9.91162 83.8326H4.96162V79.3526H2.67162V89.7826L4.96162 89.8026V86.0526H9.93162V89.8026L12.2016 89.7626V79.3626ZM60.4216 86.4826C60.5316 88.1026 59.4616 89.7026 57.7916 89.7326L52.8516 89.8126V79.3326L57.5116 79.4326C58.5916 79.4526 59.6016 80.5126 59.7816 81.2726C60.0516 82.4326 59.6216 83.4526 58.5516 84.2026C59.6016 84.5426 60.3216 85.1326 60.4116 86.4826H60.4216ZM56.9816 83.3126C57.3616 83.2626 57.6816 82.3126 57.5716 82.0126C57.4616 81.7126 56.9016 81.2326 56.5616 81.2126L55.1016 81.1526V83.5826L56.9916 83.3126H56.9816ZM57.1916 87.8726C57.6116 87.8326 58.1516 87.0926 58.1616 86.7026C58.1716 86.3126 57.6816 85.4926 57.2816 85.4526L55.1016 85.2526V88.0526L57.1916 87.8726ZM32.6316 85.5426C32.6216 86.8526 31.5916 87.6826 30.5016 87.7326C29.6016 87.7726 28.2116 87.2926 28.2016 86.0526L28.1316 79.3426L25.8316 79.3626L25.8816 86.0626C25.9016 88.3026 27.6816 89.7826 29.7916 89.9826C32.1016 90.2026 34.6616 88.8326 34.8316 86.2826C34.9916 83.9626 34.9116 81.7126 34.9216 79.3426L32.6916 79.3626L32.6416 85.5326L32.6316 85.5426ZM50.3716 83.8226H46.9016V81.5426L51.1116 81.5626V79.3426H44.6616V89.7926H51.1016V87.6026H46.9016L46.9216 85.8526H50.3816L50.3616 83.8226H50.3716ZM79.8116 88.3026L75.2616 88.2826L74.5416 89.8126L72.1816 89.7526L77.5516 79.0926L82.9016 89.7026L80.5516 89.8326L79.8316 88.2926L79.8116 88.3026ZM78.9016 86.2626L77.5116 83.2526L76.1416 86.2826L78.9016 86.2626ZM43.2816 86.9426C43.2816 86.1226 42.7916 84.9826 41.9716 84.5226L39.2116 82.9726C38.9516 82.8326 38.5816 82.2926 38.6116 82.0026C38.6416 81.7626 39.2016 81.3626 39.4416 81.3626C40.1116 81.3626 40.7616 81.7726 41.2816 82.2926L42.9216 80.6826C41.5116 79.1026 39.3216 78.7126 37.5916 79.7826C36.7516 80.3026 36.3016 81.2926 36.3216 82.2226C36.3316 82.9226 36.8316 83.9826 37.5716 84.4026L40.3216 85.9426C40.5916 86.0926 40.9716 86.6526 40.9716 86.9426C40.9716 87.2326 40.4316 87.7426 40.1016 87.7726C39.1116 87.8726 38.1916 87.4126 37.5516 86.6026L35.9216 88.1926C37.2516 89.8826 39.7816 90.6426 41.8716 89.4326C42.8016 88.8926 43.2816 87.8126 43.2816 86.9426ZM87.7616 81.5726H91.0916L91.0616 79.3526H82.2416L82.2116 81.5826H85.5316V89.8026L87.7716 89.7826V81.5726H87.7616ZM79.0716 101.543L80.6516 101.513L80.6016 94.2026L76.6816 97.7226L72.8316 94.2126L72.7916 101.523H74.3416L74.3916 97.6826L76.6816 99.7326L79.0016 97.7026L79.0616 101.533L79.0716 101.543ZM71.2916 94.3026L69.6216 94.3226V97.4826H66.1616V94.3326H64.5916V101.523L66.1616 101.533V99.0326H69.6216V101.553L71.2916 101.513V94.3126V94.3026ZM9.41162 94.3226H7.75162V97.4826L4.24162 97.4626V94.2826L2.66162 94.4126V101.503L4.24162 101.533V99.0226H7.74162V101.543L9.40162 101.503V94.3226H9.41162ZM88.8016 100.553L88.2416 99.6626C88.0816 99.4126 87.1116 99.5626 87.0116 99.6926V101.533H85.3216V94.2926L88.7716 94.3726C89.8016 94.3926 90.6216 95.5126 90.7416 96.2426C90.9316 97.3826 90.6716 98.3326 89.7116 99.1426L91.0216 101.523H89.5216C89.2116 101.513 89.0116 100.883 88.8016 100.563V100.553ZM88.6816 97.9226C89.1116 97.7526 89.3316 96.6526 89.0616 96.3026C88.7216 95.8726 88.0016 95.7126 87.0316 95.7426L86.9916 98.2426L88.6816 97.9226ZM50.4116 94.3326L48.5616 94.4126L46.0616 97.9726V94.3026L44.4116 94.3426V101.533L46.0516 101.553L46.1316 98.2426L48.8316 101.583L50.6616 101.503L47.7716 97.8626L50.4116 94.3526V94.3326ZM56.1216 100.583H52.9416C52.7916 100.943 52.6516 101.513 52.3916 101.513L50.8716 101.483L54.5516 94.1626L58.2516 101.463L56.8216 101.533C56.5516 101.543 56.3516 101.043 56.1216 100.583ZM55.4816 99.1126L54.5216 97.0026L53.6016 99.1426L55.4716 99.1026L55.4816 99.1126ZM22.0716 95.9126L24.4116 95.8826V94.3026H18.1716L18.2716 95.9026H20.4716V101.523L22.0916 101.483L22.0716 95.9126ZM15.6916 100.063V94.3326L14.0616 94.3026V101.533H18.6716V100.043L15.6816 100.053L15.6916 100.063ZM10.9416 94.3026V101.533H12.5216V94.3026H10.9416ZM82.1916 101.533H83.7716V94.3026H82.1916V101.533ZM24.7716 42.3526C24.9516 42.4826 25.3816 43.0526 25.5416 42.9126L26.2916 42.2726C26.4916 42.1026 27.0016 41.6626 27.2416 41.7726C27.4416 41.8626 27.7616 42.1626 27.9616 42.3726L28.5516 42.9826C28.7816 43.2226 29.2116 42.2326 30.0616 41.8726C30.6216 41.6326 31.3116 43.1726 32.0116 42.9726C32.7116 42.7726 33.3016 41.4326 33.8716 42.0026L34.7016 42.8226C35.2516 43.0826 36.2816 42.2326 36.4216 41.4626H9.13162C8.79162 41.4626 9.13162 42.4726 9.46162 42.6126C9.71162 42.7126 10.2016 42.4626 10.4616 42.2526L11.0816 41.7626C11.2516 41.6326 11.7316 42.6626 12.5816 42.9426C12.9916 43.0726 13.9816 41.4926 14.2916 41.7626L15.0216 42.4026C15.2616 42.6126 15.6016 42.8926 15.8316 42.9526C16.3816 43.0926 16.9516 41.7426 17.5616 41.9026C18.3016 42.0926 18.6116 43.0026 19.2816 42.9326C19.9116 42.8626 20.6416 41.5226 21.0116 41.7926L21.7816 42.3526L22.5316 42.9026C22.6616 42.9926 23.6616 41.6126 24.0516 41.8826L24.7616 42.3826L24.7716 42.3526ZM20.8616 49.4626C20.0416 49.1226 19.4516 48.2126 19.1316 48.4726L18.4916 48.9826C18.2516 49.1726 17.8316 49.4926 17.5816 49.5026C16.9116 49.5326 16.7016 48.7826 15.8516 48.5826C15.6516 48.5326 15.3416 48.8826 15.1216 49.1326C14.1916 50.2026 13.2516 48.5826 12.6016 48.4926C12.0916 48.4226 11.1916 49.8926 10.6116 49.3726L9.57162 48.4426L8.98162 49.8726H36.4016C36.4816 49.2726 36.0516 48.7926 35.4716 48.6726C34.4416 48.4626 33.8616 50.2026 32.8316 49.0426C32.5816 48.7626 32.1116 48.3926 31.8516 48.4626C31.0916 48.6426 30.5916 49.6626 30.3216 49.4726L29.6216 48.9726L28.8516 48.4726C28.5816 48.3026 27.6316 49.6426 27.1016 49.4526C26.3216 49.1726 25.7416 48.2726 25.4216 48.5126L24.7816 48.9926L24.0816 49.4726C23.9216 49.5826 23.5716 49.2526 23.1916 48.8726C22.3916 48.0826 21.6216 49.7826 20.8816 49.4626H20.8616ZM31.5316 43.3326C31.2316 43.4126 30.9016 44.0326 30.9116 44.3926L30.9716 47.3226C30.9716 47.6426 31.5116 48.1926 31.7916 48.1926C32.8616 48.1926 33.2316 45.9426 32.6616 44.0126C32.5616 43.6926 31.8316 43.2526 31.5416 43.3326H31.5316ZM19.9216 43.8026C19.8316 43.5326 19.1316 43.1326 18.8916 43.2526C18.6516 43.3726 18.3016 43.8826 18.2916 44.1526L18.2416 46.2226C18.2216 46.9726 18.5816 48.0026 19.3716 48.1026C20.4016 47.4626 20.3816 45.2226 19.9216 43.8126V43.8026ZM26.3416 44.1626C26.3416 43.9226 25.7916 43.4026 25.5616 43.3526C24.3416 43.1426 24.3616 48.6726 25.7916 48.1426C25.9916 48.0726 26.4116 47.5626 26.4116 47.3426L26.3416 44.1526V44.1626ZM23.3216 44.1526C23.3216 43.8926 22.8216 43.2926 22.5716 43.2526C22.3216 43.2126 21.7516 43.7926 21.7416 44.0726L21.6516 47.2126C21.6516 47.5426 22.0316 48.0826 22.3016 48.1726C22.5716 48.2626 23.3316 47.7826 23.3216 47.4426V44.1526ZM11.9116 44.1526V47.4426C11.9116 47.6926 12.3316 48.1926 12.5716 48.2026C14.1216 48.2526 14.0116 43.0226 12.5916 43.3126C12.3316 43.3626 11.9116 43.8726 11.9116 44.1526ZM16.7816 45.4026C16.7316 44.6626 16.6716 43.6526 16.2316 43.2126C14.7016 43.5326 14.4716 46.8426 15.7616 48.1626C16.9516 47.5726 16.8616 46.6426 16.7816 45.4126V45.4026ZM35.7916 44.1926C35.7916 43.9226 35.2716 43.3826 35.0416 43.3326C34.8116 43.2826 34.2516 43.8826 34.2516 44.1426L34.1916 47.3626C34.1916 47.6726 34.7316 48.2526 35.0016 48.2026C35.2316 48.1626 35.8016 47.6026 35.8016 47.3726V44.2026L35.7916 44.1926ZM28.7816 43.4226C28.0316 43.0226 27.6416 45.0126 27.9616 47.5926C28.0116 48.0126 29.2516 48.3526 29.3016 47.9526C29.5516 45.8926 29.7416 43.9226 28.7816 43.4226ZM10.4016 43.8626C10.3816 43.6726 9.70162 43.2126 9.61162 43.3826C8.96162 44.5226 9.04162 46.4626 9.44162 48.0026C9.53162 48.3326 10.4716 47.7626 10.4716 47.3926C10.5016 46.2826 10.4816 44.8026 10.4016 43.8626ZM73.9016 42.3626C74.1416 42.5426 74.4816 42.8026 74.6916 42.8426C75.0216 42.9126 75.9916 41.5826 76.1916 41.7726L76.8816 42.4026C77.0916 42.5926 77.6416 43.0526 77.9016 42.9326C78.1216 42.8326 78.4316 42.5526 78.7016 42.3326L79.4016 41.7426C79.6216 41.5626 80.4316 42.9726 80.9316 42.9226C81.2016 42.8926 81.6716 42.5626 81.9416 42.3726L82.6316 41.8826C82.7516 41.8026 83.0916 42.1526 83.2016 42.2526L84.1116 43.0226C84.4916 42.5326 84.6916 42.0826 84.7416 41.4526H57.3516L58.1716 42.6126C58.2716 42.7526 58.7916 43.0126 58.9316 42.8926L59.5516 42.3326C59.6916 42.2026 60.0516 41.9626 60.2216 41.8726C60.5816 41.7026 61.3816 43.2426 61.9416 42.9826C62.1616 42.8826 62.5416 42.5826 62.7716 42.3726L63.4616 41.7526C63.6316 41.6026 64.1016 42.5626 64.9616 42.9326C65.3616 43.1026 65.8916 41.8926 66.4516 41.7626C66.8816 41.6626 67.8316 43.1426 68.1516 42.8726L68.9016 42.2326C69.0616 42.0926 69.4916 41.5926 69.6516 41.7326L70.2616 42.2526C70.5516 42.4926 70.9316 42.8326 71.1916 42.9126C71.7216 43.0726 72.6816 41.4826 73.0816 41.7726L73.8816 42.3526L73.9016 42.3626ZM79.4316 49.5126C78.7716 49.6226 78.0416 48.2126 77.7116 48.4526L76.9116 49.0326C76.7416 49.1526 76.3516 49.7026 76.1716 49.5926L75.3916 49.1226L74.7016 48.6526C74.5816 48.5726 74.2116 48.8626 74.1016 48.9826C73.5516 49.5726 72.6016 49.6426 72.0316 48.9426C71.8816 48.7626 71.4216 48.3826 71.2216 48.4726C70.3516 48.8626 69.8416 49.7326 69.4916 49.4526L68.8016 48.8926C68.6316 48.7526 68.2116 48.3626 68.0516 48.4926L67.3916 49.0126C67.1816 49.1826 66.7316 49.4326 66.4916 49.4726C66.0816 49.5326 65.2316 48.2326 64.7616 48.5626L64.0216 49.0826C63.8916 49.1726 63.6016 49.7026 63.4816 49.5926L62.9116 49.0726C62.6716 48.8526 62.0616 48.5126 61.7416 48.5226C61.4816 48.5226 61.1216 48.8426 60.7816 49.1726C59.8416 50.0826 59.3216 48.5426 58.3416 48.7226C57.9316 48.8026 57.4216 49.1526 57.3116 49.8626H84.7916C84.6916 49.4026 84.4016 48.6426 84.1516 48.7126C83.9416 48.7726 83.5616 48.9926 83.3216 49.1526L82.6816 49.5726C82.4716 49.7126 81.7316 48.4526 81.1716 48.5326C80.3816 48.6526 80.2716 49.3626 79.4416 49.5026L79.4316 49.5126ZM62.7616 44.3726C62.7616 44.0026 62.3116 43.4126 61.9716 43.3426C61.6316 43.2726 60.8816 43.8226 60.8816 44.1826V47.0926C60.8916 47.4326 61.5516 48.0326 61.7816 48.1826C62.2716 47.8126 62.8016 47.1726 62.7916 46.7426L62.7616 44.3826V44.3726ZM81.9416 44.1226C81.9416 43.8126 81.2716 43.2626 80.9716 43.3426C79.6416 43.7026 79.6516 48.0326 81.1916 48.1926C81.4716 48.2226 81.9716 47.6126 81.9616 47.3026L81.9416 44.1226ZM72.1316 44.2226C72.1216 43.8726 71.2716 43.2326 70.9816 43.4026C70.7316 43.5426 70.3116 44.1126 70.3116 44.4126L70.4016 47.3426C70.4116 47.6826 71.1316 48.2126 71.4616 48.1626C71.7416 48.1226 72.2416 47.4626 72.2316 47.1626L72.1316 44.2126V44.2226ZM65.7916 43.8126C65.7916 43.6226 65.1716 43.2726 65.0016 43.3726C63.9616 43.9826 64.1116 44.7926 64.0616 46.1726C64.0316 47.0126 64.2716 47.6026 64.9516 48.1526C65.1216 48.0626 65.8316 47.3726 65.8316 47.0126L65.7916 43.8026V43.8126ZM74.5116 43.3726C74.3516 43.4826 73.9016 43.8626 73.8916 44.0626L73.7016 46.4326C73.6416 47.2026 74.0816 48.2826 74.8516 48.2026C76.2316 46.2126 75.3316 42.8426 74.5116 43.3726ZM78.6116 45.6726C78.5916 44.6926 78.6116 43.9626 77.7616 43.2426C76.4316 43.9726 76.3916 47.1326 77.6416 48.1726C78.5716 47.6126 78.6316 46.7626 78.6116 45.6726ZM59.6116 45.9326C59.6216 45.1326 59.6116 43.7026 58.9016 43.5226C57.3016 43.7126 57.6616 47.9326 58.6516 47.9526C59.7016 47.9826 59.6116 46.6226 59.6216 45.9326H59.6116ZM68.8616 44.1626C68.8616 43.8726 68.4516 43.3826 68.2016 43.3126C66.6916 42.8726 67.0716 48.7726 68.1616 48.1426C68.3516 48.0326 68.8116 47.4926 68.8116 47.2526L68.8516 44.1626H68.8616ZM84.5016 44.0526C84.5016 43.8526 84.1216 43.3026 83.9616 43.3926C82.8216 44.0026 83.1916 45.7026 83.3416 47.7026L84.0616 48.1226C84.1716 48.1826 84.5116 47.5226 84.5116 47.3926V44.0526H84.5016Z" fill="#CCCCCC"/>
</svg>
