<svg width="142" height="176" viewBox="0 0 142 176" fill="none" xmlns="http://www.w3.org/2000/svg">
<g clip-path="url(#clip0_1226_503)">
<path d="M112.8 102.65V20.4L86.13 20.35L105.71 0.72H141.51V102.65H112.8ZM0.32 102.09L29.16 102.13L29.3 0.04L0.46 0L0.32 102.09ZM44.85 56.49L101.02 0.32L68.24 0.24L54.53 14.35L32.74 36.4L32.82 68.81L44.85 56.48V56.49ZM110.35 102.48L64.77 41.76L47.42 58.97L79.74 102.54L110.34 102.48H110.35ZM0 175.32H141.66V171.48H0V175.32ZM141.49 117.08L134.43 117.06L134.34 130.45L123.23 117.09L117.19 117.07V142.46L124.24 142.47L124.3 128.97L135.5 142.45L141.49 142.43V117.08ZM62.51 117.07L55.39 117.05V126.57H45.62V117.05L38.38 117.1V142.46L45.62 142.48V132.6H55.4V142.49L62.52 142.42V117.07H62.51ZM14.97 128.24L25.23 117.13L17.28 117.11L7.73 127.36L7.56 117.03L0.44 117.11V142.46L7.62 142.5L7.65 135.96L10.23 133.23L17.53 142.5L25.82 142.41L14.96 128.24H14.97ZM104.6 142.36L97.15 142.52L95.17 137.48L84.45 137.45L82.44 142.47L75.08 142.45L86.26 117.09L93.42 117.07L104.6 142.36ZM93.01 132.17L89.8 124.17L86.55 132.16H93.01V132.17ZM105.62 159.16L99.45 159.43V148.51L104.99 148.64C107.82 148.71 109.6 151.15 109.77 153.5C109.94 155.86 108.67 159.03 105.62 159.16ZM108.64 153.55C108.47 151.53 106.87 149.66 104.53 149.59L100.7 149.47V158.43L105.18 158.22C107.74 158.1 108.79 155.44 108.64 153.55ZM26.14 159.4L26.93 159.13L26.61 147.93L21.13 156.55C19.32 153.42 18.11 150.94 15.71 148.02L15.73 159.35L16.55 159.33L16.68 150.99L21.18 158.44L25.59 151.02L26.15 159.4H26.14ZM37.62 159.22L30.42 159.45V148.52L36.64 148.64C37.4 148.64 38.71 149.78 38.93 150.45C39.2 151.31 38.69 152.68 37.82 153.85C38.52 154.44 39.46 155.45 39.62 156.3C39.79 157.22 38.56 159.19 37.62 159.22ZM31.55 153.45L36.09 153.37C36.96 153.36 37.96 152.02 37.8 151.15C37.69 150.51 36.56 149.51 35.83 149.5L31.59 149.48L31.55 153.45ZM38.46 156.33C38.38 155.63 37.27 154.46 36.51 154.44L31.57 154.33V158.45L36.71 158.4C37.42 158.4 38.53 157 38.46 156.33ZM85.72 159.4C82.72 159.51 83.86 154.59 78.12 156.26C78.4 157.86 78.83 159.13 77.04 159.71L76.97 148.54L82.14 148.58C83.86 148.6 85.4 150.24 85.56 151.57C85.81 153.5 84.97 155.02 83.11 155.72L85.72 159.4ZM84.5 152.06C84.45 151.08 83.22 149.62 82.16 149.59L78.24 149.46L78.27 155.1L82.07 154.93C83.49 154.86 84.56 153.4 84.5 152.06ZM131.58 159.37C128.62 159.53 129.64 154.54 124.05 156.29C124.21 157.83 124.7 159.17 122.91 159.69L122.84 148.54L127.98 148.58C129.71 148.6 131.27 150.23 131.44 151.57C131.69 153.51 130.81 155.02 128.96 155.72L131.58 159.37ZM130.36 152.05C130.32 151.09 129.06 149.61 128.01 149.58L124.12 149.47L124.14 155.09L127.93 154.93C129.36 154.87 130.42 153.41 130.36 152.05ZM58.75 155.75L61.14 159.11L60.21 159.5L57.64 156.08L53.82 156.02C53.83 157.49 53.91 158.51 52.73 159.67L52.58 148.54L57.82 148.59C59.48 148.6 61.02 150.27 61.16 151.57C61.36 153.49 60.63 154.94 58.75 155.75ZM60.1 152.07C60.04 151.13 58.83 149.62 57.84 149.59L53.76 149.47L53.78 155.11L57.61 154.94C59.06 154.87 60.17 153.36 60.1 152.07ZM97.58 159.42C95.89 159.38 95.65 158.42 95.5 156.57L88.88 156.55C88.47 158.01 88.46 159.06 86.64 159.36L91.13 149.23C91.26 148.95 91.91 148.37 92.18 148.46C92.44 148.54 92.93 149.01 93.05 149.29L97.58 159.42ZM94.64 155.49L92.09 149.81L89.46 155.58L94.64 155.49ZM48.69 153.23L43.31 153.35V149.52L49.83 149.45V148.61L42.22 148.55V159.44L49.83 159.26V158.46L43.27 158.32L43.32 154.42L48.93 154.08L48.7 153.24L48.69 153.23ZM118.86 153.22L113.58 153.34V149.52L120 149.43V148.6L112.5 148.54V159.41L120 159.26V158.46L113.56 158.32L113.6 154.42L119.1 154.07L118.86 153.23V153.22ZM141.2 155.87C141.02 155.23 140.06 154.25 139.39 154.05L135.67 152.96C135.24 152.83 134.52 152.02 134.44 151.58C134.36 151.14 134.96 150.01 135.41 149.81C136.9 149.16 139.08 149.69 140.89 150.2C139.67 147.9 136.54 148.13 134.55 149.15C133.83 149.52 133.2 151.22 133.37 152C133.51 152.65 134.45 153.72 135.14 153.92L138.84 155.03C139.27 155.16 140 155.9 140.14 156.32C140.28 156.74 139.67 157.89 139.25 158.09C137.43 158.94 135.22 158.07 132.9 157.6C134.5 159.88 137.47 160 140 158.83C140.79 158.47 141.42 156.61 141.2 155.87ZM71.33 149.56L75.09 149.4V148.58H66.19V149.42L70.18 149.55L70.3 159.13C70.11 159.42 71.22 159.06 71.37 158.72L71.33 149.57V149.56ZM8.67 149.43V148.58H0.23V149.41L3.92 149.54L4.02 159.32H4.83L5.03 149.47L8.66 149.43H8.67ZM10.99 148.56V159.32H11.93V148.56H10.99Z" fill="#CCCCCC"/>
</g>
<defs>
<clipPath id="clip0_1226_503">
<rect width="141.66" height="175.32" fill="white"/>
</clipPath>
</defs>
</svg>
