<svg width="59" height="50" viewBox="0 0 59 50" fill="none" xmlns="http://www.w3.org/2000/svg">
<g clip-path="url(#clip0_621_2157)">
<path d="M3.05872 22.7901C5.34369 25.7212 8.23116 27.8003 11.8576 28.6183C16.6094 29.6976 20.7701 28.4251 24.226 25.0623C27.0793 22.2788 29.7622 19.3249 32.5815 16.5074C35.0142 14.0648 37.4924 11.6676 40.0389 9.32721C44.552 5.16907 49.7699 4.07841 55.6017 6.00979C55.8063 6.07795 56.0223 6.1234 56.477 6.24837C54.6922 3.47627 52.3845 1.78347 49.5539 0.874589C43.6653 -1.01135 38.4246 0.158843 34.0138 4.54421C29.2506 9.27041 24.5215 14.0307 19.7924 18.7796C15.1429 23.449 9.72037 24.96 3.38839 22.8696C3.28608 22.8355 3.1724 22.8241 3.07008 22.8014L3.05872 22.7901Z" fill="#CCCCCC"/>
<path d="M46.1069 7.69136C49.2104 8.74794 50.9611 10.6339 51.3703 13.5764C51.7227 16.1326 50.7678 18.2571 48.7557 19.859C45.9933 22.0404 42.2532 21.7563 39.6499 19.2115C38.4676 18.064 37.3195 16.8825 36.285 15.8486C34.4206 17.5528 32.6017 19.2115 30.7715 20.8929C34.7276 25.6305 39.036 29.3228 45.5613 28.8456C54.9285 28.164 61.2605 19.0411 58.248 9.78179C58.1684 9.54321 58.032 9.23646 57.8387 9.12285C54.2464 7.00969 50.4609 6.32803 46.1183 7.70272L46.1069 7.69136Z" fill="#CCCCCC"/>
<path d="M22.6218 13.2013C23.0879 12.7923 23.2926 12.6219 23.4858 12.4401C25.0546 10.9177 26.612 9.4067 28.2149 7.85024C25.0432 4.40784 22.008 1.09041 17.2448 0.272413C11.8791 -0.659194 7.24092 0.806383 3.63726 4.885C-0.000507598 8.9977 -0.819005 13.8262 0.783885 19.0636C0.874829 19.359 1.10219 19.6998 1.36365 19.8475C4.84227 21.813 8.50277 22.5401 12.4134 21.3244C12.5043 21.2904 12.5953 21.2222 12.7885 21.1199C10.3444 20.3133 8.63918 18.825 7.87753 16.4165C6.94535 13.474 8.13899 10.3383 10.8105 8.61143C13.2773 7.02088 16.7446 7.23674 18.9272 9.27037C20.2118 10.4633 21.3486 11.8266 22.6218 13.1899V13.2013Z" fill="#CCCCCC"/>
<path d="M10.5732 32.6862V42.9338H8.62929L3.51369 36.7193V42.9338H1.17188V32.6862H3.13854L8.23141 38.912V32.6862H10.5732Z" fill="#CCCCCC"/>
<path d="M20.5208 39.6274H14.564C14.6663 40.116 14.9278 40.5022 15.3256 40.7863C15.7235 41.0703 16.2237 41.2066 16.8148 41.2066C17.2241 41.2066 17.5879 41.1498 17.9062 41.0248C18.2245 40.8999 18.52 40.7067 18.7929 40.4454L20.0093 41.7633C19.2703 42.6154 18.179 43.0358 16.758 43.0358C15.8713 43.0358 15.0869 42.8653 14.4048 42.5131C13.7227 42.1723 13.1998 41.6838 12.8247 41.0703C12.4495 40.4568 12.2676 39.7638 12.2676 38.9799C12.2676 38.1959 12.4495 37.5143 12.8133 36.8894C13.1771 36.2646 13.6773 35.7874 14.3253 35.4352C14.9619 35.0944 15.678 34.9126 16.4738 34.9126C17.2696 34.9126 17.9403 35.083 18.5655 35.4125C19.1908 35.742 19.6796 36.2191 20.032 36.844C20.3844 37.4688 20.5663 38.1846 20.5663 39.0026C20.5663 39.0367 20.5549 39.2412 20.5208 39.6161V39.6274ZM15.1665 37.1053C14.8141 37.4007 14.5981 37.7983 14.5185 38.3096H18.395C18.3154 37.8097 18.0994 37.412 17.747 37.1166C17.3946 36.8213 16.9626 36.6736 16.4624 36.6736C15.9622 36.6736 15.5075 36.8213 15.1551 37.1166L15.1665 37.1053Z" fill="#CCCCCC"/>
<path d="M26.8734 42.922L25.1455 40.5021L23.3607 42.922H20.8711L23.9064 38.957L20.9734 35.0488H23.5312L25.2023 37.3438L26.9189 35.0488H29.3516L26.4187 38.9002L29.4653 42.922H26.8734Z" fill="#CCCCCC"/>
<path d="M37.4696 37.6393H39.6409V41.7975C39.0839 42.2178 38.4359 42.536 37.7083 42.7632C36.9808 42.9904 36.2419 43.104 35.4916 43.104C34.423 43.104 33.4681 42.8768 32.6268 42.4223C31.7742 41.9679 31.1149 41.343 30.6261 40.5364C30.1372 39.7298 29.8985 38.8209 29.8985 37.8098C29.8985 36.7986 30.1372 35.8897 30.6261 35.0831C31.1035 34.2765 31.7856 33.6516 32.6382 33.1972C33.5022 32.7427 34.4684 32.5155 35.537 32.5155C36.4351 32.5155 37.2536 32.6632 37.9812 32.9699C38.7087 33.2767 39.334 33.7084 39.8228 34.2878L38.2995 35.6966C37.5719 34.924 36.6852 34.5378 35.6507 34.5378C34.9914 34.5378 34.4116 34.6741 33.9114 34.9468C33.3998 35.2194 33.0133 35.6057 32.7291 36.1056C32.4449 36.6055 32.3085 37.1735 32.3085 37.8211C32.3085 38.4687 32.4449 39.0254 32.7291 39.5139C33.0133 40.0138 33.3998 40.4001 33.9114 40.6727C34.4116 40.9454 34.9914 41.0931 35.628 41.0931C36.3101 41.0931 36.9239 40.9454 37.4696 40.65V37.6507V37.6393Z" fill="#CCCCCC"/>
<path d="M49.3486 39.6274H43.3918C43.4941 40.116 43.7556 40.5022 44.1535 40.7863C44.5513 41.0703 45.0515 41.2066 45.6427 41.2066C46.0519 41.2066 46.4157 41.1498 46.734 41.0248C47.0523 40.8999 47.3479 40.7067 47.6207 40.4454L48.8371 41.7633C48.0982 42.6154 47.0068 43.0358 45.5858 43.0358C44.6991 43.0358 43.9147 42.8653 43.2326 42.5131C42.5506 42.1723 42.0276 41.6838 41.6525 41.0703C41.2773 40.4568 41.0955 39.7638 41.0955 38.9799C41.0955 38.1959 41.2773 37.5143 41.6411 36.8894C42.0049 36.2646 42.5051 35.7874 43.1531 35.4352C43.7897 35.0944 44.5059 34.9126 45.3016 34.9126C46.0974 34.9126 46.7681 35.083 47.3933 35.4125C48.0186 35.742 48.5074 36.2191 48.8598 36.844C49.2122 37.4688 49.3941 38.1846 49.3941 39.0026C49.3941 39.0367 49.3827 39.2412 49.3486 39.6161V39.6274ZM44.0057 37.1053C43.6533 37.4007 43.4373 37.7983 43.3577 38.3096H47.2342C47.1546 37.8097 46.9386 37.412 46.5862 37.1166C46.2338 36.8213 45.8018 36.6736 45.3016 36.6736C44.8014 36.6736 44.3467 36.8213 43.9943 37.1166L44.0057 37.1053Z" fill="#CCCCCC"/>
<path d="M58.0685 35.8104C58.671 36.4011 58.9665 37.2646 58.9665 38.412V42.9224H56.6816V38.7642C56.6816 38.1394 56.5451 37.6736 56.2723 37.3668C55.9995 37.0601 55.6016 36.901 55.09 36.901C54.5103 36.901 54.0555 37.0828 53.7145 37.435C53.3735 37.7872 53.2029 38.3211 53.2029 39.0255V42.9224H50.918V35.0492H53.1006V35.9694C53.4076 35.6399 53.7827 35.3786 54.2261 35.1969C54.6808 35.0151 55.1696 34.9242 55.7039 34.9242C56.6816 34.9242 57.4659 35.2196 58.0685 35.799V35.8104Z" fill="#CCCCCC"/>
<path d="M1.90974 46.0806H2.62593L1.8529 49.9433H1.13672L1.90974 46.0806Z" fill="#CCCCCC"/>
<path d="M5.80815 47.2283C6.0014 47.3988 6.09235 47.6487 6.09235 47.9668C6.09235 48.0577 6.08098 48.1713 6.05824 48.319L5.72857 49.955H5.03512L5.35343 48.3417C5.36479 48.2736 5.37616 48.194 5.37616 48.1145C5.37616 47.7623 5.18291 47.5805 4.78503 47.5805C4.53493 47.5805 4.31894 47.6487 4.15979 47.7964C3.98926 47.9327 3.88695 48.1486 3.81874 48.4326L3.51181 49.955H2.81836L3.39813 47.0125H4.05747L3.98926 47.3419C4.25073 47.1034 4.59177 46.9784 5.00102 46.9784C5.33069 46.9784 5.59216 47.0693 5.78541 47.2397L5.80815 47.2283Z" fill="#CCCCCC"/>
<path d="M9.58158 47.2283C9.77484 47.3988 9.86579 47.6487 9.86579 47.9668C9.86579 48.0577 9.85442 48.1713 9.83168 48.319L9.50201 49.955H8.80856L9.12686 48.3417C9.13823 48.2736 9.1496 48.194 9.1496 48.1145C9.1496 47.7623 8.95634 47.5805 8.55846 47.5805C8.30837 47.5805 8.09237 47.6487 7.93322 47.7964C7.7627 47.9327 7.66039 48.1486 7.59218 48.4326L7.28525 49.955H6.5918L7.17157 47.0125H7.83091L7.7627 47.3419C8.02417 47.1034 8.36521 46.9784 8.77446 46.9784C9.10413 46.9784 9.36559 47.0693 9.55885 47.2397L9.58158 47.2283Z" fill="#CCCCCC"/>
<path d="M11.1176 49.8184C10.9016 49.7048 10.7311 49.5571 10.6174 49.364C10.5038 49.1708 10.4355 48.9436 10.4355 48.6823C10.4355 48.3529 10.5151 48.0575 10.6629 47.7962C10.8107 47.5349 11.0153 47.3304 11.2881 47.1827C11.561 47.035 11.8565 46.9554 12.1862 46.9554C12.4704 46.9554 12.7205 47.0122 12.9365 47.1145C13.1525 47.2167 13.323 47.3758 13.4367 47.5689C13.5504 47.7621 13.6186 47.9893 13.6186 48.2506C13.6186 48.5801 13.539 48.8755 13.3912 49.1368C13.2434 49.3981 13.0275 49.6026 12.766 49.7503C12.5045 49.898 12.1976 49.9775 11.8679 49.9775C11.5837 49.9775 11.3336 49.9207 11.1176 49.8184ZM12.4363 49.2504C12.5841 49.1595 12.7091 49.0232 12.8001 48.8641C12.891 48.6937 12.9365 48.5119 12.9365 48.296C12.9365 48.0688 12.8683 47.887 12.7319 47.7507C12.5955 47.6257 12.4022 47.5576 12.1635 47.5576C11.9702 47.5576 11.7997 47.603 11.6406 47.6939C11.4928 47.7848 11.3677 47.9211 11.2768 48.0802C11.1858 48.2506 11.1404 48.4324 11.1404 48.6482C11.1404 48.8755 11.2086 49.0572 11.345 49.1936C11.4814 49.3185 11.6747 49.3867 11.9134 49.3867C12.1066 49.3867 12.2772 49.3413 12.4363 49.2504Z" fill="#CCCCCC"/>
<path d="M17.2337 47.0007L15.3807 49.9432H14.6645L13.9824 47.0007H14.6645L15.1533 49.1934L16.5289 47.0007H17.2223H17.2337Z" fill="#CCCCCC"/>
<path d="M20.4624 47.0009L19.8827 49.9434H19.2233L19.2802 49.6366C19.0187 49.8639 18.7004 49.9775 18.3253 49.9775C18.0865 49.9775 17.8592 49.9207 17.6659 49.8184C17.4726 49.7162 17.3135 49.5685 17.1998 49.364C17.0861 49.1708 17.0293 48.9323 17.0293 48.671C17.0293 48.3415 17.0975 48.0461 17.2453 47.7848C17.3931 47.5235 17.5863 47.319 17.8364 47.1713C18.0865 47.0236 18.3707 46.9554 18.689 46.9554C19.1551 46.9554 19.4962 47.1145 19.6894 47.4212L19.769 46.9895H20.4624V47.0009ZM19.0187 49.2504C19.1665 49.1595 19.2915 49.0232 19.3825 48.8641C19.4734 48.6937 19.5189 48.5119 19.5189 48.296C19.5189 48.0688 19.4507 47.887 19.3143 47.7507C19.1779 47.6257 18.9846 47.5576 18.7459 47.5576C18.5526 47.5576 18.3821 47.603 18.2229 47.6939C18.0752 47.7848 17.9501 47.9211 17.8592 48.0802C17.7682 48.2506 17.7227 48.4324 17.7227 48.6482C17.7227 48.8755 17.791 49.0572 17.9274 49.1936C18.0638 49.3299 18.257 49.3867 18.4958 49.3867C18.689 49.3867 18.8595 49.3413 19.0187 49.2504Z" fill="#CCCCCC"/>
<path d="M21.7467 48.9552C21.7467 49.012 21.7467 49.0574 21.7467 49.0802C21.7467 49.296 21.8604 49.4096 22.0991 49.4096C22.2469 49.4096 22.372 49.3755 22.4856 49.296L22.6107 49.8073C22.4288 49.9209 22.1901 49.989 21.8945 49.989C21.6444 49.989 21.4398 49.9209 21.2806 49.7845C21.1215 49.6482 21.0533 49.4551 21.0533 49.2051C21.0533 49.1256 21.0533 49.0461 21.076 48.9779L21.3602 47.5919H20.8828L20.9964 47.0352H21.4739L21.6103 46.3649H22.3038L22.1673 47.0352H22.9631L22.8494 47.5919H22.0537L21.7808 48.9779L21.7467 48.9552Z" fill="#CCCCCC"/>
<path d="M23.7028 47.0009H24.3963L23.8165 49.9434H23.123L23.7028 47.0009ZM23.9074 46.3987C23.8279 46.3192 23.7938 46.2283 23.7938 46.1261C23.7938 46.0011 23.8392 45.8988 23.9188 45.808C24.0098 45.7284 24.1234 45.683 24.2598 45.683C24.3849 45.683 24.4758 45.7171 24.5554 45.7852C24.635 45.8534 24.6691 45.9443 24.6691 46.0465C24.6691 46.1829 24.6236 46.2965 24.544 46.376C24.4531 46.4555 24.3394 46.501 24.203 46.501C24.078 46.501 23.987 46.4669 23.9074 46.3874V46.3987Z" fill="#CCCCCC"/>
<path d="M28.0579 47.0007L26.2049 49.9432H25.4887L24.8066 47.0007H25.4887L25.9775 49.1934L27.3531 47.0007H28.0465H28.0579Z" fill="#CCCCCC"/>
<path d="M30.8524 48.6711H28.5106C28.5106 49.1482 28.8061 49.3982 29.3632 49.3982C29.5337 49.3982 29.6928 49.3755 29.8406 49.3187C29.9884 49.2619 30.1134 49.1937 30.2158 49.0914L30.5 49.5686C30.3522 49.7049 30.1703 49.8072 29.9543 49.8754C29.7383 49.9435 29.5223 49.9776 29.295 49.9776C28.9994 49.9776 28.7493 49.9208 28.5219 49.8185C28.3059 49.7163 28.1354 49.5572 28.0217 49.3641C27.9081 49.171 27.8398 48.9437 27.8398 48.6824C27.8398 48.353 27.9081 48.0576 28.0558 47.7963C28.2036 47.535 28.4082 47.3305 28.6583 47.1828C28.9084 47.0351 29.204 46.9669 29.5337 46.9669C29.9429 46.9669 30.2726 47.0805 30.5227 47.3077C30.7728 47.535 30.8978 47.8531 30.8978 48.2507C30.8978 48.3984 30.8865 48.5347 30.8524 48.6711ZM28.9198 47.7054C28.7607 47.8304 28.647 48.0008 28.5788 48.2166H30.2612C30.2612 48.0008 30.193 47.819 30.0566 47.7054C29.9202 47.5918 29.7383 47.5236 29.4996 47.5236C29.2608 47.5236 29.0676 47.5804 28.9084 47.7054H28.9198Z" fill="#CCCCCC"/>
<path d="M33.2265 49.8751C32.9536 49.7956 32.7376 49.6819 32.5898 49.5456L32.8968 48.9889C33.0559 49.1139 33.2492 49.2161 33.4765 49.2957C33.7039 49.3752 33.9313 49.4093 34.1586 49.4093C34.4428 49.4093 34.6702 49.3638 34.8293 49.2616C34.9999 49.1593 35.0794 49.0344 35.0794 48.8639C35.0794 48.7731 35.0453 48.6935 34.9771 48.6254C34.9089 48.5572 34.8293 48.5118 34.727 48.4663C34.6247 48.4209 34.4883 48.3754 34.3064 48.33C34.0563 48.2505 33.8517 48.1823 33.7039 48.1141C33.5448 48.0459 33.4197 47.9437 33.306 47.8074C33.1923 47.671 33.1355 47.4893 33.1355 47.2734C33.1355 47.0235 33.2037 46.8076 33.3515 46.6145C33.4879 46.4327 33.6925 46.285 33.9426 46.1827C34.1927 46.0805 34.4883 46.0237 34.818 46.0237C35.0681 46.0237 35.3068 46.0464 35.5342 46.1146C35.7615 46.1714 35.9548 46.2509 36.1139 46.3532L35.8297 46.9212C35.6819 46.8303 35.5228 46.7508 35.3409 46.7053C35.159 46.6485 34.9771 46.6258 34.7839 46.6258C34.4997 46.6258 34.2723 46.6826 34.1018 46.7849C33.9313 46.8871 33.8517 47.0235 33.8517 47.2052C33.8517 47.3075 33.8858 47.387 33.954 47.4552C34.0222 47.5233 34.1132 47.5688 34.2041 47.6142C34.3064 47.6483 34.4428 47.7051 34.6361 47.7619C34.8748 47.8301 35.0794 47.8983 35.2272 47.9664C35.3864 48.0346 35.5114 48.1255 35.6251 48.2618C35.7388 48.3868 35.7843 48.5572 35.7843 48.7617C35.7843 49.0116 35.716 49.2389 35.5683 49.4206C35.4318 49.6138 35.2272 49.7501 34.9658 49.8524C34.7043 49.9546 34.4087 50.0114 34.0791 50.0114C33.7835 50.0114 33.4993 49.966 33.2265 49.8864V49.8751Z" fill="#CCCCCC"/>
<path d="M36.9242 49.8184C36.7082 49.7048 36.5377 49.5571 36.424 49.364C36.3103 49.1708 36.2421 48.9436 36.2421 48.6823C36.2421 48.3529 36.3217 48.0575 36.4695 47.7962C36.6173 47.5349 36.8219 47.3304 37.0947 47.1827C37.3676 47.035 37.6631 46.9554 37.9928 46.9554C38.277 46.9554 38.5271 47.0122 38.7545 47.1145C38.9705 47.2167 39.141 47.3758 39.2547 47.5689C39.3683 47.7621 39.4365 47.9893 39.4365 48.2506C39.4365 48.5801 39.357 48.8755 39.2092 49.1368C39.0614 49.3981 38.8454 49.6026 38.5839 49.7503C38.3225 49.898 38.0155 49.9775 37.6859 49.9775C37.4017 49.9775 37.1516 49.9207 36.9356 49.8184H36.9242ZM38.2429 49.2504C38.3907 49.1595 38.5157 49.0232 38.6067 48.8641C38.6976 48.6937 38.7431 48.5119 38.7431 48.296C38.7431 48.0688 38.6749 47.887 38.5385 47.7507C38.4021 47.6257 38.2088 47.5576 37.9701 47.5576C37.7768 47.5576 37.6063 47.603 37.4471 47.6939C37.2994 47.7848 37.1743 47.9211 37.0834 48.0802C36.9924 48.2506 36.9469 48.4324 36.9469 48.6482C36.9469 48.8755 37.0152 49.0572 37.1516 49.1936C37.288 49.3299 37.4812 49.3867 37.72 49.3867C37.9132 49.3867 38.0837 49.3413 38.2429 49.2504Z" fill="#CCCCCC"/>
<path d="M40.5939 45.8535H41.2873L40.4688 49.9435H39.7754L40.5939 45.8535Z" fill="#CCCCCC"/>
<path d="M44.8118 47.0006L44.2207 49.9431H43.5613L43.6295 49.6137C43.3681 49.8522 43.027 49.9772 42.6291 49.9772C42.3108 49.9772 42.0494 49.8863 41.8561 49.7159C41.6629 49.5455 41.5605 49.2956 41.5605 48.9774C41.5605 48.8638 41.5719 48.7389 41.5946 48.6252L41.9243 46.9893H42.6178L42.2881 48.6025C42.2767 48.6707 42.2654 48.7502 42.2654 48.8297C42.2654 49.0002 42.3108 49.1365 42.4131 49.2274C42.5155 49.3183 42.6519 49.3637 42.8565 49.3637C43.1066 49.3637 43.3112 49.2955 43.4817 49.1479C43.6523 49.0002 43.7546 48.7957 43.8114 48.5116L44.1184 46.9893H44.8118V47.0006Z" fill="#CCCCCC"/>
<path d="M46.0964 48.9552C46.0964 49.012 46.0964 49.0574 46.0964 49.0802C46.0964 49.296 46.2101 49.4096 46.4488 49.4096C46.5966 49.4096 46.7216 49.3755 46.8353 49.296L46.9604 49.8073C46.7671 49.9209 46.5397 49.989 46.2442 49.989C45.9941 49.989 45.7895 49.9209 45.6303 49.7845C45.4711 49.6482 45.4029 49.4551 45.4029 49.2051C45.4029 49.1256 45.4029 49.0461 45.4257 48.9779L45.7099 47.5919H45.2324L45.3461 47.0352H45.8236L45.96 46.3649H46.6534L46.517 47.0352H47.3128L47.1991 47.5919H46.4033L46.1305 48.9779L46.0964 48.9552Z" fill="#CCCCCC"/>
<path d="M48.0522 47.0009H48.7457L48.1659 49.9434H47.4725L48.0522 47.0009ZM48.2569 46.3987C48.1773 46.3192 48.1432 46.2283 48.1432 46.1261C48.1432 46.0011 48.1887 45.8988 48.2682 45.808C48.3592 45.7284 48.4729 45.683 48.6093 45.683C48.7343 45.683 48.8253 45.7171 48.9048 45.7852C48.9844 45.8534 49.0185 45.9443 49.0185 46.0465C49.0185 46.1829 48.9731 46.2965 48.8935 46.376C48.8025 46.4555 48.6889 46.501 48.5524 46.501C48.4274 46.501 48.3364 46.4669 48.2569 46.3874V46.3987Z" fill="#CCCCCC"/>
<path d="M49.7583 49.8184C49.5423 49.7048 49.3717 49.5571 49.2581 49.364C49.1444 49.1708 49.0762 48.9436 49.0762 48.6823C49.0762 48.3529 49.1557 48.0575 49.3035 47.7962C49.4513 47.5349 49.6559 47.3304 49.9288 47.1827C50.2016 47.035 50.4972 46.9554 50.8268 46.9554C51.111 46.9554 51.3611 47.0122 51.5885 47.1145C51.8045 47.2167 51.975 47.3758 52.0887 47.5689C52.2024 47.7621 52.2706 47.9893 52.2706 48.2506C52.2706 48.5801 52.191 48.8755 52.0432 49.1368C51.8954 49.3981 51.6794 49.6026 51.418 49.7503C51.1565 49.898 50.8496 49.9775 50.5199 49.9775C50.2357 49.9775 49.9856 49.9207 49.7696 49.8184H49.7583ZM51.0769 49.2504C51.2247 49.1595 51.3498 49.0232 51.4407 48.8641C51.5317 48.6937 51.5771 48.5119 51.5771 48.296C51.5771 48.0688 51.5089 47.887 51.3725 47.7507C51.2361 47.6257 51.0428 47.5576 50.8041 47.5576C50.6109 47.5576 50.4403 47.603 50.2812 47.6939C50.1334 47.7848 50.0084 47.9211 49.9174 48.0802C49.8265 48.2506 49.781 48.4324 49.781 48.6482C49.781 48.8755 49.8492 49.0572 49.9856 49.1936C50.122 49.3299 50.3153 49.3867 50.554 49.3867C50.7473 49.3867 50.9178 49.3413 51.0769 49.2504Z" fill="#CCCCCC"/>
<path d="M55.5894 47.2283C55.7827 47.3988 55.8736 47.6487 55.8736 47.9668C55.8736 48.0577 55.8622 48.1713 55.8395 48.319L55.5098 49.955H54.8164L55.1347 48.3417C55.146 48.2736 55.1574 48.194 55.1574 48.1145C55.1574 47.7623 54.9642 47.5805 54.5663 47.5805C54.3162 47.5805 54.1002 47.6487 53.941 47.7964C53.7705 47.9327 53.6682 48.1486 53.6 48.4326L53.2931 49.955H52.5996L53.1794 47.0125H53.8387L53.7705 47.3419C54.032 47.1034 54.373 46.9784 54.7823 46.9784C55.1119 46.9784 55.3734 47.0693 55.5667 47.2397L55.5894 47.2283Z" fill="#CCCCCC"/>
<path d="M56.6789 49.8866C56.4516 49.8298 56.2811 49.7503 56.156 49.6594L56.4402 49.1254C56.5653 49.2163 56.713 49.2845 56.8949 49.3299C57.0768 49.3867 57.2701 49.4094 57.4633 49.4094C57.6793 49.4094 57.8498 49.3753 57.9635 49.3185C58.0772 49.2617 58.134 49.1708 58.134 49.0572C58.134 48.9663 58.0886 48.9095 57.9976 48.8641C57.9067 48.8187 57.7589 48.7846 57.5543 48.7391C57.3496 48.6937 57.1678 48.6596 57.0427 48.6142C56.9177 48.5687 56.7926 48.4892 56.6903 48.3869C56.588 48.2847 56.5425 48.137 56.5425 47.9552C56.5425 47.6485 56.6676 47.4099 56.929 47.2281C57.1905 47.0463 57.5202 46.9554 57.9521 46.9554C58.1568 46.9554 58.35 46.9782 58.5433 47.0236C58.7365 47.0691 58.8957 47.1259 59.0094 47.2054L58.7593 47.7394C58.6342 47.6598 58.4978 47.603 58.35 47.5689C58.2022 47.5349 58.0431 47.5121 57.8839 47.5121C57.6679 47.5121 57.4974 47.5462 57.3951 47.6144C57.2928 47.6825 57.2246 47.7621 57.2246 47.8757C57.2246 47.9666 57.2701 48.0461 57.3724 48.0802C57.4747 48.1256 57.6225 48.1711 57.8271 48.2052C58.0317 48.2506 58.2022 48.2847 58.3387 48.3301C58.4751 48.3756 58.5888 48.4551 58.6797 48.5574C58.7706 48.6596 58.8275 48.7959 58.8275 48.9777C58.8275 49.2958 58.7024 49.5344 58.441 49.7048C58.1795 49.8752 57.8385 49.9661 57.4179 49.9661C57.1678 49.9661 56.929 49.932 56.7017 49.8752L56.6789 49.8866Z" fill="#CCCCCC"/>
</g>
<defs>
<clipPath id="clip0_621_2157">
<rect width="59" height="50" fill="white"/>
</clipPath>
</defs>
</svg>
