<svg width="160" height="50" viewBox="0 0 160 50" fill="none" xmlns="http://www.w3.org/2000/svg">
<g clip-path="url(#clip0_621_2189)">
<path d="M92.4453 16.4026C92.4453 16.2388 92.5787 16.1064 92.7436 16.1058H92.746C93.8279 16.1047 94.9098 16.1106 95.9917 16.1005C96.2246 16.0982 96.3163 16.1496 96.3157 16.405C96.3073 21.4839 96.3127 26.5629 96.3026 31.6425C96.3002 32.7556 96.1352 38.2117 95.7214 39.2544C94.7937 41.5935 92.9967 42.8792 90.575 43.3675C88.7774 43.7305 86.9822 43.682 85.2304 43.1163C82.873 42.3549 81.3963 40.7482 80.7044 38.4038C80.6604 38.2554 80.7699 38.1047 80.9259 38.1047C80.9271 38.1047 80.9277 38.1047 80.9289 38.1047C82.0108 38.1029 83.0927 38.1082 84.1747 38.0994C84.3837 38.0976 84.4986 38.149 84.6004 38.3512C85.0976 39.3396 85.9199 39.9177 87.003 40.1352C87.9932 40.3338 88.9846 40.3273 89.957 40.0483C91.2759 39.6694 92.0666 38.7538 92.2708 37.442C92.4429 36.3378 92.4376 30.845 92.5102 29.726C92.4733 29.7184 92.437 29.7101 92.4001 29.7024C92.3715 29.7266 92.3346 29.7461 92.3155 29.7763C91.2699 31.4474 89.7051 32.1763 87.7771 32.2383C84.2038 32.3542 81.3856 30.0748 80.7163 26.492C80.5758 25.7389 80.5091 24.9633 80.5014 24.1966C80.4752 21.614 80.4913 19.0307 80.4907 16.4481V16.4398C80.4907 16.2548 80.6419 16.1047 80.8283 16.1047H80.8313C81.8804 16.1035 82.9296 16.1141 83.9788 16.097C84.2717 16.0922 84.3455 16.1821 84.3444 16.4653C84.3342 18.9829 84.3378 21.5011 84.339 24.0187C84.339 24.9042 84.4224 25.7785 84.8076 26.5925C85.5251 28.1087 86.819 28.6567 88.4148 28.6525C90.6376 28.646 92.1649 27.2516 92.3828 25.0425C92.4209 24.6547 92.4417 24.2634 92.4423 23.8739C92.4477 21.4319 92.4447 18.99 92.4447 16.548V16.4014L92.4453 16.4026Z" fill="#CCCCCC"/>
<path d="M64.8413 25.3889C65.0991 26.5682 65.6529 27.4715 66.5895 28.1247C67.666 28.8748 68.8825 29.0326 70.1562 28.9067C70.9273 28.8305 71.6573 28.6248 72.3117 28.1974C72.4391 28.114 72.5951 28.0454 72.679 27.9284C73.0637 27.3881 73.6127 27.3934 74.1926 27.4094C75.0662 27.433 75.9409 27.4147 76.8156 27.4165C76.8316 27.4165 76.8483 27.4165 76.8644 27.4171C77.071 27.4218 77.2157 27.634 77.1276 27.8196C77.1276 27.8208 77.1264 27.822 77.1258 27.8232C76.0564 30.0446 74.3088 31.4633 71.9234 32.0935C69.949 32.6149 67.9792 32.5587 66.0595 31.844C63.3961 30.8515 61.7104 28.9516 61.0453 26.2165C60.4654 23.8319 60.7405 21.5389 62.0743 19.4244C63.1848 17.6641 64.7966 16.5657 66.7901 16.0314C69.0034 15.4385 71.1928 15.5425 73.2882 16.5125C76.0546 17.7929 77.4985 20.0303 77.8671 22.9883C77.9511 23.664 77.9159 24.3533 77.9636 25.0342C77.9874 25.3718 77.8201 25.3936 77.5533 25.3931C73.4876 25.3877 69.422 25.3889 65.3563 25.3889C65.2063 25.3889 65.0556 25.3889 64.8395 25.3889H64.8413ZM64.9824 22.3056H73.811C73.3525 20.4045 71.6299 19.065 69.1094 19.1537C66.8533 19.2329 65.2628 20.7456 64.983 22.3056H64.9824Z" fill="#CCCCCC"/>
<path d="M23.8516 25.8565C23.8462 26.8945 23.7396 27.7806 23.3675 28.759C22.7476 30.3863 21.5984 31.4823 19.9353 32.0119C18.099 32.5977 16.2466 32.5966 14.4317 31.938C12.4513 31.2186 11.3354 29.7402 10.9406 27.7192C10.8168 27.0843 10.7614 26.4264 10.7596 25.7791C10.7447 20.7965 10.7543 15.815 10.7441 10.833C10.7441 10.525 10.8376 10.4517 11.1324 10.4559C12.1702 10.4724 13.2093 10.4618 14.2471 10.4629H14.2507C14.4484 10.4629 14.6085 10.6231 14.6085 10.8188V10.8815C14.6085 11.9644 14.6109 13.0474 14.6085 14.1303V14.2397C14.6085 14.7486 14.6056 15.2576 14.602 15.766C14.602 15.8097 14.6038 15.8481 14.6085 15.8818V19.8128C14.6026 19.8524 14.6002 19.8979 14.6008 19.9506C14.6062 20.7314 14.6079 21.5123 14.6085 22.2932C14.6097 23.4559 14.6085 24.6175 14.6103 25.7797C14.6103 26.0392 14.6246 26.3004 14.6568 26.5582C14.8521 28.1093 15.884 28.9493 17.4571 28.8441C19.0684 28.7371 19.8943 27.8788 19.9788 26.2171C19.986 26.0758 19.9854 25.9345 19.9836 25.7903C19.9812 25.6207 20.117 25.477 20.2878 25.4764H20.2902C21.3721 25.4752 22.379 25.4764 23.4609 25.4741C23.6378 25.4741 23.8522 25.6065 23.851 25.8559L23.8516 25.8565Z" fill="#CCCCCC"/>
<path d="M26.3244 20.8696C26.3244 19.4042 26.3309 17.9388 26.3184 16.4734C26.316 16.192 26.3922 16.0945 26.6858 16.0987C27.7242 16.114 28.7627 16.1146 29.8011 16.0987C30.1126 16.0939 30.1882 16.2086 30.187 16.4983C30.181 19.2553 30.1792 22.0123 30.1935 24.7693C30.1977 25.6513 30.4025 26.4925 30.892 27.2438C31.4172 28.0507 32.1686 28.5378 33.1088 28.7405C33.8454 28.8989 34.5873 28.9072 35.3203 28.7376C36.8684 28.3793 37.7735 27.3786 38.0992 25.8647C38.2189 25.3073 38.2653 24.725 38.2695 24.1534C38.2873 21.6133 38.2772 19.0738 38.2772 16.5337C38.2772 16.1069 38.2778 16.1057 38.7131 16.1052C39.7188 16.1046 40.7245 16.114 41.7302 16.0992C42.0315 16.0951 42.1517 16.1672 42.1506 16.4947C42.1381 19.0779 42.1547 21.6612 42.1392 24.245C42.1309 25.6087 41.966 26.9506 41.417 28.2227C40.6358 30.0316 39.3091 31.2641 37.4412 31.9013C35.3256 32.6225 33.1767 32.6349 31.0659 31.9379C28.877 31.2156 27.4515 29.694 26.7596 27.5009C26.422 26.4322 26.3214 25.3356 26.3238 24.2237C26.3262 23.1059 26.3238 21.9875 26.3238 20.8696H26.3244Z" fill="#CCCCCC"/>
<path d="M45.3412 32.0055C45.3329 31.8648 45.3228 31.7797 45.3228 31.6946C45.3275 28.4611 45.2906 25.2264 45.3543 21.9935C45.3918 20.0771 46.0718 18.3829 47.6105 17.1232C48.5471 16.3559 49.6552 15.9658 50.8389 15.7879C52.2162 15.5804 53.5857 15.6342 54.9272 16.035C56.8475 16.6089 58.1634 17.8261 58.8405 19.7065C59.1822 20.6558 59.2977 21.6448 59.34 22.6461C59.349 22.856 59.29 22.9382 59.0697 22.937C57.9771 22.9299 56.8838 22.9299 55.7912 22.937C55.5727 22.9382 55.5233 22.8465 55.5036 22.6473C55.4566 22.1744 55.4268 21.6909 55.3012 21.2357C54.9886 20.1013 54.2002 19.4659 53.0355 19.3145C52.156 19.1999 51.2778 19.2164 50.4954 19.7041C49.451 20.3549 49.1818 21.3941 49.1771 22.5226C49.1634 25.5285 49.1723 28.5344 49.1723 31.5403C49.1723 31.8504 49.0189 32.0055 48.712 32.0055C47.7176 32.0055 46.7233 32.0055 45.7289 32.0055H45.3412Z" fill="#CCCCCC"/>
<path d="M21.5636 16.2465C21.4398 16.5403 21.2963 16.8181 21.132 17.0776C20.7187 17.7308 20.1763 18.2782 19.5094 18.7186C18.5227 19.3694 17.42 19.6502 16.2452 19.6839H16.2321C16.2029 19.6839 16.1731 19.6839 16.1428 19.6833C15.9862 19.675 15.829 19.6638 15.6724 19.6579C15.2597 19.6402 15.249 19.6413 15.2091 19.2512C15.0734 17.9359 15.2812 16.6851 15.976 15.5407C15.9868 15.523 15.9975 15.5052 16.0082 15.4881C16.6525 14.4495 17.5438 13.697 18.7002 13.2483C19.5659 12.9113 20.4627 12.7908 21.3832 12.8304C22.0031 12.857 22.0019 12.8706 22.0269 13.4907C22.0656 14.4418 21.9352 15.3628 21.5642 16.2471L21.5636 16.2465Z" fill="#CCCCCC"/>
<path d="M40.7066 0H0V44.6113H40.9829V34.539H39.6479V43.2263H1.33498V1.38501H39.6485V10.3323H40.9835V0H40.7072H40.7066Z" fill="#CCCCCC"/>
<path d="M75.506 12.0891C76.9213 10.2419 77.6871 7.99793 77.6871 5.63874C77.6871 4.1887 77.3995 2.78359 76.8326 1.46123C77.9634 1.14734 79.1584 0.990693 80.3916 1.0167C80.5738 1.02084 80.7542 1.02853 80.9346 1.04094C80.9691 1.0433 80.9965 1.0705 80.9989 1.10478C81.0108 1.2833 81.0192 1.463 81.0227 1.6433C81.1156 5.9875 78.8952 9.84816 75.506 12.0891Z" fill="#CCCCCC"/>
<path d="M77.2116 5.63875C77.2116 8.44188 76.0737 10.9814 74.2314 12.8263C73.9194 12.9829 73.6008 13.1266 73.2739 13.2572C73.1656 13.3004 73.056 13.3423 72.9458 13.3825C72.8905 13.4032 72.8357 13.4227 72.7797 13.4422C72.669 13.4813 72.5576 13.5185 72.4445 13.5546C72.164 13.6438 71.8782 13.7236 71.5894 13.7928C71.4745 13.8206 71.3584 13.8466 71.2417 13.8708C70.4384 14.0393 69.6072 14.1291 68.7557 14.1315C71.459 12.1364 73.0548 9.00759 73.0548 5.63875C73.0548 4.97019 72.9917 4.30044 72.8667 3.64901L72.8214 3.41315C73.8878 2.62873 75.0859 2.00981 76.3738 1.59839C76.9127 2.83739 77.211 4.20349 77.211 5.63934L77.2116 5.63875Z" fill="#CCCCCC"/>
<path d="M72.581 5.6388C72.581 9.18439 70.7423 12.3038 67.9598 14.1091C67.9408 14.1079 67.9211 14.1067 67.9021 14.1055C67.8675 14.1032 67.8395 14.076 67.8372 14.0417C67.8253 13.8632 67.8175 13.6841 67.8133 13.5038C67.7294 9.5704 69.5407 6.0325 72.4006 3.73596C72.5185 4.35251 72.5804 4.98797 72.5804 5.63821L72.581 5.6388Z" fill="#CCCCCC"/>
<path d="M119.453 33.6748C120.605 33.6748 121.743 33.6665 122.881 33.6854C123.022 33.6878 123.218 33.8007 123.29 33.9207C123.876 34.9043 124.781 35.418 125.868 35.6249C127.019 35.8436 128.182 35.8507 129.311 35.4937C130.322 35.1745 131.042 34.5172 131.482 33.543C132.03 32.3294 131.968 31.0596 131.959 29.6811C131.798 29.7946 131.716 29.8307 131.665 29.8922C130.01 31.9097 127.799 32.424 125.349 32.0527C120.345 31.2943 117.991 26.9702 118.954 22.2459C119.753 18.3208 122.901 15.8641 126.94 15.7719C129.545 15.7122 131.877 16.3926 133.699 18.3392C134.889 19.6113 135.644 21.1488 135.693 22.8719C135.783 26.0197 135.847 29.1799 135.667 32.3205C135.463 35.8803 132.937 38.3607 129.376 38.9027C126.981 39.2675 124.673 39.0813 122.51 37.9108C120.931 37.0572 119.974 35.7101 119.431 34.0413C119.414 33.9881 119.407 33.9302 119.404 33.8746C119.403 33.8391 119.42 33.8031 119.452 33.6742L119.453 33.6748ZM131.957 24.0518C131.945 21.2256 130.037 19.3062 127.257 19.324C124.547 19.3417 122.591 21.3409 122.606 24.0784C122.621 26.7751 124.522 28.6023 127.311 28.6C130.113 28.5976 131.968 26.7817 131.957 24.0518Z" fill="#CCCCCC"/>
<path d="M112.586 29.2437C112.518 29.3283 112.436 29.4057 112.383 29.4985C111.027 31.8807 108.318 32.6865 105.891 32.2579C101.793 31.5332 99.3104 28.6727 99.18 24.6524C99.0377 20.2757 101.325 17.0151 105.401 16.061C108.715 15.2848 111.774 15.857 114.187 18.4474C115.682 20.0517 116.204 22.0521 116.224 24.1908C116.246 26.6073 116.226 29.0238 116.241 31.4404C116.243 31.8346 116.104 31.9753 115.71 31.9659C114.874 31.9464 114.036 31.9464 113.2 31.9659C112.827 31.9747 112.701 31.8465 112.714 31.474C112.74 30.7428 112.722 30.0104 112.722 29.278C112.677 29.2668 112.632 29.2555 112.586 29.2443L112.586 29.2437ZM112.36 24.0885C112.366 21.2564 110.478 19.324 107.706 19.324C104.996 19.324 103.031 21.2942 103.007 24.0341C102.983 26.787 104.96 28.7897 107.707 28.7945C110.458 28.7992 112.353 26.8816 112.359 24.0885H112.36Z" fill="#CCCCCC"/>
<path d="M138.996 26.7073C138.996 25.1969 138.944 23.6842 139.009 22.1768C139.098 20.138 139.73 18.3008 141.474 17.0464C143.206 15.8003 145.2 15.5887 147.251 15.8494C151.1 16.3389 152.772 18.9641 152.925 22.3808C152.942 22.7857 152.856 22.9601 152.403 22.9441C151.491 22.9116 150.577 22.9116 149.665 22.9441C149.225 22.9601 149.127 22.7875 149.098 22.3914C149.066 21.9451 148.989 21.4852 148.834 21.0673C148.325 19.7024 146.858 19.0415 145.192 19.3826C143.71 19.6858 142.893 20.6405 142.84 22.3583C142.772 24.5467 142.805 26.7374 142.797 28.9275C142.794 29.777 142.781 30.627 142.805 31.4759C142.815 31.853 142.676 31.9707 142.31 31.9642C141.36 31.9476 140.408 31.9452 139.458 31.9653C139.074 31.9736 138.974 31.8247 138.978 31.4652C138.993 29.8793 138.984 28.2933 138.984 26.7073C138.989 26.7073 138.993 26.7073 138.998 26.7073H138.996Z" fill="#CCCCCC"/>
<path d="M155.564 24.0601C155.564 21.6271 155.575 19.194 155.555 16.7609C155.551 16.3028 155.667 16.126 156.154 16.1443C157.065 16.1792 157.978 16.1668 158.89 16.1491C159.263 16.142 159.385 16.2827 159.385 16.6462C159.377 21.588 159.376 26.5299 159.385 31.4717C159.386 31.8447 159.247 31.9688 158.884 31.9629C157.954 31.9482 157.022 31.9375 156.092 31.9682C155.654 31.9824 155.552 31.8311 155.555 31.4161C155.573 28.9641 155.564 26.5121 155.564 24.0601H155.564Z" fill="#CCCCCC"/>
<path d="M160.002 11.5418C160.006 13.0273 158.952 14.0712 157.457 14.0618C155.982 14.0529 154.961 13.0332 154.953 11.5613C154.945 10.0675 155.988 9.00764 157.466 9.00586C158.951 9.00409 159.998 10.051 160.002 11.5412V11.5418Z" fill="#CCCCCC"/>
<path d="M158.606 42.1362H99.9527C99.5225 42.1362 99.1738 42.4824 99.1738 42.9094V49.2268C99.1738 49.6538 99.5225 50 99.9527 50H158.606C159.036 50 159.385 49.6538 159.385 49.2268V42.9094C159.385 42.4824 159.036 42.1362 158.606 42.1362Z" fill="#CCCCCC"/>
<path d="M129.445 45.4537C129.445 45.3934 129.445 45.3484 129.445 45.3035C129.445 44.6651 129.448 44.0273 129.442 43.3888C129.441 43.2623 129.475 43.2127 129.609 43.2192C129.831 43.2292 130.054 43.2245 130.276 43.221C130.362 43.2198 130.407 43.2428 130.407 43.3386C130.397 44.6148 130.412 45.8917 130.371 47.1667C130.344 48.0398 129.687 48.7397 128.822 48.9112C128.18 49.0388 127.566 48.9685 127.017 48.592C126.421 48.1829 126.172 47.5912 126.162 46.8871C126.15 45.9845 126.601 45.2769 127.408 44.9778C128.024 44.7496 128.624 44.7774 129.163 45.1989C129.255 45.2704 129.337 45.3549 129.445 45.4525V45.4537ZM129.442 46.9061C129.442 46.2062 128.967 45.7268 128.277 45.7291C127.604 45.7321 127.116 46.2274 127.117 46.9066C127.119 47.5947 127.608 48.0848 128.292 48.0824C128.974 48.08 129.443 47.6006 129.443 46.9061H129.442Z" fill="#3B3B3B"/>
<path d="M149.32 48.1888C149.242 48.2929 149.172 48.4052 149.083 48.4992C148.694 48.913 148.197 49.0341 147.657 48.9437C146.603 48.7675 145.991 48.0198 145.979 46.9616C145.962 45.5471 147.107 44.6663 148.475 44.8761C149.401 45.018 149.956 45.54 150.163 46.4444C150.205 46.6253 150.213 46.8168 150.215 47.0036C150.222 47.5717 150.213 48.1392 150.221 48.7072C150.222 48.8408 150.177 48.8769 150.05 48.871C149.851 48.8621 149.653 48.8663 149.454 48.8692C149.375 48.8704 149.346 48.8426 149.348 48.7622C149.352 48.5719 149.349 48.3815 149.349 48.1912C149.339 48.19 149.329 48.1888 149.319 48.1876L149.32 48.1888ZM149.257 46.9043C149.257 46.2103 148.788 45.7327 148.106 45.7291C147.426 45.7262 146.932 46.2233 146.935 46.9084C146.938 47.5983 147.426 48.086 148.11 48.0824C148.793 48.0789 149.258 47.6006 149.258 46.9043H149.257Z" fill="#3B3B3B"/>
<path d="M119.381 48.8686C119.381 48.79 119.381 48.7344 119.381 48.6788C119.373 47.9849 119.379 47.2909 119.35 46.5975C119.335 46.2328 119.154 45.9348 118.79 45.8036C118.403 45.6647 118.021 45.6842 117.696 45.9632C117.422 46.1973 117.375 46.5277 117.372 46.8623C117.366 47.4109 117.37 47.96 117.37 48.5086C117.37 48.7482 117.25 48.868 117.009 48.868C116.853 48.868 116.697 48.865 116.541 48.8692C116.46 48.871 116.421 48.8503 116.422 48.7598C116.427 48.0422 116.408 47.324 116.433 46.6069C116.469 45.5707 117.185 44.8856 118.232 44.8466C118.551 44.8347 118.866 44.8619 119.168 44.9689C119.818 45.2 120.168 45.6795 120.285 46.3392C120.313 46.4999 120.325 46.6655 120.326 46.8286C120.331 47.457 120.325 48.0859 120.331 48.7143C120.332 48.8414 120.291 48.8751 120.169 48.871C119.914 48.8627 119.66 48.8686 119.382 48.8686H119.381Z" fill="#3B3B3B"/>
<path d="M137.715 46.8907C137.715 46.2901 137.718 45.6895 137.713 45.0895C137.712 44.9725 137.746 44.9346 137.865 44.9388C138.091 44.9471 138.318 44.9441 138.545 44.94C138.636 44.9382 138.669 44.9695 138.669 45.0617C138.666 46.2907 138.666 47.5196 138.669 48.7492C138.669 48.8296 138.65 48.871 138.559 48.8698C138.313 48.8668 138.068 48.8651 137.822 48.8704C137.714 48.8727 137.715 48.8107 137.715 48.7344C137.716 48.1196 137.716 47.5055 137.716 46.8907H137.715Z" fill="#3B3B3B"/>
<path d="M138.817 43.7961C138.817 44.1662 138.557 44.4245 138.185 44.4221C137.819 44.4198 137.566 44.1668 137.564 43.7997C137.563 43.4273 137.821 43.1648 138.188 43.1654C138.558 43.166 138.815 43.4243 138.816 43.7967L138.817 43.7961Z" fill="#3B3B3B"/>
<path d="M107.993 46.8954C107.993 46.2907 107.996 45.6859 107.99 45.0812C107.989 44.9671 108.027 44.9358 108.136 44.9394C108.357 44.9464 108.58 44.9453 108.801 44.9394C108.901 44.937 108.944 44.963 108.944 45.0718C108.941 46.2954 108.941 47.519 108.944 48.7427C108.944 48.8444 108.904 48.8715 108.81 48.8698C108.579 48.8656 108.347 48.8639 108.115 48.8704C108.011 48.8733 107.99 48.8308 107.991 48.7374C107.994 48.1232 107.993 47.509 107.993 46.8948V46.8954Z" fill="#3B3B3B"/>
<path d="M108.467 43.1654C108.836 43.1654 109.096 43.4255 109.096 43.7961C109.098 44.165 108.835 44.4245 108.463 44.4216C108.097 44.4192 107.844 44.1656 107.842 43.7997C107.84 43.4285 108.099 43.1654 108.466 43.1654H108.467Z" fill="#3B3B3B"/>
</g>
<defs>
<clipPath id="clip0_621_2189">
<rect width="160" height="50" fill="white"/>
</clipPath>
</defs>
</svg>
