<svg width="49" height="52" viewBox="0 0 49 52" fill="none" xmlns="http://www.w3.org/2000/svg">
<path d="M27.4775 36.007H18.0647C15.1447 36.007 12.3843 35.3168 9.94429 34.0949C6.01641 32.1243 2.90895 28.7652 1.27344 24.6706C2.08055 19.1516 4.46733 14.1403 7.97237 10.1123C6.7371 11.6619 5.85685 13.5034 5.44864 15.5154C5.27844 16.3348 5.19467 17.1782 5.19467 18.0443C5.19467 18.9104 5.28775 19.8298 5.46459 20.6799C6.02173 23.3155 7.39662 25.6539 9.31269 27.4234C11.6091 29.5446 14.6859 30.8451 18.0647 30.8451V30.8478H22.2904C25.1545 30.8478 27.4775 33.1542 27.4775 36.0083V36.007Z" fill="url(#paint0_linear_2172_8064)"/>
<path d="M27.4765 0.0859375C27.4765 0.139235 27.4765 0.188536 27.4725 0.241833C27.3888 3.01598 25.0991 5.24649 22.2894 5.24649H18.0637C14.6531 5.24649 11.5483 6.57093 9.24527 8.73482C8.8118 9.13589 8.40359 9.57426 8.03394 10.0353C8.01 10.0579 7.9874 10.0846 7.97011 10.1112C4.46507 14.1405 2.07962 19.1519 1.27118 24.6695C0.763237 23.4023 0.400234 22.0646 0.196793 20.6775C0.066484 19.8181 0 18.9387 0 18.0419C0 17.1452 0.0598358 16.3431 0.183496 15.513C1.41611 6.79345 8.95275 0.0859375 18.0651 0.0859375H27.4779H27.4765Z" fill="url(#paint1_linear_2172_8064)"/>
<path d="M36.8567 36.0059H29.352C29.352 33.9686 28.4757 32.1285 27.0742 30.8467H31.6683C34.5364 30.8467 36.8567 33.1531 36.8567 36.0059Z" fill="url(#paint2_linear_2172_8064)"/>
<path d="M21.1953 15.9916H30.6081C33.5281 15.9916 36.2885 16.6818 38.7285 17.9036C42.6564 19.8743 45.7638 23.2334 47.3993 27.328C46.5922 32.847 44.2055 37.8583 40.7004 41.8862C41.9357 40.3366 42.8159 38.4952 43.2241 36.4832C43.3943 35.6637 43.4781 34.8203 43.4781 33.9542C43.4781 33.0881 43.385 32.1687 43.2082 31.3186C42.6511 28.6831 41.2762 26.3446 39.3601 24.5752C37.0637 22.4539 33.9868 21.1534 30.6081 21.1534V21.1508H26.3824C23.5183 21.1508 21.1953 18.8443 21.1953 15.9902V15.9916Z" fill="url(#paint3_linear_2172_8064)"/>
<path d="M21.1953 51.9117C21.1953 51.8584 21.1953 51.8091 21.1993 51.7558C21.2831 48.9816 23.5728 46.7511 26.3824 46.7511H30.6081C34.0188 46.7511 37.1236 45.4267 39.4266 43.2628C39.8601 42.8617 40.2683 42.4234 40.6379 41.9623C40.6618 41.9397 40.6845 41.913 40.7017 41.8864C44.2068 37.8571 46.5922 32.8458 47.4007 27.3281C47.9086 28.5953 48.2716 29.9331 48.4751 31.3201C48.6054 32.1795 48.6719 33.059 48.6719 33.9557C48.6719 34.8524 48.612 35.6546 48.4884 36.4847C47.2571 45.2055 39.7204 51.913 30.6081 51.913H21.1953V51.9117Z" fill="url(#paint4_linear_2172_8064)"/>
<defs>
<linearGradient id="paint0_linear_2172_8064" x1="2.6204" y1="16.6533" x2="21.6678" y2="34.5205" gradientUnits="userSpaceOnUse">
<stop stop-color="#1B3E70"/>
<stop offset="0.18" stop-color="#185082"/>
<stop offset="0.73" stop-color="#1282B3"/>
<stop offset="1" stop-color="#1096C7"/>
</linearGradient>
<linearGradient id="paint1_linear_2172_8064" x1="-0.191475" y1="17.6835" x2="21.3317" y2="0.71697" gradientUnits="userSpaceOnUse">
<stop stop-color="#1096C7"/>
<stop offset="1" stop-color="#223C78"/>
</linearGradient>
<linearGradient id="paint2_linear_2172_8064" x1="27.0742" y1="33.4263" x2="36.8567" y2="33.4263" gradientUnits="userSpaceOnUse">
<stop stop-color="#036667"/>
<stop offset="1" stop-color="#65B1B2"/>
</linearGradient>
<linearGradient id="paint3_linear_2172_8064" x1="46.0524" y1="35.3453" x2="27.0049" y2="17.4767" gradientUnits="userSpaceOnUse">
<stop stop-color="#036667"/>
<stop offset="1" stop-color="#65B1B2"/>
</linearGradient>
<linearGradient id="paint4_linear_2172_8064" x1="48.8633" y1="34.3141" x2="27.3401" y2="51.2807" gradientUnits="userSpaceOnUse">
<stop stop-color="#65B1B2"/>
<stop offset="1" stop-color="#036667"/>
</linearGradient>
</defs>
</svg>
