<svg width="30" height="30" viewBox="0 0 30 30" fill="none" xmlns="http://www.w3.org/2000/svg">
<path d="M15 30C23.2843 30 30 23.2843 30 15C30 6.71573 23.2843 0 15 0C6.71573 0 0 6.71573 0 15C0 23.2843 6.71573 30 15 30Z" fill="#BDBDBD"/>
<path d="M16.6616 24.5552V16.196H19.4501L19.9789 12.7402H16.6616V10.4931C16.6616 9.54889 17.1274 8.62359 18.613 8.62359H20.1237V5.67772C20.1237 5.67772 18.7514 5.44482 17.4485 5.44482C14.7166 5.44482 12.929 7.1003 12.929 10.0965V12.734H9.88867V16.1897H12.929V24.5489H16.6679L16.6616 24.5552Z" fill="black"/>
</svg>
