<svg width="30" height="30" viewBox="0 0 30 30" fill="none" xmlns="http://www.w3.org/2000/svg">
<path d="M15 30C23.2843 30 30 23.2843 30 15C30 6.71573 23.2843 0 15 0C6.71573 0 0 6.71573 0 15C0 23.2843 6.71573 30 15 30Z" fill="#BDBDBD"/>
<path d="M19.1295 9.98291C18.626 9.98291 18.2168 10.3921 18.2168 10.8956C18.2168 11.3992 18.626 11.8083 19.1295 11.8083C19.6331 11.8083 20.0422 11.3992 20.0422 10.8956C20.0422 10.3921 19.6331 9.98291 19.1295 9.98291Z" fill="black"/>
<path d="M15.0628 11.1538C12.9415 11.1538 11.2168 12.8785 11.2168 14.9998C11.2168 17.1211 12.9415 18.8458 15.0628 18.8458C17.1841 18.8458 18.9088 17.1211 18.9088 14.9998C18.9088 12.8785 17.1841 11.1538 15.0628 11.1538ZM15.0628 17.461C13.7032 17.461 12.6016 16.3531 12.6016 14.9998C12.6016 13.6465 13.7095 12.5386 15.0628 12.5386C16.4161 12.5386 17.524 13.6465 17.524 14.9998C17.524 16.3531 16.4161 17.461 15.0628 17.461Z" fill="black"/>
<path d="M18.1164 22.8049H11.8848C9.29771 22.8049 7.19531 20.7025 7.19531 18.1154V11.8838C7.19531 9.29673 9.29771 7.19434 11.8848 7.19434H18.1164C20.7035 7.19434 22.8059 9.29673 22.8059 11.8838V18.1154C22.8059 20.7025 20.7035 22.8049 18.1164 22.8049ZM11.8848 8.66098C10.1097 8.66098 8.66195 10.1087 8.66195 11.8838V18.1154C8.66195 19.8905 10.1097 21.3383 11.8848 21.3383H18.1164C19.8915 21.3383 21.3393 19.8905 21.3393 18.1154V11.8838C21.3393 10.1087 19.8915 8.66098 18.1164 8.66098H11.8848Z" fill="black"/>
</svg>
