<svg width="30" height="30" viewBox="0 0 30 30" fill="none" xmlns="http://www.w3.org/2000/svg">
<path d="M15 30C23.2843 30 30 23.2843 30 15C30 6.71573 23.2843 0 15 0C6.71573 0 0 6.71573 0 15C0 23.2843 6.71573 30 15 30Z" fill="#BDBDBD"/>
<path d="M8.98897 11.4878H11.5698V19.7714H8.98897V11.4878ZM10.2794 7.37109C11.104 7.37109 11.7712 8.03832 11.7712 8.86291C11.7712 9.6875 11.104 10.3547 10.2794 10.3547C9.45477 10.3547 8.78125 9.6875 8.78125 8.86291C8.78125 8.03832 9.44848 7.37109 10.2794 7.37109Z" fill="black"/>
<path d="M13.182 11.4875H15.6494V12.6205H15.6809C16.0271 11.9659 16.8643 11.2798 18.1169 11.2798C20.7229 11.2798 21.2075 12.9919 21.2075 15.2265V19.7712H18.6331V15.7426C18.6331 14.7796 18.6142 13.5458 17.2923 13.5458C15.9705 13.5458 15.7501 14.5907 15.7501 15.6734V19.7712H13.1757V11.4875H13.182Z" fill="black"/>
</svg>
