<svg width="16" height="20" viewBox="0 0 16 20" fill="none" xmlns="http://www.w3.org/2000/svg">
<path d="M10.0431 7.84851C10.0431 6.635 9.05906 5.65108 7.84558 5.65098C6.63202 5.65098 5.64805 6.63495 5.64805 7.84851C5.64815 9.06199 6.63207 10.046 7.84558 10.046C9.059 10.0459 10.043 9.06193 10.0431 7.84851ZM11.3884 7.84851C11.3883 9.80493 9.802 11.3913 7.84558 11.3914C5.88908 11.3914 4.30283 9.80499 4.30273 7.84851C4.30273 5.89195 5.88902 4.30566 7.84558 4.30566C9.80206 4.30576 11.3884 5.89201 11.3884 7.84851Z" fill="#BDBDBD"/>
<path d="M8.23306 19.8785C8.0015 20.0405 7.69388 20.0405 7.46231 19.8785L7.84769 19.3276L8.23306 19.8785ZM14.3501 7.84769C14.3501 6.12315 13.6654 4.46886 12.4459 3.24943C11.2265 2.03 9.57222 1.34532 7.84769 1.34532C6.12315 1.34532 4.46886 2.03 3.24943 3.24943C2.03 4.46886 1.34532 6.12315 1.34532 7.84769C1.34532 10.8342 3.01293 13.549 4.76817 15.5675C5.63752 16.5673 6.50798 17.3739 7.16189 17.9297C7.43384 18.1608 7.6686 18.3467 7.84769 18.4859C8.02677 18.3467 8.26153 18.1608 8.53348 17.9297C9.18739 17.3739 10.0578 16.5673 10.9272 15.5675C12.6824 13.549 14.3501 10.8342 14.3501 7.84769ZM15.6954 7.84769C15.6954 11.3184 13.7754 14.3433 11.9432 16.4504C11.0189 17.5134 10.0955 18.3668 9.40409 18.9544C9.05797 19.2486 8.76849 19.4779 8.56414 19.6341C8.46223 19.712 8.38127 19.7717 8.32503 19.8128C8.29697 19.8333 8.27472 19.8491 8.25934 19.8601C8.25165 19.8656 8.24528 19.8701 8.24095 19.8732C8.23886 19.8747 8.23696 19.8758 8.23569 19.8767L8.23482 19.8785H8.23394L7.84769 19.3276L7.46143 19.8785H7.46056L7.45968 19.8767C7.45841 19.8758 7.45651 19.8747 7.45443 19.8732C7.45009 19.8701 7.44373 19.8656 7.43603 19.8601C7.42066 19.8491 7.3984 19.8333 7.37034 19.8128C7.3141 19.7717 7.23314 19.712 7.13123 19.6341C6.92689 19.4779 6.6374 19.2486 6.29129 18.9544C5.59989 18.3668 4.67652 17.5134 3.75217 16.4504C1.92001 14.3433 0 11.3184 0 7.84769C2.26522e-07 5.76635 0.826524 3.76998 2.29825 2.29825C3.76998 0.826524 5.76635 0 7.84769 0C9.92902 0 11.9254 0.826524 13.3971 2.29825C14.8688 3.76998 15.6954 5.76635 15.6954 7.84769Z" fill="#BDBDBD"/>
</svg>
