<svg width="20" height="16" viewBox="0 0 20 16" fill="none" xmlns="http://www.w3.org/2000/svg">
<path d="M18.6047 1.39535H1.39535V13.8763C1.39543 13.8967 1.40359 13.9163 1.41806 13.9308C1.43253 13.9452 1.45211 13.9534 1.47257 13.9535H18.5274C18.5479 13.9534 18.5675 13.9452 18.5819 13.9308C18.5964 13.9163 18.6046 13.8967 18.6047 13.8763V1.39535ZM20 13.8763C19.9999 14.2668 19.8446 14.6412 19.5685 14.9173C19.2924 15.1935 18.918 15.3488 18.5274 15.3488H1.47257C1.08205 15.3488 0.70765 15.1935 0.431504 14.9173C0.15536 14.6412 8.03281e-05 14.2668 0 13.8763V0.697674C0 0.312359 0.312359 0 0.697674 0H19.3023C19.6876 0 20 0.312359 20 0.697674V13.8763Z" fill="#BDBDBD"/>
<path d="M18.8308 0.183421C19.1148 -0.0769204 19.556 -0.0578403 19.8164 0.226117C20.0768 0.510127 20.0577 0.951388 19.7737 1.21176L10.4714 9.7392C10.2047 9.98362 9.79516 9.98362 9.52844 9.7392L0.226117 1.21176C-0.0578405 0.951388 -0.0769205 0.510126 0.183421 0.226117C0.443798 -0.0578405 0.885059 -0.0769205 1.16907 0.183421L9.99992 8.27844L18.8308 0.183421Z" fill="#BDBDBD"/>
</svg>
