<svg width="20" height="20" viewBox="0 0 20 20" fill="none" xmlns="http://www.w3.org/2000/svg">
<path d="M4.82876 0.0101065C5.14034 -0.0269012 5.45557 0.0383617 5.72719 0.195444C5.99562 0.350712 6.20664 0.587917 6.33058 0.871969H6.33141L8.48149 5.67496L8.48565 5.6841C8.5799 5.90419 8.61792 6.14457 8.59702 6.38307C8.57609 6.62144 8.49697 6.85104 8.36597 7.05128C8.35201 7.07261 8.33667 7.09328 8.32026 7.11278L6.18181 9.65349C6.17043 9.67457 6.16353 9.69763 6.16186 9.72164C6.15995 9.74932 6.16465 9.77699 6.17599 9.80226L6.33141 10.1015C7.16164 11.5972 8.72655 13.0971 10.226 13.8215L10.2676 13.8348C10.2817 13.8374 10.2963 13.8384 10.3108 13.8373C10.334 13.8355 10.356 13.8275 10.3764 13.8165L12.8822 11.6856L12.9429 11.6398C13.1439 11.5062 13.3749 11.4249 13.6153 11.403C13.8557 11.3811 14.0982 11.4191 14.3201 11.5144L14.3292 11.5185L19.128 13.6686H19.1272C19.4117 13.7925 19.6491 14.0041 19.8046 14.2728C19.9616 14.5444 20.0269 14.8597 19.9899 15.1712L19.9882 15.1804C19.8096 16.5151 19.1527 17.7397 18.139 18.6262C17.1254 19.5125 15.8244 20.0008 14.478 20C10.6383 20 6.9554 18.4747 4.24033 15.7597C1.6101 13.1294 0.0961837 9.59133 0.00415657 5.88191L1.0108e-06 5.52204C-0.000810917 4.17565 0.48754 2.87456 1.37383 1.86099C2.2603 0.847335 3.48491 0.190368 4.81962 0.0117687L4.82876 0.0101065ZM4.98168 1.27755C3.95634 1.41647 3.01585 1.92224 2.33459 2.70125C1.65178 3.48211 1.27579 4.48474 1.27659 5.52204L1.28074 5.85033C1.36469 9.23261 2.74464 12.4588 5.14292 14.8571C7.61858 17.3327 10.9769 18.7234 14.478 18.7234C15.5153 18.7242 16.5179 18.3482 17.2988 17.6654C18.0779 16.984 18.5828 16.0431 18.7216 15.0175C18.7253 14.9808 18.7184 14.9439 18.7 14.9119C18.681 14.8791 18.6518 14.8529 18.6169 14.838L18.6061 14.8338L13.8164 12.6879L13.7748 12.6754C13.7605 12.6731 13.7454 12.6724 13.7308 12.6738C13.7085 12.6758 13.6875 12.6836 13.6676 12.6937L11.1627 14.8238C11.1447 14.8391 11.1257 14.8538 11.1061 14.8671C10.8981 15.0075 10.6567 15.0909 10.4063 15.1097C10.156 15.1286 9.90503 15.082 9.67829 14.9743L9.67497 14.9726C7.81982 14.0778 5.93345 12.2156 5.02823 10.3624L5.02656 10.3583C4.91843 10.1328 4.87052 9.88302 4.88777 9.63355C4.90503 9.38408 4.9865 9.14302 5.12463 8.93458C5.13802 8.91439 5.15309 8.89495 5.16868 8.8764L7.30547 6.33486C7.3156 6.31495 7.32342 6.29407 7.32542 6.2717C7.32795 6.24286 7.3235 6.21354 7.31212 6.18693V6.1861L5.16619 1.39308L5.16203 1.3831C5.1471 1.34825 5.12089 1.31898 5.08807 1.29999C5.05591 1.28144 5.01857 1.27367 4.98168 1.27755Z" fill="#BDBDBD"/>
</svg>
