<svg width="30" height="30" viewBox="0 0 30 30" fill="none" xmlns="http://www.w3.org/2000/svg">
<path d="M15 30C23.2843 30 30 23.2843 30 15C30 6.71573 23.2843 0 15 0C6.71573 0 0 6.71573 0 15C0 23.2843 6.71573 30 15 30Z" fill="#BDBDBD"/>
<path d="M16.2723 13.9424L21.2451 8.15771H20.068L15.7499 13.1808L12.3004 8.15771H8.32227L13.5405 15.749L8.32227 21.8107H9.49936L14.0629 16.5106L17.7075 21.8107H21.6857L16.2723 13.9361V13.9424ZM14.6609 15.8182L14.1322 15.0629L9.92739 9.04525H11.7402L15.133 13.8984L15.6618 14.6537L20.0743 20.9672H18.2614L14.6609 15.8182Z" fill="black"/>
</svg>
