<svg width="164" height="53" viewBox="0 0 164 53" fill="none" xmlns="http://www.w3.org/2000/svg">
<g clip-path="url(#clip0_621_1816)">
<path d="M28.1612 36.733H18.5134C15.5244 36.733 12.6868 36.0269 10.1898 34.7785C6.1667 32.7609 2.97599 29.331 1.29866 25.1444C2.13102 19.4951 4.57765 14.3754 8.15932 10.252C6.89817 11.8408 5.99014 13.7197 5.57396 15.7752C5.3974 16.6074 5.30912 17.4775 5.30912 18.3602C5.30912 19.2429 5.41001 20.1887 5.58657 21.0588C6.15409 23.7573 7.56658 26.1406 9.53397 27.9565C11.8923 30.1254 15.0452 31.462 18.5008 31.462H22.8265C25.765 31.462 28.1486 33.8201 28.1486 36.7457L28.1612 36.733Z" fill="url(#paint0_linear_621_1816)"/>
<path d="M28.1615 0C28.1615 0 28.1615 0.10088 28.1615 0.163931C28.0732 3.00119 25.7275 5.28361 22.852 5.28361H18.5263C15.0329 5.28361 11.8422 6.63288 9.48385 8.85225C9.04245 9.26838 8.62627 9.70973 8.24792 10.1889C8.2227 10.2141 8.19748 10.2394 8.18486 10.2646C4.59059 14.3881 2.14396 19.5077 1.32421 25.157C0.807136 23.8582 0.428791 22.4963 0.227007 21.0714C0.0882803 20.1887 0.0252228 19.2934 0.0252228 18.3728C0.0252228 17.4523 0.0882803 16.6326 0.214395 15.7878C1.45032 6.85986 9.18117 0 18.5137 0H28.1615Z" fill="url(#paint1_linear_621_1816)"/>
<path d="M37.7838 36.733H30.0908C30.0908 34.6524 29.1954 32.7609 27.7576 31.4621H32.4617C35.4002 31.4621 37.7838 33.8201 37.7838 36.733Z" fill="url(#paint2_linear_621_1816)"/>
<path d="M21.7303 16.267H31.3781C34.367 16.267 37.2046 16.9731 39.7017 18.2215C43.7248 20.2391 46.9155 23.6691 48.5928 27.8556C47.7604 33.5049 45.3138 38.6246 41.7321 42.748C42.9933 41.1592 43.9013 39.2803 44.3175 37.2248C44.4941 36.3926 44.5823 35.5225 44.5823 34.6398C44.5823 33.7571 44.4815 32.8113 44.3049 31.9412C43.7374 29.2427 42.3249 26.8594 40.3575 25.0435C37.9991 22.8746 34.8463 21.538 31.3907 21.538H27.065C24.1265 21.538 21.7429 19.1799 21.7429 16.2543L21.7303 16.267Z" fill="url(#paint3_linear_621_1816)"/>
<path d="M21.7282 53C21.7282 53 21.7282 52.8991 21.7282 52.8361C21.8165 49.9988 24.1622 47.7164 27.0376 47.7164H31.3634C34.8568 47.7164 38.0475 46.3671 40.4058 44.1478C40.8472 43.7316 41.2634 43.2903 41.6417 42.8111C41.667 42.7859 41.6922 42.7606 41.7048 42.7354C45.2991 38.6119 47.7457 33.4923 48.5655 27.843C49.0825 29.1418 49.4609 30.5037 49.6627 31.9286C49.8014 32.8113 49.8645 33.7066 49.8645 34.6272C49.8645 35.5477 49.8014 36.3674 49.6753 37.2122C48.4141 46.1275 40.6833 52.9874 31.3508 52.9874H21.703L21.7282 53Z" fill="url(#paint4_linear_621_1816)"/>
<path d="M62.5664 41.2601V35.5729H63.3357V41.2601H62.5664Z" fill="white"/>
<path d="M68.8098 35.5729V41.2601L67.9901 40.4152L65.1147 37.5401L64.2949 36.7204V35.5729L67.9901 39.2551V35.5729H68.8098ZM64.2949 37.3005L65.1147 38.1202V41.2601H64.2949V37.3005Z" fill="white"/>
<path d="M74.2825 35.5729V41.2601L73.4627 40.4152L70.5873 37.5401L69.7676 36.7204V35.5729L73.4627 39.2551V35.5729H74.2825ZM69.7676 37.3005L70.5873 38.1202V41.2601H69.7676V37.3005Z" fill="white"/>
<path d="M80.8293 38.4102C80.8293 39.9864 79.5555 41.2601 77.9791 41.2601C76.4027 41.2601 75.1289 39.9864 75.1289 38.4102C75.1289 36.8339 76.4027 35.5603 77.9791 35.5603C79.5555 35.5603 80.8293 36.8339 80.8293 38.4102ZM80.0096 38.4102C80.0096 37.2879 79.1015 36.38 77.9791 36.38C76.8567 36.38 75.9487 37.2879 75.9487 38.4102C75.9487 39.5325 76.8567 40.4404 77.9791 40.4404C79.1015 40.4404 80.0096 39.5325 80.0096 38.4102Z" fill="white"/>
<path d="M83.3383 38.8137L82.796 39.7973L80.4629 35.5729H81.5475L83.3383 38.8137ZM86.756 35.5729L84.1455 40.2765L83.6032 41.2601L83.0609 40.2765L83.6032 39.2929L85.6714 35.5603H86.756V35.5729Z" fill="white"/>
<path d="M87.084 37.0105L87.6263 37.994L85.8229 41.2474H84.7383L87.084 37.0105ZM91.0566 41.2601H89.972L87.8912 37.5149L87.3489 36.5313L87.8785 35.5729H87.9038L88.4335 36.5313L91.0566 41.2601Z" fill="white"/>
<path d="M89.6934 36.3926V35.5729H94.7632V36.3926H89.6934ZM91.7742 41.2601V36.8087H92.594V41.2601H91.7742Z" fill="white"/>
<path d="M95.7344 41.2601V35.5729H96.5037V41.2601H95.7344Z" fill="white"/>
<path d="M100.338 38.8137L99.796 39.7973L97.4629 35.5729H98.5475L100.338 38.8137ZM103.756 35.5729L101.145 40.2765L100.603 41.2601L100.061 40.2765L100.603 39.2929L102.671 35.5603H103.756V35.5729Z" fill="white"/>
<path d="M104.613 36.3926V35.5729H109.645V36.3926H104.613ZM105.433 40.4404H109.645V41.2601H104.613V36.8087H105.433V37.8049H109.09V38.6246H105.433V40.4404Z" fill="white"/>
<path d="M115.838 37.1996C115.838 37.6157 116.154 37.9688 116.57 38.0067C116.595 38.0067 116.62 38.0067 116.658 38.0067C116.708 38.0067 116.759 38.0067 116.797 38.0067H118.424C119.029 38.0067 119.559 38.3345 119.836 38.8263C119.975 39.0659 120.05 39.3433 120.05 39.6334C120.05 39.9234 119.975 40.2008 119.836 40.4404C119.559 40.9322 119.029 41.2601 118.424 41.2601H116.658C116.053 41.2601 115.523 40.9322 115.245 40.4404C115.119 40.2134 115.044 39.9486 115.031 39.6712H115.851C115.876 40.0999 116.229 40.4404 116.658 40.4404H118.424C118.865 40.4404 119.231 40.0747 119.231 39.6334C119.231 39.192 118.865 38.8263 118.424 38.8263H116.645C116.191 38.8263 115.775 38.6372 115.472 38.3345C115.372 38.2336 115.296 38.1328 115.22 38.0067C115.082 37.7671 115.006 37.4896 115.006 37.1996C115.006 36.9096 115.082 36.6322 115.22 36.3926C115.498 35.9008 116.027 35.5729 116.633 35.5729H118.361C118.361 35.5729 118.386 35.5729 118.398 35.5729C118.411 35.5729 118.424 35.5729 118.436 35.5729C119.029 35.5855 119.533 35.9134 119.811 36.3926C119.937 36.6196 120.013 36.8844 120.025 37.1618H119.205C119.18 36.7457 118.84 36.4178 118.424 36.3926H116.62C116.179 36.3926 115.813 36.7583 115.813 37.1996H115.838Z" fill="white"/>
<path d="M126.154 38.4102C126.154 39.9864 124.88 41.2601 123.303 41.2601C121.727 41.2601 120.453 39.9864 120.453 38.4102C120.453 36.8339 121.727 35.5603 123.303 35.5603C124.88 35.5603 126.154 36.8339 126.154 38.4102ZM125.334 38.4102C125.334 37.2879 124.426 36.38 123.303 36.38C122.181 36.38 121.273 37.2879 121.273 38.4102C121.273 39.5325 122.181 40.4404 123.303 40.4404C124.426 40.4404 125.334 39.5325 125.334 38.4102Z" fill="white"/>
<path d="M127.931 40.4404H131.538V41.2601H127.111V35.5729H127.931V40.4404Z" fill="white"/>
<path d="M136.307 35.5729H137.126V39.192C137.126 39.6207 136.975 40.0369 136.672 40.3521C136.559 40.4782 136.433 40.5917 136.307 40.6926C135.827 41.0583 135.235 41.2601 134.592 41.2601C133.948 41.2601 133.356 41.0457 132.876 40.68C132.738 40.5791 132.612 40.4656 132.498 40.3395C132.208 40.0243 132.057 39.6081 132.057 39.1794V35.5603H132.876V38.7002C132.876 39.6208 133.608 40.4026 134.528 40.4278C134.554 40.4278 134.566 40.4278 134.592 40.4278C134.617 40.4278 134.629 40.4278 134.655 40.4278C135.575 40.4026 136.307 39.6208 136.307 38.7002V35.5603V35.5729Z" fill="white"/>
<path d="M138.098 36.3926V35.5729H143.167V36.3926H138.098ZM140.179 41.2601V36.8087H140.998V41.2601H140.179Z" fill="white"/>
<path d="M144.137 41.2601V35.5729H144.906V41.2601H144.137Z" fill="white"/>
<path d="M151.552 38.4102C151.552 39.9864 150.278 41.2601 148.702 41.2601C147.125 41.2601 145.852 39.9864 145.852 38.4102C145.852 36.8339 147.125 35.5603 148.702 35.5603C150.278 35.5603 151.552 36.8339 151.552 38.4102ZM150.732 38.4102C150.732 37.2879 149.824 36.38 148.702 36.38C147.579 36.38 146.671 37.2879 146.671 38.4102C146.671 39.5325 147.579 40.4404 148.702 40.4404C149.824 40.4404 150.732 39.5325 150.732 38.4102Z" fill="white"/>
<path d="M157.027 35.5729V41.2601L156.207 40.4152L153.331 37.5401L152.512 36.7204V35.5729L156.207 39.2551V35.5729H157.027ZM152.512 37.3005L153.331 38.1202V41.2601H152.512V37.3005Z" fill="white"/>
<path d="M158.817 37.1996C158.817 37.6157 159.132 37.9688 159.548 38.0067C159.573 38.0067 159.599 38.0067 159.636 38.0067C159.687 38.0067 159.737 38.0067 159.775 38.0067H161.402C162.007 38.0067 162.537 38.3345 162.815 38.8263C162.953 39.0659 163.029 39.3433 163.029 39.6334C163.029 39.9234 162.953 40.2008 162.815 40.4404C162.537 40.9322 162.007 41.2601 161.402 41.2601H159.636C159.031 41.2601 158.501 40.9322 158.224 40.4404C158.098 40.2134 158.022 39.9486 158.01 39.6712H158.829C158.855 40.0999 159.208 40.4404 159.636 40.4404H161.402C161.844 40.4404 162.209 40.0747 162.209 39.6334C162.209 39.192 161.844 38.8263 161.402 38.8263H159.624C159.17 38.8263 158.754 38.6372 158.451 38.3345C158.35 38.2336 158.274 38.1328 158.199 38.0067C158.06 37.7671 157.984 37.4896 157.984 37.1996C157.984 36.9096 158.06 36.6322 158.199 36.3926C158.476 35.9008 159.006 35.5729 159.611 35.5729H161.339C161.339 35.5729 161.364 35.5729 161.377 35.5729C161.389 35.5729 161.402 35.5729 161.415 35.5729C162.007 35.5855 162.512 35.9134 162.789 36.3926C162.915 36.6196 162.991 36.8844 163.004 37.1618H162.184C162.159 36.7457 161.818 36.4178 161.402 36.3926H159.599C159.157 36.3926 158.792 36.7583 158.792 37.1996H158.817Z" fill="white"/>
<path d="M62.7813 20.1004C62.6931 20.5418 62.6426 20.9957 62.6426 21.4749C62.6426 21.9541 62.6931 22.4459 62.794 22.8998C63.4497 26.0397 66.2495 28.3978 69.5789 28.3978C72.3282 28.3978 74.6992 26.7963 75.8216 24.4761H78.8358C77.5746 28.3726 73.9047 31.1972 69.5789 31.1972C64.6983 31.1972 60.65 27.5908 59.9564 22.8998C59.8933 22.4333 59.8555 21.9541 59.8555 21.4749C59.8555 20.9957 59.8933 20.5544 59.9564 20.1004C60.6248 15.3842 64.6731 11.7399 69.5789 11.7399C74.0056 11.7399 77.7512 14.7033 78.9241 18.7637H75.9604C74.901 16.2796 72.4417 14.5394 69.5789 14.5394C66.2243 14.5394 63.4245 16.9353 62.7813 20.1004ZM101.612 21.5001C101.612 26.8594 97.2738 31.1972 91.9139 31.1972C86.554 31.1972 82.2157 26.8594 82.2157 21.5001C82.2157 16.1408 86.554 11.803 91.9139 11.803C97.2738 11.803 101.612 16.1408 101.612 21.5001ZM98.825 21.5001C98.825 17.6919 95.7226 14.5898 91.9139 14.5898C88.1052 14.5898 85.0028 17.6919 85.0028 21.5001C85.0028 25.3083 88.1052 28.4104 91.9139 28.4104C95.7226 28.4104 98.825 25.3083 98.825 21.5001ZM122.245 20.1761C122.308 20.6174 122.345 21.084 122.345 21.5506C122.345 22.0171 122.308 22.5089 122.245 22.9755C121.614 27.2881 118.158 30.6802 113.807 31.1972H104.891V16.0147H107.691V28.3978H113.618C116.494 27.9817 118.814 25.7875 119.407 22.9629C119.508 22.4963 119.558 22.0297 119.558 21.5379C119.558 21.0462 119.508 20.6048 119.42 20.1635C119.079 18.4737 118.121 17.0109 116.809 16.0021C115.724 15.1825 114.388 14.6655 112.937 14.6024H104.904V11.803H112.748C117.604 11.866 121.601 15.4725 122.27 20.1635L122.245 20.1761ZM126.028 14.615V11.8156H143.167V14.615H126.028ZM128.828 28.3978H143.167V31.1972H126.028V16.0147H128.828V20.113H141.288V22.9124H128.828V28.4104V28.3978Z" fill="white"/>
<path d="M163.27 22.8998C163.736 23.7069 164.001 24.6526 164.001 25.6488C164.001 26.645 163.736 27.5908 163.27 28.3978C162.311 30.0623 160.52 31.1846 158.452 31.1846H146.824V28.3978H158.452C159.966 28.3978 161.202 27.162 161.202 25.6488C161.202 24.1356 159.966 22.8998 158.452 22.8998H149.221V20.1004H158.452C159.966 20.1004 161.202 18.8646 161.202 17.3514C161.202 15.8382 159.966 14.6024 158.452 14.6024H146.824V11.803H158.452C160.52 11.803 162.311 12.9253 163.27 14.6024C163.736 15.4095 164.001 16.3552 164.001 17.3514C164.001 18.3476 163.736 19.2934 163.27 20.1004C162.967 20.63 162.589 21.0966 162.135 21.5001C162.589 21.9036 162.967 22.3702 163.27 22.8998Z" fill="white"/>
</g>
<defs>
<linearGradient id="paint0_linear_621_1816" x1="2.68593" y1="16.9479" x2="22.1686" y2="35.2599" gradientUnits="userSpaceOnUse">
<stop stop-color="#1B3E70"/>
<stop offset="0.18" stop-color="#185082"/>
<stop offset="0.73" stop-color="#1282B3"/>
<stop offset="1" stop-color="#1096C7"/>
</linearGradient>
<linearGradient id="paint1_linear_621_1816" x1="-0.201784" y1="17.9945" x2="21.8285" y2="0.602796" gradientUnits="userSpaceOnUse">
<stop stop-color="#1096C7"/>
<stop offset="1" stop-color="#223C78"/>
</linearGradient>
<linearGradient id="paint2_linear_621_1816" x1="27.745" y1="34.0975" x2="37.7838" y2="34.0975" gradientUnits="userSpaceOnUse">
<stop stop-color="#036667"/>
<stop offset="1" stop-color="#65B1B2"/>
</linearGradient>
<linearGradient id="paint3_linear_621_1816" x1="47.2055" y1="36.0521" x2="27.7229" y2="17.7401" gradientUnits="userSpaceOnUse">
<stop stop-color="#036667"/>
<stop offset="1" stop-color="#65B1B2"/>
</linearGradient>
<linearGradient id="paint4_linear_621_1816" x1="50.0788" y1="35.0055" x2="28.0611" y2="52.3972" gradientUnits="userSpaceOnUse">
<stop stop-color="#65B1B2"/>
<stop offset="1" stop-color="#036667"/>
</linearGradient>
<clipPath id="clip0_621_1816">
<rect width="164" height="53" fill="white"/>
</clipPath>
</defs>
</svg>
