<svg width="48" height="60" viewBox="0 0 48 60" fill="none" xmlns="http://www.w3.org/2000/svg">
<path d="M26.4861 28.4198H19.0563C16.7513 28.4198 14.5695 27.8737 12.6486 26.9053C9.54627 25.347 7.09627 22.6893 5.80603 19.449C6.4439 15.0801 8.32852 11.119 11.0902 7.92969C10.1189 9.15298 9.42304 10.6166 9.09686 12.2039C8.95914 12.852 8.8939 13.5219 8.8939 14.2063C8.8939 14.8908 8.96638 15.6189 9.10411 16.2888C9.54627 18.3713 10.6263 20.2281 12.1412 21.6262C13.9534 23.3009 16.3816 24.3349 19.0491 24.3349H22.3834C24.6449 24.3349 26.4788 26.1625 26.4788 28.4198H26.4861Z" fill="#BDBDBD"/>
<path d="M26.4856 0C26.4856 0.0436889 26.4856 0.0800964 26.4856 0.123785C26.4204 2.31551 24.6155 4.08492 22.3975 4.08492H19.0632C16.374 4.08492 13.924 5.13345 12.1046 6.8446C11.7639 7.16499 11.4377 7.50722 11.1478 7.87129C11.126 7.89314 11.1115 7.9077 11.097 7.92954C8.32809 11.1188 6.45073 15.08 5.81286 19.4489C5.41419 18.444 5.12425 17.3882 4.96478 16.2887C4.8633 15.6115 4.81256 14.9125 4.81256 14.2062C4.81256 13.4999 4.8633 12.8591 4.95753 12.2038C5.92158 5.30821 11.8654 0 19.0559 0H26.4856Z" fill="#BDBDBD"/>
<path d="M33.8866 28.4199H27.9646C27.9646 26.8107 27.276 25.3544 26.1669 24.335H29.7912C32.0527 24.335 33.8866 26.1626 33.8866 28.4199Z" fill="#BDBDBD"/>
<path d="M21.5276 12.583H28.9574C31.2624 12.583 33.4442 13.1291 35.3651 14.0976C38.4674 15.6558 40.9174 18.3135 42.2077 21.5538C41.5698 25.9227 39.6852 29.8838 36.9235 33.0731C37.8948 31.8498 38.5907 30.3863 38.9168 28.7989C39.0546 28.1508 39.1198 27.4809 39.1198 26.7965C39.1198 26.112 39.0473 25.3839 38.9096 24.714C38.4674 22.6315 37.3874 20.7747 35.8725 19.3766C34.0603 17.7019 31.6321 16.6679 28.9646 16.6679H25.6303C23.3688 16.6679 21.5349 14.8403 21.5349 12.583H21.5276Z" fill="#BDBDBD"/>
<path d="M21.5282 41.0026C21.5282 40.9589 21.5282 40.9225 21.5282 40.8788C21.5934 38.6871 23.3983 36.9177 25.6163 36.9177H28.9507C31.6399 36.9177 34.0899 35.8691 35.9092 34.158C36.2499 33.8376 36.5761 33.4954 36.866 33.1313C36.8878 33.1094 36.9023 33.0949 36.9168 33.073C39.6857 29.8837 41.5631 25.9226 42.2009 21.5537C42.5996 22.5586 42.8896 23.6144 43.049 24.7139C43.1505 25.3911 43.2012 26.0901 43.2012 26.7964C43.2012 27.5027 43.1505 28.1435 43.0563 28.7988C42.085 35.7016 36.1339 41.0026 28.9434 41.0026H21.5137H21.5282Z" fill="#BDBDBD"/>
<path d="M1.26172 59.9927V57.3638H1.617V59.9927H1.26172Z" fill="#BDBDBD"/>
<path d="M4.14046 57.3564V59.9853L3.76343 59.5921L2.43655 58.2594L2.05951 57.8807V57.3491L3.76343 59.0532V57.3491H4.14046V57.3564ZM2.05951 58.1575L2.43655 58.5361V59.9926H2.05951V58.1575Z" fill="#BDBDBD"/>
<path d="M6.66274 57.3564V59.9853L6.2857 59.5921L4.95882 58.2594L4.58179 57.8807V57.3491L6.2857 59.0532V57.3491H6.66274V57.3564ZM4.58179 58.1575L4.95882 58.5361V59.9926H4.58179V58.1575Z" fill="#BDBDBD"/>
<path d="M9.67841 58.6746C9.67841 59.4028 9.0911 59.9927 8.36603 59.9927C7.64096 59.9927 7.05365 59.4028 7.05365 58.6746C7.05365 57.9463 7.64096 57.3564 8.36603 57.3564C9.0911 57.3564 9.67841 57.9463 9.67841 58.6746ZM9.30137 58.6746C9.30137 58.1575 8.88083 57.7351 8.36603 57.7351C7.85123 57.7351 7.43069 58.1575 7.43069 58.6746C7.43069 59.1916 7.85123 59.614 8.36603 59.614C8.88083 59.614 9.30137 59.1916 9.30137 58.6746Z" fill="#BDBDBD"/>
<path d="M10.8373 58.8566L10.5907 59.3081L9.51038 57.3564H10.0107L10.8373 58.8566ZM12.4107 57.3564L11.207 59.5339L10.9605 59.9854L10.714 59.5339L10.9605 59.0824L11.9104 57.3564H12.4107Z" fill="#BDBDBD"/>
<path d="M12.5625 58.0265L12.809 58.4853L11.9752 59.9927H11.4749L12.5553 58.0265H12.5625ZM14.3897 59.9927H13.8894L12.9323 58.2595L12.6858 57.808L12.9323 57.3638H12.9468L13.1933 57.808L14.397 60L14.3897 59.9927Z" fill="#BDBDBD"/>
<path d="M13.7654 57.7425V57.3638H16.1074V57.7425H13.7654ZM14.7298 59.9927V57.9318H15.1068V59.9927H14.7298Z" fill="#BDBDBD"/>
<path d="M16.5488 59.9927V57.3638H16.9041V59.9927H16.5488Z" fill="#BDBDBD"/>
<path d="M18.6735 58.8566L18.427 59.3081L17.3466 57.3564H17.8469L18.6735 58.8566ZM20.2469 57.3564L19.0433 59.5339L18.7968 59.9854L18.5502 59.5339L18.7968 59.0824L19.7466 57.3564H20.2469Z" fill="#BDBDBD"/>
<path d="M20.6374 57.7351V57.3564H22.9576V57.7351H20.6374ZM21.0144 59.614H22.9576V59.9927H20.6374V57.9318H21.0144V58.3905H22.7038V58.7692H21.0144V59.614Z" fill="#BDBDBD"/>
<path d="M25.8053 58.1139C25.8053 58.3105 25.9503 58.4707 26.1388 58.4853C26.1533 58.4853 26.1606 58.4853 26.1751 58.4853C26.1968 58.4853 26.2186 58.4853 26.2403 58.4853H26.9944C27.2699 58.4853 27.5165 58.6382 27.647 58.8639C27.7122 58.9732 27.7485 59.1043 27.7485 59.2353C27.7485 59.3664 27.7122 59.4975 27.647 59.6067C27.5165 59.8325 27.2772 59.9854 26.9944 59.9854H26.1751C25.8996 59.9854 25.653 59.8325 25.5225 59.6067C25.4645 59.5048 25.4283 59.381 25.421 59.2499H25.798C25.8053 59.4465 25.9721 59.6067 26.1678 59.6067H26.9872C27.1902 59.6067 27.3569 59.4393 27.3569 59.2353C27.3569 59.0314 27.1902 58.8639 26.9872 58.8639H26.1678C25.9576 58.8639 25.769 58.7766 25.6313 58.6382C25.5878 58.5945 25.5515 58.5435 25.5153 58.4853C25.45 58.376 25.4138 58.2449 25.4138 58.1139C25.4138 57.9828 25.45 57.8517 25.5153 57.7425C25.6458 57.5167 25.8851 57.3638 26.1678 57.3638H26.9654C26.9654 57.3638 26.9799 57.3638 26.9872 57.3638C26.9944 57.3638 27.0017 57.3638 27.0089 57.3638C27.2772 57.3638 27.5165 57.524 27.6397 57.7425C27.6977 57.8444 27.734 57.9682 27.7412 58.0993H27.3642C27.3569 57.91 27.1974 57.7497 27.0017 57.7425H26.1678C25.9648 57.7425 25.798 57.9099 25.798 58.1139H25.8053Z" fill="#BDBDBD"/>
<path d="M30.5606 58.6746C30.5606 59.4028 29.9733 59.9927 29.2482 59.9927C28.5232 59.9927 27.9359 59.4028 27.9359 58.6746C27.9359 57.9463 28.5232 57.3564 29.2482 57.3564C29.9733 57.3564 30.5606 57.9463 30.5606 58.6746ZM30.1836 58.6746C30.1836 58.1575 29.763 57.7351 29.2482 57.7351C28.7334 57.7351 28.3129 58.1575 28.3129 58.6746C28.3129 59.1916 28.7334 59.614 29.2482 59.614C29.763 59.614 30.1836 59.1916 30.1836 58.6746Z" fill="#BDBDBD"/>
<path d="M31.387 59.614H33.0474V59.9927H31.0099V57.3638H31.387V59.614Z" fill="#BDBDBD"/>
<path d="M35.243 57.3564H35.62V59.0314C35.62 59.228 35.5475 59.4246 35.4097 59.5702C35.359 59.6285 35.301 59.6795 35.2357 59.7232C35.0182 59.8907 34.7427 59.9853 34.4454 59.9853C34.1481 59.9853 33.8726 59.8834 33.6551 59.7159C33.5898 59.6722 33.539 59.6139 33.481 59.563C33.3433 59.4173 33.278 59.2207 33.278 59.0241V57.3491H33.6551V58.8056C33.6551 59.2353 33.9886 59.5921 34.4164 59.6067C34.4236 59.6067 34.4381 59.6067 34.4454 59.6067C34.4526 59.6067 34.4671 59.6067 34.4744 59.6067C34.9022 59.5921 35.2357 59.2353 35.2357 58.8056V57.3491L35.243 57.3564Z" fill="#BDBDBD"/>
<path d="M36.0685 57.7425V57.3638H38.4105V57.7425H36.0685ZM37.0256 59.9927V57.9318H37.4027V59.9927H37.0256Z" fill="#BDBDBD"/>
<path d="M38.8521 59.9927V57.3638H39.2073V59.9927H38.8521Z" fill="#BDBDBD"/>
<path d="M42.2676 58.6746C42.2676 59.4028 41.6803 59.9927 40.9553 59.9927C40.2302 59.9927 39.6429 59.4028 39.6429 58.6746C39.6429 57.9463 40.2302 57.3564 40.9553 57.3564C41.6803 57.3564 42.2676 57.9463 42.2676 58.6746ZM41.8906 58.6746C41.8906 58.1575 41.4701 57.7351 40.9553 57.7351C40.4405 57.7351 40.0199 58.1575 40.0199 58.6746C40.0199 59.1916 40.4405 59.614 40.9553 59.614C41.4701 59.614 41.8906 59.1916 41.8906 58.6746Z" fill="#BDBDBD"/>
<path d="M44.7898 57.3564V59.9853L44.4127 59.5921L43.0858 58.2594L42.7088 57.8807V57.3491L44.4127 59.0532V57.3491H44.7898V57.3564ZM42.7088 58.1575L43.0858 58.5361V59.9926H42.7088V58.1575Z" fill="#BDBDBD"/>
<path d="M45.6155 58.1139C45.6155 58.3105 45.7606 58.4707 45.9491 58.4853C45.9636 58.4853 45.9708 58.4853 45.9853 58.4853C46.0071 58.4853 46.0288 58.4853 46.0506 58.4853H46.8047C47.0802 58.4853 47.3267 58.6382 47.4572 58.8639C47.5225 58.9732 47.5587 59.1043 47.5587 59.2353C47.5587 59.3664 47.5225 59.4975 47.4572 59.6067C47.3267 59.8325 47.0874 59.9854 46.8047 59.9854H45.9853C45.7098 59.9854 45.4633 59.8325 45.3328 59.6067C45.2748 59.5048 45.2385 59.381 45.2313 59.2499H45.6083C45.6155 59.4465 45.7823 59.6067 45.9781 59.6067H46.7974C47.0004 59.6067 47.1672 59.4393 47.1672 59.2353C47.1672 59.0314 47.0004 58.8639 46.7974 58.8639H45.9781C45.7678 58.8639 45.5793 58.7766 45.4415 58.6382C45.398 58.5945 45.3618 58.5435 45.3255 58.4853C45.2603 58.376 45.224 58.2449 45.224 58.1139C45.224 57.9828 45.2603 57.8517 45.3255 57.7425C45.456 57.5167 45.6953 57.3638 45.9781 57.3638H46.7757C46.7757 57.3638 46.7902 57.3638 46.7974 57.3638C46.8047 57.3638 46.8119 57.3638 46.8192 57.3638C47.0874 57.3638 47.3267 57.524 47.45 57.7425C47.508 57.8444 47.5442 57.9682 47.5515 58.0993H47.1744C47.1672 57.91 47.0077 57.7497 46.8119 57.7425H45.9781C45.7751 57.7425 45.6083 57.9099 45.6083 58.1139H45.6155Z" fill="#BDBDBD"/>
<path d="M1.36272 50.199C1.31923 50.4029 1.29748 50.614 1.29748 50.8325C1.29748 51.0509 1.31923 51.2767 1.36272 51.4951C1.66716 52.9514 2.95015 54.0436 4.48683 54.0436C5.75532 54.0436 6.84985 53.3009 7.3645 52.2305H8.74896C8.16908 54.0363 6.48018 55.3397 4.48683 55.3397C2.23254 55.3397 0.369675 53.6723 0.0507396 51.4951C0.0217456 51.2767 0 51.0582 0 50.8325C0 50.6068 0.014497 50.4029 0.0434911 50.199C0.347929 48.0145 2.21805 46.3325 4.47959 46.3325C6.52367 46.3325 8.24157 47.7014 8.78521 49.5801H7.42248C6.93683 48.4296 5.79882 47.6286 4.47959 47.6286C2.93565 47.6286 1.64541 48.7354 1.34822 50.199H1.36272ZM19.2593 50.847C19.2593 53.33 17.2587 55.3397 14.787 55.3397C12.3152 55.3397 10.3146 53.33 10.3146 50.847C10.3146 48.3641 12.3152 46.3544 14.787 46.3544C17.2587 46.3544 19.2593 48.3641 19.2593 50.847ZM17.9691 50.847C17.9691 49.0849 16.5411 47.6505 14.787 47.6505C13.0328 47.6505 11.6049 49.0849 11.6049 50.847C11.6049 52.6092 13.0328 54.0436 14.787 54.0436C16.5411 54.0436 17.9691 52.6092 17.9691 50.847ZM28.7621 50.2354C28.7911 50.4393 28.8056 50.6577 28.8056 50.8689C28.8056 51.0801 28.7911 51.3131 28.7549 51.5315C28.4649 53.5266 26.8703 55.0922 24.8697 55.3397H20.7598V48.3131H22.05V54.0436H24.7827C26.1092 53.8543 27.1747 52.8349 27.4501 51.5315C27.4936 51.3203 27.5154 51.0946 27.5154 50.8689C27.5154 50.6432 27.4936 50.4393 27.4501 50.2354C27.2907 49.4563 26.8558 48.7791 26.2469 48.3131C25.7467 47.9344 25.1306 47.6942 24.4638 47.665H20.7598V46.3689H24.3695C26.6093 46.3981 28.4504 48.0655 28.7549 50.2354H28.7621ZM30.509 47.6577V46.3616H38.4027V47.6577H30.509ZM31.792 54.0436H38.4027V55.3397H30.509V48.3131H31.7993V50.2136H37.5401V51.5097H31.7993V54.0509L31.792 54.0436Z" fill="#BDBDBD"/>
<path d="M47.6663 51.4947C47.8837 51.8661 47.9997 52.303 47.9997 52.769C47.9997 53.235 47.8765 53.6646 47.6663 54.0433C47.2241 54.8151 46.3978 55.3394 45.4482 55.3394H40.0916V54.0433H45.4482C46.1441 54.0433 46.7167 53.4753 46.7167 52.769C46.7167 52.0627 46.1513 51.4947 45.4482 51.4947H41.1933V50.1986H45.4482C46.1441 50.1986 46.7167 49.6307 46.7167 48.9244C46.7167 48.2181 46.1513 47.6501 45.4482 47.6501H40.0916V46.354H45.4482C46.3978 46.354 47.2241 46.8783 47.6663 47.6501C47.8765 48.0215 47.9997 48.4584 47.9997 48.9244C47.9997 49.3904 47.8765 49.82 47.6663 50.1986C47.5285 50.4462 47.3473 50.6574 47.1444 50.8467C47.3546 51.0287 47.5285 51.2472 47.6663 51.4947Z" fill="#BDBDBD"/>
</svg>
